<svg width="52" height="52" viewBox="0 0 52 52" fill="none" xmlns="http://www.w3.org/2000/svg">
<path d="M45 15.1299H44.1813C44.0933 15.1299 44.0058 15.1415 43.9209 15.1644L25.7761 20.0587C25.6033 20.1053 25.4212 20.1047 25.2487 20.0569L7.59443 15.1662C7.50749 15.1421 7.41768 15.1299 7.32746 15.1299H7.02192C6.46115 15.1299 6.01 15.5909 6.02215 16.1516L6.45818 36.2633C6.47284 36.9398 7.15171 37.4483 7.82373 37.3698C11.1851 36.977 18.3175 37.3026 22.4062 37.5827C22.8116 37.6104 23.2678 37.8256 23.6733 37.8525C24.5988 37.9137 26.5429 37.7062 29.2613 37.9074C33.4956 38.2209 40.8564 37.4711 44.9139 37.5738C45.4996 37.5886 46 37.1266 46 36.5406V16.1299C46 15.5776 45.5523 15.1299 45 15.1299Z" fill="#DFBA9C" stroke="#26272A" stroke-linecap="round"/>
<path d="M44.0605 35.7344L43.4443 35.5869C40.321 34.8388 36.8066 35.1462 33.6562 35.8545C30.5103 36.5618 27.7727 37.6583 26.2266 38.4453L25.5 38.8154V16.4619L25.7363 16.3154C32.7086 11.9778 40.5696 12.2045 43.666 12.8682L44.0605 12.9531V35.7344Z" fill="#F7EBCF" stroke="#26272A" stroke-linejoin="round"/>
<path d="M7.45117 35.7637L8.06738 35.6162C11.1916 34.8678 14.5848 35.1682 17.6094 35.8682C20.6301 36.5672 23.2466 37.6557 24.7979 38.4453L25.5244 38.8154V16.4619L25.2881 16.3154C18.3174 11.9788 10.9453 12.2334 7.84668 12.8975L7.45117 12.9824V35.7637Z" fill="#F7EBCF" stroke="#26272A" stroke-linejoin="round"/>
<path d="M10.3903 18.13C12.8293 17.7967 18.6829 17.73 22.5854 20.13" stroke="#26272A" stroke-linecap="round"/>
<path d="M41.1219 18.13C38.6829 17.7967 32.8293 17.73 28.9268 20.13" stroke="#26272A" stroke-linecap="round"/>
<path d="M41.1219 22.299C38.6829 21.9656 32.8293 21.899 28.9268 24.299" stroke="#26272A" stroke-linecap="round"/>
<path d="M41.1219 26.4679C38.6829 26.1346 32.8293 26.0679 28.9268 28.4679" stroke="#26272A" stroke-linecap="round"/>
<path d="M41.1219 30.6369C38.6829 30.3035 32.8293 30.2369 28.9268 32.6369" stroke="#26272A" stroke-linecap="round"/>
<path d="M10.3903 22.299C12.8293 21.9656 18.6829 21.899 22.5854 24.299" stroke="#26272A" stroke-linecap="round"/>
<path d="M10.3903 26.4679C12.8293 26.1346 18.6829 26.0679 22.5854 28.4679" stroke="#26272A" stroke-linecap="round"/>
<path d="M10.3903 30.6369C12.8293 30.3035 18.6829 30.2369 22.5854 32.6369" stroke="#26272A" stroke-linecap="round"/>
</svg>
