<svg width="34" height="22" viewBox="0 0 34 22" fill="none" xmlns="http://www.w3.org/2000/svg">
<path d="M31.8861 2.52783H31.2248C31.1538 2.52783 31.0831 2.5372 31.0145 2.5557L16.3591 6.50879C16.2196 6.54643 16.0725 6.54594 15.9331 6.50734L1.67392 2.55715C1.60369 2.53769 1.53116 2.52783 1.45829 2.52783H1.2115C0.758572 2.52783 0.394182 2.90021 0.403999 3.35303L0.756175 19.5972C0.76802 20.1435 1.31634 20.5542 1.85913 20.4908C4.5741 20.1736 10.3348 20.4366 13.6373 20.6628C13.9647 20.6852 14.3332 20.859 14.6607 20.8807C15.4082 20.9302 16.9785 20.7625 19.1741 20.9251C22.5941 21.1783 28.5393 20.5727 31.8166 20.6556C32.2897 20.6676 32.6938 20.2944 32.6938 19.8211V3.33552C32.6938 2.88945 32.3322 2.52783 31.8861 2.52783Z" fill="#DFBA9C" stroke="#26272A" stroke-width="0.807692" stroke-linecap="round"/>
<path d="M31.1278 19.1699L30.6298 19.0508C28.107 18.4465 25.2681 18.6945 22.7235 19.2666C20.183 19.8378 17.9724 20.7237 16.7235 21.3594L16.1356 21.6582V3.60352L16.327 3.48535C21.9584 -0.018027 28.3075 0.165153 30.8085 0.701172L31.1278 0.769531V19.1699Z" fill="#F7EBCF" stroke="#26272A" stroke-width="0.807692" stroke-linejoin="round"/>
<path d="M1.55859 19.1938L2.05664 19.0747C4.5799 18.4704 7.31988 18.7125 9.7627 19.2778C12.2024 19.8424 14.3154 20.7221 15.5684 21.3599L16.1562 21.6587V3.604L15.9648 3.48486C10.3349 -0.0174855 4.38073 0.188796 1.87793 0.725098L1.55859 0.793457V19.1938Z" fill="#F7EBCF" stroke="#26272A" stroke-width="0.807692" stroke-linejoin="round"/>
<path d="M3.93201 4.95103C5.90199 4.6818 10.6299 4.62796 13.7819 6.56642" stroke="#26272A" stroke-width="0.807692" stroke-linecap="round"/>
<path d="M28.7538 4.95103C26.7838 4.6818 22.0559 4.62796 18.9039 6.56642" stroke="#26272A" stroke-width="0.807692" stroke-linecap="round"/>
<path d="M28.7538 8.31822C26.7838 8.04899 22.0559 7.99514 18.9039 9.9336" stroke="#26272A" stroke-width="0.807692" stroke-linecap="round"/>
<path d="M28.7538 11.6854C26.7838 11.4162 22.0559 11.3623 18.9039 13.3008" stroke="#26272A" stroke-width="0.807692" stroke-linecap="round"/>
<path d="M28.7538 15.0526C26.7838 14.7834 22.0559 14.7295 18.9039 16.668" stroke="#26272A" stroke-width="0.807692" stroke-linecap="round"/>
<path d="M3.93201 8.31822C5.90199 8.04899 10.6299 7.99514 13.7819 9.9336" stroke="#26272A" stroke-width="0.807692" stroke-linecap="round"/>
<path d="M3.93201 11.6854C5.90199 11.4162 10.6299 11.3623 13.7819 13.3008" stroke="#26272A" stroke-width="0.807692" stroke-linecap="round"/>
<path d="M3.93201 15.0526C5.90199 14.7834 10.6299 14.7295 13.7819 16.668" stroke="#26272A" stroke-width="0.807692" stroke-linecap="round"/>
</svg>
