<svg width="52" height="52" viewBox="0 0 52 52" fill="none" xmlns="http://www.w3.org/2000/svg">
<path d="M35.7736 5.43875L28 20.5001L29 21.5001L37.7328 6.46036C37.8776 6.21095 37.7819 5.89106 37.524 5.76208L36.4415 5.22086C36.1968 5.09848 35.8991 5.19559 35.7736 5.43875Z" fill="#F9C890"/>
<path d="M35.3291 5.20877C35.5801 4.72262 36.1756 4.52859 36.665 4.77322L37.748 5.31424C38.2637 5.57224 38.4544 6.21201 38.165 6.71072L29.1064 22.3133L27.6465 20.8533L27.3877 20.5955L35.3291 5.20877ZM28.6113 20.4041L28.8936 20.6863L37.3008 6.20877L36.2178 5.66775L28.6113 20.4041Z" fill="#26272A"/>
<path d="M40.3894 9.05893L28.775 21.4031L29.4615 22.6394L41.9922 10.5797C42.2001 10.3798 42.196 10.0459 41.9835 9.85097L41.0915 9.03304C40.8898 8.84809 40.5769 8.85963 40.3894 9.05893Z" fill="#F9C890"/>
<path d="M40.0252 8.71573C40.4002 8.31732 41.0261 8.29446 41.4294 8.66421L42.322 9.4821C42.7468 9.87191 42.7543 10.5395 42.339 10.9394L29.3403 23.4506L28.3379 21.6456L28.16 21.3266L40.0252 8.71573ZM29.3891 21.4789L29.5829 21.8278L41.646 10.2192L40.7535 9.40132L29.3891 21.4789Z" fill="#26272A"/>
<path d="M15.3575 40.169L12.5 23.5L9 18.5L14.3519 18.3148L14.526 17.8273C14.8102 17.0313 15.5642 16.5 16.4094 16.5H26.4081C27.0886 16.5 27.7225 16.846 28.0905 17.4185L32 23.5L29.6227 40.1414C29.5523 40.6341 29.1304 41 28.6327 41H16.3432C15.8561 41 15.4398 40.6491 15.3575 40.169Z" fill="white"/>
<path d="M26.4082 16C27.2588 16 28.0507 16.4329 28.5107 17.1484L32.4209 23.2295L32.5215 23.3867L30.1172 40.2119C30.0116 40.9509 29.3792 41.4999 28.6328 41.5H16.3428C15.6124 41.4998 14.9878 40.9737 14.8642 40.2539L12.0254 23.6934L8.5908 18.7871C8.48567 18.6369 8.47088 18.4404 8.55272 18.2764C8.63459 18.1126 8.79944 18.0064 8.9824 18L13.9941 17.8271L14.0547 17.6592C14.41 16.6643 15.3527 16.0001 16.4092 16H26.4082ZM15.8506 40.085C15.8919 40.3246 16.0995 40.4998 16.3428 40.5H28.6328C28.8816 40.4999 29.0927 40.3166 29.1279 40.0703L31.4238 24H13.0937L15.8506 40.085ZM16.4092 17C15.7755 17.0001 15.2103 17.3984 14.9971 17.9951L13.209 23H31.084L27.6699 17.6885C27.3939 17.2593 26.9184 17 26.4082 17H16.4092ZM9.93748 18.9678L12.3545 22.4199L13.6328 18.8398L9.93748 18.9678Z" fill="#26272A"/>
<path d="M24.76 29.9215C24.5011 30.7807 23.7131 31.449 22.8458 31.6075C22.7795 31.6205 22.7018 31.4101 22.6824 31.3308C23.4542 30.9603 24.205 30.6674 24.3765 29.716L22.8053 29.6966C22.6937 29.6966 22.6986 29.3568 22.8102 29.3568L24.4542 29.3471C24.4995 29.1205 24.5254 28.8584 24.5383 28.5558L23.1273 28.5299C23.04 28.5299 23.0561 28.2015 23.1419 28.1999L24.4962 28.1804L24.5464 27.7533C24.5545 27.6788 24.5561 27.5073 24.6111 27.5073H24.8457C24.9024 27.5073 24.8975 27.6788 24.9056 27.7533L24.9525 28.1821L26.3117 28.1966C26.412 28.1966 26.4217 28.5267 26.323 28.5283L24.9266 28.5542L24.8862 29.3406L26.7065 29.3536C26.7599 29.4102 26.7357 29.695 26.6402 29.6966L25.0933 29.716C25.3781 30.4894 26.0334 30.97 26.7826 31.2936C26.7696 31.3875 26.6742 31.5412 26.5916 31.6172C25.76 31.3001 25.2211 30.7791 24.7567 29.9231L24.76 29.9215Z" fill="#26272A"/>
<path d="M24.8455 27.4575C24.8907 27.4575 24.9138 27.493 24.9236 27.5151C24.9342 27.5391 24.9395 27.569 24.9431 27.5962C24.9468 27.624 24.9494 27.6537 24.9509 27.6802C24.9525 27.7076 24.953 27.7306 24.9548 27.7476L24.9978 28.1323L26.3123 28.147C26.3689 28.147 26.4004 28.1929 26.4158 28.228C26.4325 28.2664 26.4407 28.3145 26.4421 28.3599C26.4436 28.4052 26.4378 28.4537 26.4236 28.4927C26.4106 28.5281 26.3817 28.5776 26.324 28.5786L24.9734 28.603L24.9382 29.2905L26.7068 29.3032H26.7283L26.7429 29.3188C26.7566 29.3334 26.7649 29.3521 26.7703 29.3687C26.7758 29.386 26.7799 29.4057 26.782 29.4253C26.7862 29.4646 26.7852 29.5103 26.7791 29.5532C26.7729 29.5955 26.7615 29.6396 26.7429 29.6743C26.7254 29.707 26.6929 29.7456 26.6414 29.7466L25.1667 29.7651C25.4572 30.4814 26.0812 30.936 26.8025 31.2476L26.8376 31.2632L26.8318 31.3003C26.8239 31.3572 26.7926 31.4262 26.7556 31.4878C26.7182 31.5501 26.6713 31.6117 26.6257 31.6538L26.6023 31.6753L26.574 31.6636C25.7617 31.3538 25.2263 30.8509 24.7693 30.0444C24.4925 30.8156 23.8011 31.4188 23.0193 31.6206L22.8552 31.6567C22.8102 31.6654 22.776 31.6346 22.7576 31.6138C22.7364 31.5898 22.7177 31.5578 22.7019 31.5259C22.67 31.4615 22.6441 31.3852 22.6335 31.3423L22.6238 31.3032L22.6609 31.2856C23.423 30.9198 24.1275 30.6404 24.3132 29.7651L22.8044 29.7466C22.7466 29.7461 22.7132 29.7007 22.697 29.6626C22.6801 29.6225 22.6729 29.5727 22.6736 29.5259C22.6743 29.4789 22.6829 29.4291 22.7009 29.3892C22.7181 29.3512 22.7525 29.3071 22.8103 29.3071L24.4119 29.2974C24.4494 29.0962 24.4714 28.8664 24.4841 28.604L23.1267 28.5796C23.0983 28.5794 23.076 28.5655 23.0613 28.5483C23.0475 28.5322 23.0387 28.5124 23.033 28.4937C23.0213 28.4555 23.0172 28.4074 23.0193 28.3628C23.0214 28.3182 23.0299 28.2714 23.0447 28.2339C23.052 28.2152 23.0626 28.1956 23.0769 28.1802C23.0916 28.1645 23.1134 28.1504 23.1414 28.1499L24.4519 28.1304L24.4968 27.7476L24.5115 27.5942C24.5158 27.5671 24.5229 27.5378 24.5339 27.5142C24.5438 27.493 24.5665 27.4575 24.6111 27.4575H24.8455ZM24.6101 27.6099C24.6019 27.6613 24.6011 27.7149 24.5964 27.7583L24.5457 28.186L24.5408 28.23H24.4968L23.1492 28.2485C23.1465 28.2515 23.1421 28.2583 23.1375 28.27C23.1279 28.2944 23.1216 28.3301 23.1199 28.3677C23.1181 28.4054 23.1215 28.4409 23.1287 28.4644C23.1311 28.4721 23.1337 28.477 23.1355 28.48L24.5906 28.5063L24.5886 28.5581C24.5756 28.862 24.5497 29.127 24.5037 29.3569L24.4949 29.397H24.4548L22.8103 29.4067C22.8102 29.4067 22.8091 29.4064 22.8064 29.4087C22.8028 29.4118 22.7971 29.4184 22.7917 29.4302C22.781 29.4539 22.7747 29.4899 22.7742 29.5278C22.7737 29.5656 22.7799 29.6001 22.7898 29.6235C22.7947 29.6352 22.7993 29.6422 22.8025 29.645C22.8045 29.6468 22.8053 29.647 22.8054 29.647L24.3767 29.6655L24.4363 29.6665L24.4255 29.7251C24.2515 30.6896 23.4941 30.9969 22.7419 31.356C22.7536 31.3928 22.7713 31.4406 22.7917 31.4819C22.806 31.5106 22.8202 31.5332 22.8328 31.5474C22.8366 31.5517 22.8395 31.5545 22.8416 31.5562C23.6814 31.4006 24.4429 30.7574 24.7029 29.9302L24.6882 29.9019L24.7341 29.8784L24.8416 29.8247L24.8123 29.9185C25.2636 30.7432 25.7838 31.2464 26.5779 31.5571C26.6087 31.5242 26.6432 31.4819 26.6707 31.436C26.6955 31.3945 26.7119 31.3537 26.7224 31.3208C25.9842 30.9948 25.333 30.5105 25.0466 29.7329L25.0222 29.6665L25.0925 29.6655L26.6394 29.647L26.6541 29.6265C26.6651 29.6057 26.6742 29.5746 26.6794 29.5386C26.6846 29.503 26.6856 29.4661 26.6824 29.436C26.6809 29.4226 26.6781 29.4115 26.6755 29.4028L24.8855 29.3901H24.8337L24.8367 29.3384L24.8767 28.5513L24.8787 28.5054L24.9255 28.5044L26.322 28.478C26.3139 28.4783 26.3201 28.4852 26.3298 28.4585C26.3383 28.4353 26.3437 28.4009 26.3425 28.3638C26.3413 28.3265 26.3342 28.2915 26.324 28.2681L26.3113 28.2466L24.9519 28.2319H24.908L24.9031 28.188L24.8562 27.7583C24.854 27.7381 24.8528 27.7114 24.8513 27.686C24.8498 27.6596 24.8477 27.6329 24.8445 27.6089C24.8413 27.5848 24.8362 27.5677 24.8318 27.5571H24.6248C24.6198 27.5679 24.614 27.5854 24.6101 27.6099Z" fill="#26272A"/>
<path d="M20.1616 29.4315L18.3332 29.7875C18.2442 29.8053 18.1407 29.5157 18.2264 29.4963C18.6876 29.404 19.2652 29.2778 19.7393 29.1451L19.0177 28.396C18.8203 28.1905 18.2944 28.3685 18.3025 28.239L18.3219 27.9478L19.9529 27.9235L19.8526 27.5626C19.8332 27.4915 20.1697 27.4769 20.2086 27.54L20.4497 27.9364L22.1082 27.9461C22.1211 28.0351 22.1163 28.26 22.0855 28.2811L21.4367 28.3296L20.5856 29.1597C21.1406 29.3069 21.6956 29.3911 22.2975 29.4607C22.427 30.2001 20.4561 29.3765 20.1633 29.4331L20.1616 29.4315ZM20.9335 28.3053L19.406 28.3102C19.6099 28.582 19.8979 28.8668 20.1762 28.9137C20.4917 28.828 20.7377 28.5934 20.9335 28.3053Z" fill="#26272A"/>
<path d="M20.1427 27.458C20.1632 27.4616 20.1837 27.4661 20.2013 27.4736C20.2176 27.4806 20.2382 27.4929 20.2511 27.5137L20.4776 27.8867L22.1085 27.8965H22.1515L22.1573 27.9385C22.1645 27.9875 22.1667 28.07 22.1632 28.1416C22.1614 28.1776 22.1585 28.2128 22.1534 28.2412C22.1509 28.2553 22.1471 28.2691 22.1427 28.2813C22.1393 28.2906 22.1319 28.3101 22.1144 28.3223L22.1026 28.3301L22.089 28.3311L21.4581 28.3779L20.6847 29.1319C21.0701 29.2296 21.4566 29.2999 21.8614 29.3555L22.3038 29.4111L22.34 29.4151L22.3468 29.4522C22.3647 29.5546 22.3476 29.6393 22.2931 29.7022C22.24 29.7632 22.1584 29.7949 22.0675 29.8096C21.8864 29.8387 21.6353 29.8051 21.379 29.752C21.1209 29.6985 20.8488 29.6238 20.6261 29.5664C20.5142 29.5376 20.4151 29.5124 20.3351 29.4971C20.2951 29.4894 20.2607 29.485 20.2325 29.4824C20.2037 29.4798 20.1844 29.4802 20.173 29.4824L20.1466 29.4873L20.1446 29.4854L18.3429 29.8369C18.2917 29.847 18.2515 29.8115 18.2286 29.7842C18.203 29.7535 18.1816 29.7129 18.1671 29.6729C18.1527 29.6331 18.1434 29.5889 18.1446 29.5508C18.1453 29.5318 18.1482 29.5102 18.1583 29.4912C18.1693 29.4707 18.1891 29.4534 18.2159 29.4473C18.6503 29.3604 19.1879 29.242 19.6437 29.1182L18.9816 28.4307C18.9425 28.39 18.8844 28.3659 18.8126 28.3526C18.741 28.3393 18.6612 28.3376 18.5841 28.3389C18.5101 28.3401 18.4338 28.3439 18.379 28.3389C18.3519 28.3364 18.3216 28.3318 18.298 28.3184C18.2854 28.3112 18.2727 28.3003 18.2638 28.2852C18.2547 28.2697 18.252 28.2521 18.253 28.2354L18.2726 27.9444L18.2755 27.8985L18.3214 27.8975L19.8868 27.8731L19.8048 27.5762C19.7963 27.545 19.8097 27.5189 19.8263 27.5029C19.8412 27.4887 19.8607 27.4788 19.878 27.4727C19.9137 27.4601 19.9605 27.4536 20.006 27.4512C20.0521 27.4487 20.1014 27.4508 20.1427 27.458ZM19.9112 27.5674C19.9091 27.5682 19.9071 27.5687 19.9054 27.5694L20.0187 27.9727L18.3683 27.9971L18.3526 28.2324C18.3589 28.2346 18.3699 28.2376 18.3878 28.2393C18.4354 28.2437 18.5013 28.2406 18.5821 28.2393C18.6602 28.238 18.749 28.2387 18.8312 28.2539C18.913 28.2691 18.9943 28.2994 19.0538 28.3613L19.7755 29.1104L19.8331 29.1709L19.753 29.1934C19.2806 29.3256 18.7061 29.4499 18.2462 29.542C18.2456 29.5447 18.2444 29.5491 18.2443 29.5537C18.2436 29.5748 18.2499 29.6059 18.2618 29.6387C18.2736 29.6712 18.2897 29.7005 18.3058 29.7197C18.3246 29.7423 18.3302 29.7369 18.3234 29.7383L20.1525 29.3828L20.1778 29.377L20.1837 29.3828C20.2017 29.382 20.2211 29.381 20.2413 29.3828C20.274 29.3858 20.312 29.3915 20.3536 29.3994C20.437 29.4154 20.5395 29.4399 20.6515 29.4688C20.8764 29.5267 21.1438 29.6015 21.3985 29.6543C21.6551 29.7075 21.8908 29.737 22.0519 29.711C22.1319 29.698 22.1858 29.6723 22.2169 29.6367C22.2419 29.6081 22.2558 29.5669 22.2511 29.5049C21.664 29.4361 21.119 29.3527 20.5734 29.208L20.4874 29.1856L20.5509 29.124L21.4015 28.294L21.4151 28.2813L21.4327 28.2793L22.0519 28.2334C22.0525 28.2305 22.0541 28.2274 22.0548 28.2236C22.0588 28.2012 22.0619 28.1707 22.0636 28.1367C22.066 28.0878 22.0622 28.0356 22.0597 27.9951L20.4493 27.9863H20.422L20.4073 27.9629L20.1661 27.5664C20.1692 27.5714 20.1713 27.5693 20.1622 27.5654C20.1541 27.562 20.1413 27.5595 20.1251 27.5567C20.0931 27.5511 20.0521 27.5487 20.0118 27.5508C19.9709 27.553 19.9343 27.5592 19.9112 27.5674ZM21.0284 28.2549L20.9747 28.333C20.7758 28.6257 20.5214 28.8717 20.1896 28.9619L20.1788 28.9649L20.1681 28.9629C20.0164 28.9373 19.8669 28.848 19.7316 28.7344C19.5955 28.6202 19.4698 28.4778 19.3663 28.3399L19.3068 28.2608L19.4064 28.2598L20.9337 28.2549H21.0284ZM19.5118 28.3594C19.598 28.4659 19.6925 28.5722 19.795 28.6582C19.9205 28.7636 20.0507 28.8376 20.1739 28.8613C20.4391 28.7858 20.6527 28.5969 20.8321 28.3555L19.5118 28.3594Z" fill="#26272A"/>
<path d="M18.5077 31.5963C18.4155 31.6238 18.2407 31.3843 18.2828 31.2824C19.4268 30.9151 18.9964 29.8132 19.2002 29.8164L19.4494 29.8213C19.5044 29.8213 19.7261 31.2387 18.5093 31.5979L18.5077 31.5963Z" fill="#26272A"/>
<path d="M19.4503 29.7715L19.4493 29.7725C19.464 29.7725 19.4751 29.7775 19.4816 29.7822C19.488 29.7869 19.4925 29.7922 19.4952 29.7959C19.5007 29.8033 19.5051 29.8116 19.5079 29.8184C19.5138 29.8326 19.5188 29.8513 19.5236 29.8721C19.5332 29.9146 19.5421 29.9739 19.547 30.0449C19.5568 30.1874 19.5511 30.3808 19.505 30.586C19.4124 30.9974 19.154 31.4594 18.5236 31.6455L18.4952 31.6543L18.4884 31.6475C18.4549 31.6463 18.4236 31.6311 18.3995 31.6143C18.3652 31.5902 18.332 31.5552 18.3048 31.5176C18.2775 31.4797 18.2532 31.4358 18.2394 31.3936C18.2263 31.3533 18.2194 31.3054 18.2365 31.2637L18.2452 31.2422L18.2677 31.2344C18.5451 31.1453 18.7241 31.0133 18.8409 30.8672C18.958 30.7206 19.0156 30.5565 19.045 30.4014C19.0747 30.2451 19.0758 30.1008 19.0822 29.9893C19.0852 29.9359 19.0894 29.8852 19.1017 29.8477C19.108 29.8285 19.1183 29.8079 19.1349 29.792C19.153 29.7748 19.176 29.7662 19.2013 29.7666L19.4503 29.7715ZM19.2013 29.8672C19.1999 29.8696 19.1982 29.8735 19.1964 29.8789C19.1888 29.9024 19.1849 29.9403 19.1818 29.9951C19.1757 30.1008 19.1749 30.2552 19.1437 30.4199C19.1122 30.5857 19.0492 30.7657 18.9191 30.9287C18.7928 31.0868 18.6046 31.224 18.3263 31.3184C18.3263 31.3291 18.329 31.3436 18.3351 31.3623C18.3451 31.3928 18.3633 31.4277 18.3859 31.459C18.4084 31.4901 18.4334 31.5161 18.4562 31.5322C18.4676 31.5403 18.4775 31.5447 18.4845 31.5469C18.4897 31.5485 18.4924 31.5489 18.4933 31.5488L18.5226 31.5401C19.0886 31.3619 19.3217 30.9444 19.4074 30.5635C19.4509 30.3695 19.4566 30.1862 19.4474 30.0518C19.4428 29.9844 19.4342 29.9299 19.4259 29.8936C19.4237 29.8841 19.421 29.8764 19.4191 29.8701L19.2013 29.8662V29.8672Z" fill="#26272A"/>
<path d="M21.2892 31.4964C21.2892 31.6226 21.0448 31.6485 20.9251 31.5757L20.9219 29.9382C20.9219 29.8929 21.0222 29.7845 21.061 29.778C21.1193 29.7683 21.2859 29.8622 21.2859 29.9318L21.2892 31.4964Z" fill="#26272A"/>
<path d="M21.2217 29.91C21.2091 29.8961 21.1907 29.8808 21.1689 29.8671C21.1472 29.8533 21.1235 29.842 21.1035 29.8348C21.0939 29.8314 21.0856 29.8292 21.0791 29.828C21.0732 29.827 21.07 29.827 21.0693 29.827C21.0727 29.8264 21.0725 29.8256 21.0684 29.828C21.0648 29.83 21.0598 29.8339 21.0537 29.8387C21.0416 29.8483 21.028 29.8619 21.0146 29.8768C21.0012 29.8919 20.9895 29.9075 20.9814 29.9208C20.9723 29.9359 20.9717 29.9411 20.9717 29.9383L20.9746 31.5428C21.0218 31.5628 21.0863 31.5713 21.1436 31.5614C21.1766 31.5557 21.2025 31.5446 21.2188 31.5321C21.2336 31.5206 21.2393 31.5089 21.2393 31.496L21.2363 29.9315C21.2363 29.9328 21.2356 29.9255 21.2217 29.91ZM21.3389 31.496C21.3389 31.5461 21.3138 31.5857 21.2793 31.6122C21.2461 31.6376 21.203 31.6526 21.1602 31.66C21.0754 31.6746 20.9719 31.6621 20.8994 31.618L20.875 31.6034V31.576L20.8721 29.9383C20.8721 29.9124 20.8849 29.8867 20.8955 29.869C20.9075 29.8492 20.9231 29.8288 20.9395 29.8104C20.9559 29.7919 20.9746 29.7735 20.9922 29.7596C21.0008 29.7528 21.0104 29.7463 21.0195 29.7411C21.0282 29.7362 21.0397 29.7306 21.0527 29.7284C21.0805 29.7238 21.1122 29.7319 21.1377 29.7411C21.1653 29.751 21.1945 29.7659 21.2217 29.7831C21.2487 29.8001 21.2754 29.8208 21.2959 29.8436C21.315 29.8649 21.3359 29.8954 21.3359 29.9315L21.3389 31.496Z" fill="#26272A"/>
<path d="M21.2011 36.22L19.2157 36.2168L19.0944 36.4449C19.0717 36.4886 18.9083 36.4579 18.8031 36.4449L18.7966 34.3527L19.9989 34.3285L19.9892 33.5065H18.2805C18.2028 33.5081 18.1543 33.1699 18.2368 33.1683L19.9795 33.1376L20.0231 32.4402C20.028 32.3528 20.3063 32.3237 20.3694 32.3835L20.418 33.1424L22.1331 33.1602C22.2253 33.1602 22.2334 33.4984 22.1412 33.4984L20.4082 33.5146L20.4115 34.3301L21.6024 34.3608V36.3252C21.604 36.3867 21.4131 36.5371 21.3839 36.4918L21.206 36.22H21.2011ZM21.2351 35.8608L21.227 34.6828L19.1639 34.6861L19.172 35.8673L21.2351 35.8608Z" fill="#26272A"/>
<path d="M20.2955 32.3049C20.314 32.3072 20.3342 32.311 20.3531 32.3176L20.4039 32.3469L20.4185 32.3606L20.4195 32.3801L20.4644 33.092L22.1334 33.1096L22.1715 33.1184C22.1826 33.1238 22.1919 33.1317 22.1998 33.1399C22.2148 33.1556 22.2255 33.1753 22.233 33.1945C22.248 33.2332 22.2553 33.2816 22.2564 33.3274C22.2575 33.3732 22.2521 33.4221 22.2388 33.4611C22.2323 33.4804 22.2231 33.5007 22.2086 33.5168C22.1932 33.5337 22.1705 33.5478 22.1422 33.5481L20.4586 33.5637L20.4605 34.2805L21.6041 34.3108L21.6529 34.3117V36.3235L21.6392 36.3742C21.632 36.3883 21.6224 36.4025 21.6119 36.4152C21.591 36.4406 21.5634 36.466 21.5357 36.4875C21.5082 36.5088 21.4769 36.5291 21.4488 36.5402C21.4352 36.5456 21.4182 36.5502 21.401 36.55C21.3918 36.5499 21.3811 36.5479 21.3707 36.5432L21.3424 36.5188L21.1793 36.2688L19.2457 36.2668L19.1383 36.467C19.129 36.4849 19.1143 36.4968 19.1011 36.5031C19.0885 36.5092 19.0746 36.5119 19.0621 36.5139C19.0365 36.5178 19.0056 36.5178 18.9761 36.5158C18.9178 36.5119 18.8469 36.5004 18.7974 36.4943L18.7535 36.4885V36.4445L18.7467 34.3527V34.3039L19.9478 34.2795L19.94 33.5559H18.2808C18.2519 33.5562 18.2301 33.541 18.2164 33.5266C18.2026 33.5119 18.1924 33.4931 18.1842 33.4748C18.1674 33.4377 18.1552 33.3903 18.149 33.3449C18.1429 33.2999 18.1419 33.252 18.149 33.2131C18.1525 33.1939 18.1585 33.1721 18.1705 33.1545C18.1835 33.1356 18.2055 33.119 18.2359 33.1184L19.9312 33.0871L19.9732 32.4367C19.9762 32.387 20.0162 32.3569 20.0474 32.341C20.0818 32.3236 20.1253 32.3127 20.1676 32.3068C20.2102 32.301 20.2556 32.3 20.2955 32.3049ZM20.1812 32.4055C20.1456 32.4104 20.1144 32.4193 20.0933 32.4299C20.0692 32.4421 20.0725 32.449 20.0728 32.4426L20.0299 33.1408L20.0269 33.1867L19.9801 33.1877L18.2506 33.217C18.2495 33.2201 18.2478 33.2245 18.2467 33.2307C18.2421 33.2554 18.2433 33.292 18.2486 33.3313C18.2539 33.3704 18.2633 33.408 18.275 33.4338C18.2802 33.4455 18.2854 33.4524 18.2886 33.4563H20.0386L20.0396 33.5061L20.0494 34.3274V34.3772L18.8463 34.4006L18.8521 36.3996C18.8959 36.4056 18.9416 36.4134 18.983 36.4162C19.0102 36.4181 19.0318 36.4175 19.0465 36.4152C19.0501 36.4147 19.0525 36.4128 19.0543 36.4123L19.1715 36.1926L19.1861 36.1662H19.2154L21.2017 36.1701H21.233L21.4127 36.4455C21.4285 36.4391 21.4509 36.4264 21.4742 36.4084C21.4974 36.3904 21.5195 36.3703 21.5347 36.3518C21.5424 36.3425 21.5474 36.3341 21.5504 36.3283C21.5536 36.322 21.5522 36.322 21.5523 36.3264V34.4084L20.4107 34.3801L20.3619 34.3781V34.3303L20.358 33.5149V33.4651L20.4078 33.4641L22.1344 33.4485C22.1366 33.4456 22.1404 33.4398 22.1441 33.4289C22.1524 33.4046 22.1577 33.3689 22.1568 33.3303C22.1559 33.2917 22.1488 33.2553 22.1392 33.2307C22.1345 33.2185 22.1301 33.2119 22.1275 33.2092L20.4176 33.1926L20.3707 33.1916L20.3209 32.4143C20.3125 32.4113 20.3008 32.4066 20.2838 32.4045C20.2536 32.4008 20.2166 32.4006 20.1812 32.4055ZM21.2769 34.6818L21.2847 35.8606L21.2857 35.9104H21.2349L19.1724 35.9172H19.1226L19.1217 35.8674L19.1138 34.6858V34.636H19.1636L21.2271 34.633L21.2769 34.632V34.6818ZM19.2144 34.7346L19.2213 35.8156L21.1842 35.8108L21.1773 34.7326L19.2144 34.7346Z" fill="#26272A"/>
<path d="M23.159 36.4646L22.8548 36.4436C22.7803 36.4387 22.7415 36.1653 22.8111 36.1507L23.2819 36.0455L23.2933 34.9193L22.7819 35.0666L22.6412 34.9598C22.5926 34.9226 22.659 34.7074 22.7269 34.688L23.2868 34.5148L23.2916 33.5456L22.7237 33.4938C22.6994 33.4517 22.6752 33.2689 22.6962 33.2155C22.7415 33.1039 23.2722 33.2511 23.2771 33.12L23.2933 32.7738L23.3094 32.4291C23.3127 32.345 23.5651 32.3628 23.646 32.3887L23.6978 33.188C23.9631 33.12 24.2188 33.2236 24.1767 33.3854C24.1428 33.5197 23.858 33.5327 23.6816 33.5343L23.6751 34.3271L24.1686 34.1249C24.1783 34.2446 24.1961 34.4776 24.1233 34.5116L23.6945 34.7074L23.6622 36.0504C23.6557 36.319 23.4826 36.4889 23.1557 36.4662L23.159 36.4646Z" fill="#26272A"/>
<path d="M23.565 32.3223L23.6617 32.3408L23.6939 32.3515L23.6959 32.3857L23.7437 33.1289C23.8651 33.1081 23.9827 33.1177 24.0718 33.1543C24.1234 33.1754 24.1685 33.2066 24.1978 33.248C24.2281 33.2909 24.2395 33.3431 24.2252 33.3984C24.2121 33.4488 24.1762 33.4837 24.1353 33.5078C24.0944 33.5318 24.044 33.5479 23.9927 33.5586C23.908 33.5762 23.8117 33.5802 23.731 33.582L23.7252 34.2519L24.15 34.0781L24.2134 34.0527L24.2183 34.1211C24.2231 34.1805 24.2307 34.2716 24.2271 34.3525C24.2253 34.3928 24.2206 34.4336 24.2105 34.4678C24.2011 34.4996 24.1827 34.5386 24.1441 34.5566L23.7437 34.7392L23.7125 36.0517C23.7089 36.1964 23.66 36.3208 23.5621 36.4053C23.4643 36.4895 23.3242 36.5276 23.1519 36.5156L22.9693 36.5039L22.9732 36.501L22.8511 36.4932C22.8262 36.4914 22.8069 36.479 22.7935 36.4658C22.7802 36.4526 22.7702 36.4361 22.7623 36.4199C22.7463 36.3874 22.7347 36.3464 22.7291 36.3076C22.7235 36.2691 22.7229 36.2279 22.7291 36.1933C22.7321 36.1761 22.7377 36.1568 22.7476 36.1406C22.7578 36.1242 22.7748 36.1071 22.8003 36.1015L23.232 36.0049L23.2427 34.9853L22.7955 35.1142L22.772 35.1211L22.7515 35.1064L22.6109 35C22.5935 34.9865 22.5841 34.9676 22.5796 34.9521C22.5752 34.9364 22.5745 34.9192 22.5748 34.9033C22.5753 34.8717 22.582 34.836 22.5923 34.8027C22.6028 34.7691 22.6183 34.7341 22.6363 34.706C22.6444 34.6933 22.6547 34.6791 22.6675 34.667L22.7134 34.6396L23.2369 34.4775L23.2408 33.5908L22.7193 33.5439L22.6929 33.541L22.6802 33.5185C22.6701 33.5009 22.6631 33.4751 22.6578 33.4512C22.652 33.4252 22.6465 33.3946 22.6431 33.3642C22.6398 33.3342 22.6379 33.3031 22.6382 33.2754C22.6386 33.2493 22.6411 33.2187 22.65 33.1963C22.6632 33.1639 22.6916 33.1468 22.7164 33.1377C22.7417 33.1284 22.7724 33.1242 22.8023 33.1221C22.8621 33.1179 22.9365 33.1218 23.0044 33.125C23.0748 33.1283 23.1382 33.1307 23.1841 33.125C23.2069 33.1222 23.2206 33.1179 23.2271 33.1142C23.2311 33.112 23.2273 33.1135 23.2271 33.1182L23.2437 32.7715L23.2593 32.4267C23.2615 32.3752 23.3034 32.3489 23.3345 32.3369C23.3674 32.3243 23.4081 32.3189 23.4468 32.3174C23.4856 32.3159 23.5272 32.318 23.565 32.3223ZM23.3697 32.4307C23.364 32.4328 23.3607 32.4343 23.3589 32.4355L23.3433 32.7764L23.3267 33.1221C23.3253 33.1593 23.3039 33.185 23.2779 33.2002C23.2541 33.214 23.2246 33.2211 23.1968 33.2246C23.1406 33.2316 23.0678 33.2278 22.9996 33.2246C22.9288 33.2213 22.8617 33.218 22.8091 33.2217C22.7831 33.2235 22.7639 33.227 22.7515 33.2314C22.7387 33.2361 22.7408 33.2392 22.7427 33.2344C22.7411 33.2391 22.7381 33.2527 22.7378 33.2764C22.7376 33.299 22.7397 33.3262 22.7427 33.3535C22.7458 33.3806 22.7506 33.407 22.7554 33.4287C22.757 33.4358 22.7589 33.4421 22.7603 33.4473L23.2964 33.4961L23.3423 33.5L23.3414 33.5459L23.3365 34.5146V34.5517L23.3013 34.5625L22.7418 34.7353L22.7408 34.7363C22.7394 34.7374 22.7316 34.743 22.7203 34.7607C22.7082 34.7796 22.6965 34.8049 22.688 34.832C22.6795 34.8594 22.6747 34.8856 22.6744 34.9053C22.6742 34.9135 22.6746 34.9193 22.6753 34.9228L22.7916 35.0107L23.2798 34.8711L23.3443 34.8525L23.3433 34.9199L23.3316 36.0459V36.0859L23.2925 36.0947L22.8306 36.1963C22.8295 36.1991 22.8289 36.2041 22.8277 36.2109C22.824 36.2317 22.824 36.2619 22.8287 36.2939C22.8333 36.3257 22.8421 36.3555 22.8521 36.376C22.8565 36.3849 22.8601 36.3905 22.8628 36.3935L23.1763 36.416C23.3219 36.4231 23.4272 36.3899 23.4966 36.3301C23.5684 36.2682 23.6089 36.1726 23.6119 36.0488L23.6451 34.706V34.6748L23.6734 34.6621L24.1021 34.4658C24.1036 34.4642 24.1093 34.4581 24.1148 34.4394C24.1215 34.4167 24.1258 34.3855 24.1275 34.3486C24.1297 34.2997 24.1238 34.2456 24.1207 34.1973L23.6939 34.373L23.6246 34.4023L23.6255 34.3271L23.6314 33.5342L23.6324 33.4844H23.6812C23.7692 33.4836 23.88 33.48 23.9722 33.4609C24.0184 33.4513 24.057 33.4381 24.0845 33.4219C24.1118 33.4058 24.1244 33.3893 24.1285 33.373L24.1304 33.3369C24.1283 33.3258 24.1228 33.3156 24.1158 33.3057C24.1007 33.2844 24.0737 33.2635 24.0337 33.2471C23.9535 33.2142 23.8344 33.2046 23.7105 33.2363L23.6519 33.251L23.5982 32.4297C23.5591 32.4223 23.5028 32.416 23.4507 32.418C23.416 32.4193 23.3875 32.4238 23.3697 32.4307Z" fill="#26272A"/>
<path d="M26.6185 36.3091H24.2966C24.2351 36.3074 24.1218 36.2104 24.1218 36.1715C24.1218 36.1149 24.2108 35.9579 24.2755 35.9563L25.5328 35.945C25.748 35.2314 25.9179 34.4903 26.0732 33.7493C26.091 33.6619 26.3499 33.7088 26.4421 33.7865L25.9519 35.9272L26.6525 35.9628C26.693 35.9644 26.7803 36.0583 26.8014 36.0922C26.8337 36.1424 26.701 36.3091 26.6201 36.3091H26.6185Z" fill="#26272A"/>
<path d="M26.2361 33.6562C26.3194 33.6674 26.4181 33.7007 26.4744 33.748L26.4978 33.7675L26.491 33.7978L26.0134 35.8798L26.655 35.913H26.6541C26.6791 35.914 26.7024 35.9273 26.7175 35.9375C26.7348 35.9491 26.7524 35.9644 26.7683 35.9794C26.7989 36.0084 26.8285 36.0432 26.8425 36.0654H26.8435C26.8551 36.0835 26.8573 36.1032 26.8562 36.1191C26.855 36.1353 26.8503 36.1517 26.8445 36.166C26.8329 36.1946 26.8135 36.2243 26.7917 36.2509C26.7698 36.2777 26.7433 36.3037 26.7156 36.3232C26.6893 36.3416 26.6554 36.3593 26.6199 36.3593H24.2957C24.2692 36.3586 24.2423 36.3481 24.2205 36.3369C24.1977 36.3251 24.1751 36.3093 24.155 36.2929C24.135 36.2766 24.1157 36.2582 24.1013 36.2402C24.0942 36.2312 24.087 36.2212 24.0818 36.2109C24.077 36.2014 24.0721 36.1876 24.072 36.1718C24.072 36.1476 24.0806 36.1189 24.0906 36.0947C24.1012 36.069 24.1159 36.0412 24.1326 36.0156C24.1491 35.9902 24.1687 35.9648 24.1902 35.9453C24.2102 35.9271 24.2397 35.9071 24.2742 35.9062H24.2751L25.4949 35.8945C25.7044 35.1941 25.8716 34.4673 26.0242 33.7392L26.0378 33.706C26.0563 33.6784 26.0879 33.6643 26.114 33.6582C26.1504 33.6496 26.194 33.6506 26.2361 33.6562ZM26.1365 33.7558C26.1155 33.7609 26.1204 33.7658 26.1218 33.7587V33.7597C25.9664 34.501 25.7965 35.2435 25.5808 35.9589L25.5701 35.9951H25.533L24.2761 36.0048L24.2771 36.0058C24.2782 36.0058 24.2715 36.0068 24.2576 36.0195C24.2444 36.0315 24.2302 36.0494 24.2166 36.0703C24.2031 36.0909 24.1914 36.1133 24.1833 36.1328C24.1768 36.1488 24.1737 36.1606 24.1726 36.1669C24.174 36.1694 24.1759 36.1731 24.1794 36.1777C24.1883 36.1888 24.2016 36.2028 24.2175 36.2158C24.2334 36.2287 24.2507 36.2399 24.2664 36.248C24.2826 36.2563 24.2931 36.2585 24.2976 36.2587H26.6199C26.6247 36.2587 26.6378 36.2553 26.658 36.2412C26.6769 36.2278 26.6973 36.2086 26.7146 36.1875C26.7319 36.1663 26.745 36.1454 26.7517 36.1289C26.7544 36.1223 26.7551 36.1172 26.7556 36.1142C26.7461 36.1006 26.7249 36.0753 26.7 36.0517C26.6863 36.0388 26.673 36.0279 26.6619 36.0205L26.6501 36.0126L25.949 35.9775L25.8894 35.9736L25.9031 35.916L26.3845 33.8115C26.3441 33.7876 26.2835 33.7639 26.2234 33.7558C26.1872 33.751 26.1563 33.7511 26.1365 33.7558Z" fill="#26272A"/>
<path d="M26.6266 33.4083L24.2837 33.4244L24.2659 33.0863L25.2594 33.0474L25.1024 32.439L25.3403 32.35C25.4034 32.3258 25.5005 32.494 25.5231 32.5636L25.6768 33.0636L26.5813 33.0604C26.6477 33.0604 26.6978 33.4066 26.6266 33.4083Z" fill="#26272A"/>
<path d="M25.3225 32.3037C25.3626 32.2883 25.3995 32.3066 25.4221 32.3232C25.4462 32.3409 25.4688 32.366 25.4875 32.3915C25.5251 32.4428 25.5573 32.5072 25.5706 32.5478V32.5488L25.7131 33.0126L26.5813 33.0107L26.6204 33.0224C26.6306 33.029 26.6384 33.0371 26.6438 33.0439C26.6557 33.0588 26.6658 33.0773 26.6731 33.0956C26.6879 33.1329 26.699 33.1806 26.7053 33.2265C26.7116 33.2722 26.7133 33.3206 26.7083 33.3593C26.7058 33.3782 26.7014 33.3993 26.6917 33.4169C26.6816 33.4351 26.6613 33.457 26.6282 33.4579H26.6272L24.2844 33.4746H24.2366L24.2336 33.4267L24.2161 33.0888L24.2131 33.038L24.2639 33.0361L25.1956 32.999L25.054 32.4511L25.0432 32.4081L25.0852 32.3925L25.3225 32.3027V32.3037ZM25.1614 32.4697L25.3079 33.0351L25.3235 33.0947L25.261 33.0976L24.3176 33.1337L24.3303 33.373L26.6057 33.3583C26.6064 33.3552 26.609 33.3515 26.6096 33.3466C26.6131 33.32 26.6113 33.2811 26.6057 33.2402C26.6001 33.1995 26.5913 33.1603 26.5803 33.1328C26.5761 33.1221 26.5716 33.115 26.5686 33.1103L25.677 33.1132H25.6399L25.6292 33.0781L25.4749 32.5781C25.4651 32.5488 25.4384 32.4947 25.4065 32.4511C25.3903 32.429 25.375 32.4124 25.3625 32.4033C25.353 32.3963 25.3505 32.3972 25.3528 32.3974L25.1614 32.4697Z" fill="#26272A"/>
<path d="M24.8272 33.7507C24.8159 34.0015 25.5667 36.2231 24.8499 35.7021L24.4939 33.9028C24.4777 33.8203 24.7253 33.7151 24.8272 33.7523V33.7507Z" fill="#26272A"/>
<path d="M24.8448 33.706L24.8282 33.7499L24.877 33.7509V33.7538L24.8829 33.8124C24.8873 33.841 24.8944 33.8764 24.9034 33.9179C24.9212 34.0008 24.9468 34.1057 24.9756 34.2235C25.0331 34.4584 25.1038 34.7445 25.1524 35.0067C25.1767 35.1379 25.1951 35.2644 25.2041 35.3759C25.213 35.4863 25.2131 35.5862 25.1963 35.663C25.1799 35.7378 25.1427 35.8088 25.0655 35.8271C24.9943 35.8437 24.9113 35.8092 24.8204 35.7431L24.8047 35.7313L24.8008 35.7118L24.4454 33.913C24.436 33.8655 24.4658 33.8262 24.4913 33.8026C24.5191 33.7769 24.5566 33.7544 24.5957 33.7372C24.6354 33.7197 24.6798 33.7058 24.7217 33.6991C24.7625 33.6927 24.8076 33.6924 24.8448 33.706ZM24.7373 33.7987C24.7049 33.8039 24.6694 33.8147 24.6368 33.829C24.6036 33.8436 24.5757 33.86 24.5586 33.8759C24.539 33.894 24.5442 33.8997 24.543 33.8935L24.8946 35.6718C24.9736 35.7264 25.0194 35.7359 25.043 35.7304C25.062 35.7258 25.0846 35.7055 25.0987 35.6415C25.1122 35.5795 25.1131 35.4918 25.1045 35.3847C25.0959 35.2779 25.0778 35.1548 25.0538 35.0253C25.0057 34.7662 24.9357 34.4827 24.878 34.247C24.8493 34.1297 24.8239 34.0238 24.8057 33.9394C24.7966 33.8972 24.7891 33.8592 24.7842 33.828C24.7824 33.8166 24.7825 33.8052 24.7813 33.7948C24.7692 33.7945 24.7542 33.7961 24.7373 33.7987Z" fill="#26272A"/>
<path d="M41.0001 17.5C41.1826 17.5 41.3508 17.5998 41.4386 17.7598C41.5262 17.9197 41.5199 18.1147 41.422 18.2686L37.9757 23.6826L35.4484 38.3457L29.7071 40.9551C29.5405 41.0308 29.3456 41.0095 29.1993 40.8994C29.0533 40.7895 28.9786 40.6086 29.005 40.4277L31.505 23.4277L31.5235 23.3057L31.5958 23.2061L35.296 18.1182C35.5782 17.7302 36.0292 17.5001 36.5089 17.5H41.0001ZM30.128 39.665L34.5509 37.6543L36.9064 24H32.4327L30.128 39.665ZM36.5089 18.5C36.3491 18.5001 36.1986 18.5768 36.1046 18.7061L32.9816 23H37.2257L40.089 18.5H36.5089Z" fill="#26272A"/>
<path d="M34.4999 34.4999C31.6999 35.6999 32.3333 40.3333 32.9999 42.4999C33.1666 42.8333 33.7 43.3 34.5 42.5C35.3 41.7 37.1667 40.5 38 40L38.4619 39.5C38.3022 39.8734 38.1407 40.2186 38 40.5C37.8333 42 37.8 45 39 45C40.5 45 44 43 44.1797 40.8932C44.3595 38.7865 44 36.4999 42 34.9999C40 33.4999 37.9999 32.9999 34.4999 34.4999Z" fill="#F9C890"/>
<path d="M34.3026 34.0408C36.1 33.2705 37.5644 32.9907 38.8651 33.1277C40.1717 33.2653 41.2557 33.8173 42.2997 34.6003C44.5028 36.2526 44.8635 38.7586 44.6776 40.9363C44.6217 41.5915 44.3128 42.2016 43.9003 42.7312C43.4856 43.2636 42.9444 43.7442 42.373 44.1462C41.8004 44.549 41.1832 44.8829 40.6054 45.1179C40.0372 45.349 39.4678 45.5007 38.9999 45.5007C38.4429 45.5007 38.0823 45.1352 37.873 44.7439C37.6675 44.3599 37.5544 43.8674 37.4911 43.3767C37.3876 42.5736 37.4057 41.6548 37.4609 40.9245C37.1667 41.1134 36.8436 41.3274 36.5214 41.5495C35.8522 42.0109 35.2185 42.4892 34.8534 42.8542C34.3825 43.325 33.882 43.5234 33.4003 43.4128C32.9533 43.3101 32.6775 42.973 32.5526 42.7234L32.5341 42.6872L32.5224 42.6472C32.1771 41.525 31.8373 39.7613 31.9511 38.1033C32.0635 36.4647 32.6381 34.7543 34.3026 34.0408ZM38.7597 34.1228C37.6856 34.0098 36.3995 34.2302 34.6972 34.9597C33.5621 35.4462 33.0534 36.6521 32.9491 38.1716C32.848 39.6465 33.1464 41.2533 33.4618 42.2995C33.5048 42.3712 33.5687 42.4254 33.6239 42.4382C33.6505 42.4443 33.8174 42.4753 34.1464 42.1462C34.5813 41.7113 35.2816 41.1899 35.954 40.7263C36.6013 40.2801 37.2514 39.8684 37.6786 39.6101L38.0321 39.2273C38.3139 38.5605 38.578 37.8337 38.7021 37.2429C38.7672 36.9325 38.7867 36.6954 38.7694 36.5388C38.7622 36.4731 38.7502 36.4404 38.7441 36.4265C38.522 36.2936 38.4352 36.0124 38.5526 35.7771C38.6761 35.5301 38.9766 35.43 39.2235 35.5534C39.6048 35.7442 39.7292 36.1263 39.7626 36.4294C39.7969 36.7405 39.7542 37.0975 39.6806 37.448C39.5317 38.1569 39.2249 38.9884 38.9218 39.697C38.7746 40.0411 38.6232 40.3612 38.4892 40.6335C38.4136 41.3597 38.3735 42.3965 38.4833 43.2488C38.5409 43.6955 38.6342 44.0468 38.7548 44.2722C38.8715 44.4903 38.957 44.5007 38.9999 44.5007C39.282 44.5007 39.7129 44.4018 40.2284 44.1921C40.7343 43.9864 41.2845 43.6883 41.7968 43.3279C42.3103 42.9666 42.7723 42.552 43.1112 42.1169C43.4522 41.6793 43.6475 41.2492 43.6816 40.8513C43.8552 38.8155 43.4969 36.7478 41.7001 35.4001C40.7443 34.6833 39.8279 34.2352 38.7597 34.1228Z" fill="#26272A"/>
</svg>
