<svg width="30" height="33" viewBox="0 0 30 33" fill="none" xmlns="http://www.w3.org/2000/svg">
<path d="M22.0284 0.623006L15.7498 12.7879L16.5574 13.5956L23.6108 1.44815C23.7278 1.2467 23.6505 0.988334 23.4422 0.884157L22.5679 0.447015C22.3702 0.348172 22.1298 0.426604 22.0284 0.623006Z" fill="#F9C890"/>
<path d="M21.6693 0.437196C21.8721 0.044539 22.3531 -0.112183 22.7484 0.0854079L23.6231 0.522382C24.0396 0.730769 24.1936 1.24751 23.9599 1.65031L16.6433 14.2524L15.4641 13.0732L15.2551 12.8649L21.6693 0.437196ZM16.2434 12.7103L16.4714 12.9383L23.2619 1.24489L22.3871 0.807914L16.2434 12.7103Z" fill="#26272A"/>
<path d="M25.7567 3.54664L16.3758 13.5169L16.9303 14.5155L27.0513 4.77499C27.2191 4.61346 27.2159 4.34381 27.0442 4.18637L26.3238 3.52573C26.1609 3.37635 25.9081 3.38567 25.7567 3.54664Z" fill="#F9C890"/>
<path d="M25.4624 3.26955C25.7653 2.94776 26.2708 2.92929 26.5966 3.22794L27.3175 3.88854C27.6607 4.20339 27.6667 4.74257 27.3313 5.0656L16.8323 15.1708L16.0227 13.7129L15.879 13.4552L25.4624 3.26955ZM16.8717 13.5783L17.0282 13.8601L26.7716 4.48391L26.0506 3.8233L16.8717 13.5783Z" fill="#26272A"/>
<path d="M5.5385 28.6744L3.23049 15.211L0.403564 11.1725L4.72622 11.0229L4.86684 10.6292C5.09645 9.98629 5.70543 9.55713 6.38811 9.55713H14.464C15.0136 9.55713 15.5255 9.83662 15.8228 10.299L18.9805 15.211L17.0603 28.6521C17.0035 29.05 16.6627 29.3456 16.2607 29.3456H6.33458C5.94116 29.3456 5.60497 29.0621 5.5385 28.6744Z" fill="white"/>
<path d="M14.4641 9.15283C15.1511 9.15286 15.7908 9.50249 16.1623 10.0804L19.3205 14.992L19.4018 15.119L17.4598 28.7086C17.3746 29.3054 16.8638 29.7489 16.2609 29.749H6.33434C5.74444 29.7488 5.23996 29.3239 5.14015 28.7425L2.84722 15.3667L0.0731433 11.404C-0.0117733 11.2826 -0.0237202 11.1239 0.0423816 10.9914C0.108507 10.8592 0.241659 10.7734 0.389437 10.7682L4.43736 10.6286L4.48627 10.4929C4.77326 9.68936 5.5347 9.15292 6.38797 9.15283H14.4641ZM5.9368 28.6061C5.97018 28.7996 6.1379 28.9411 6.33434 28.9413H16.2609C16.4618 28.9412 16.6324 28.7932 16.6608 28.5942L18.5152 15.6144H3.71012L5.9368 28.6061ZM6.38797 9.96052C5.87616 9.96061 5.4197 10.2823 5.24742 10.7643L3.8032 14.8067H18.2407L15.4832 10.5166C15.2603 10.17 14.8762 9.96055 14.4641 9.96052H6.38797ZM1.16085 11.5499L3.11303 14.3382L4.14552 11.4466L1.16085 11.5499Z" fill="#26272A"/>
<path d="M13.1329 20.3972C12.9238 21.0911 12.2873 21.6309 11.5868 21.759C11.5332 21.7694 11.4705 21.5995 11.4548 21.5355C12.0782 21.2362 12.6846 20.9997 12.8232 20.2312L11.5542 20.2155C11.464 20.2155 11.4679 19.9411 11.5581 19.9411L12.8859 19.9332C12.9225 19.7503 12.9434 19.5385 12.9539 19.2941L11.8142 19.2732C11.7437 19.2732 11.7567 19.0079 11.826 19.0066L12.9199 18.9909L12.9604 18.6459C12.9669 18.5858 12.9682 18.4473 13.0127 18.4473H13.2022C13.2479 18.4473 13.244 18.5858 13.2505 18.6459L13.2884 18.9922L14.3862 19.004C14.4673 19.004 14.4751 19.2706 14.3954 19.2719L13.2675 19.2928L13.2348 19.928L14.7051 19.9384C14.7482 19.9842 14.7286 20.2142 14.6515 20.2155L13.4021 20.2312C13.6321 20.8559 14.1614 21.244 14.7665 21.5054C14.7561 21.5812 14.679 21.7054 14.6123 21.7668C13.9406 21.5107 13.5054 21.0898 13.1303 20.3985L13.1329 20.3972Z" fill="#26272A"/>
<path d="M13.2019 18.4072C13.2384 18.4072 13.2571 18.4359 13.265 18.4538C13.2736 18.4732 13.2779 18.4973 13.2808 18.5192C13.2837 18.5417 13.2858 18.5657 13.2871 18.5871C13.2884 18.6092 13.2888 18.6278 13.2902 18.6415L13.325 18.9523L14.3866 18.9641C14.4324 18.9641 14.4579 19.0012 14.4702 19.0296C14.4837 19.0606 14.4903 19.0994 14.4915 19.136C14.4927 19.1727 14.488 19.2118 14.4765 19.2433C14.4661 19.2719 14.4427 19.3119 14.3961 19.3127L13.3052 19.3324L13.2768 19.8877L14.7053 19.898H14.7226L14.7345 19.9106C14.7455 19.9224 14.7522 19.9375 14.7566 19.9508C14.7611 19.9648 14.7643 19.9807 14.766 19.9966C14.7694 20.0283 14.7687 20.0653 14.7637 20.0999C14.7587 20.1341 14.7495 20.1697 14.7345 20.1977C14.7203 20.2241 14.694 20.2553 14.6524 20.2561L13.4614 20.2711C13.696 20.8496 14.2 21.2168 14.7826 21.4684L14.811 21.481L14.8062 21.511C14.7999 21.557 14.7746 21.6127 14.7447 21.6624C14.7145 21.7128 14.6766 21.7626 14.6398 21.7965L14.6209 21.8139L14.598 21.8044C13.9419 21.5542 13.5095 21.148 13.1404 20.4967C12.9168 21.1196 12.3584 21.6068 11.7269 21.7697L11.5944 21.7989C11.5581 21.8059 11.5304 21.7811 11.5155 21.7642C11.4984 21.7448 11.4833 21.719 11.4706 21.6932C11.4448 21.6412 11.4238 21.5796 11.4154 21.5449L11.4075 21.5134L11.4374 21.4992C12.053 21.2037 12.622 20.978 12.772 20.2711L11.5534 20.2561C11.5067 20.2557 11.4797 20.219 11.4666 20.1883C11.453 20.1558 11.4472 20.1156 11.4477 20.0778C11.4482 20.0399 11.4552 19.9997 11.4698 19.9674C11.4837 19.9367 11.5114 19.9011 11.5581 19.9011L12.8517 19.8933C12.882 19.7307 12.8998 19.5452 12.9101 19.3332L11.8137 19.3135C11.7907 19.3133 11.7728 19.3021 11.7608 19.2883C11.7497 19.2753 11.7426 19.2592 11.738 19.2441C11.7285 19.2133 11.7252 19.1744 11.7269 19.1384C11.7286 19.1024 11.7355 19.0646 11.7474 19.0343C11.7534 19.0192 11.7619 19.0033 11.7735 18.9909C11.7853 18.9783 11.8029 18.9669 11.8255 18.9665L12.884 18.9507L12.9203 18.6415L12.9321 18.5177C12.9356 18.4957 12.9414 18.4721 12.9503 18.453C12.9583 18.4358 12.9766 18.4072 13.0126 18.4072H13.2019ZM13.0118 18.5303C13.0052 18.5718 13.0046 18.6151 13.0008 18.6502L12.9598 18.9956L12.9558 19.0311H12.9203L11.8318 19.0461C11.8297 19.0486 11.8261 19.054 11.8224 19.0635C11.8146 19.0831 11.8096 19.112 11.8082 19.1424C11.8067 19.1728 11.8095 19.2015 11.8153 19.2204C11.8172 19.2267 11.8194 19.2307 11.8208 19.2331L12.996 19.2544L12.9945 19.2962C12.984 19.5416 12.963 19.7556 12.9258 19.9414L12.9187 19.9737H12.8864L11.5581 19.9816C11.558 19.9816 11.5572 19.9813 11.555 19.9832C11.5521 19.9857 11.5474 19.991 11.5431 20.0005C11.5345 20.0197 11.5294 20.0487 11.5289 20.0794C11.5285 20.1099 11.5336 20.1378 11.5416 20.1567C11.5456 20.1661 11.5492 20.1717 11.5518 20.1741C11.5534 20.1755 11.5541 20.1757 11.5542 20.1756L12.8233 20.1906L12.8714 20.1914L12.8627 20.2387C12.7222 21.0178 12.1104 21.266 11.5029 21.556C11.5123 21.5857 11.5266 21.6243 11.5431 21.6577C11.5546 21.6809 11.5661 21.6991 11.5763 21.7106C11.5794 21.7141 11.5817 21.7163 11.5834 21.7177C12.2617 21.592 12.8768 21.0725 13.0867 20.4044L13.0749 20.3815L13.112 20.3626L13.1987 20.3192L13.1751 20.3949C13.5396 21.0611 13.9598 21.4675 14.6012 21.7184C14.6261 21.6918 14.6539 21.6577 14.6761 21.6206C14.6962 21.5871 14.7094 21.5541 14.7179 21.5276C14.1217 21.2643 13.5956 20.8731 13.3644 20.245L13.3447 20.1914L13.4015 20.1906L14.6509 20.1756L14.6627 20.1591C14.6716 20.1423 14.679 20.1172 14.6832 20.0881C14.6873 20.0593 14.6882 20.0295 14.6856 20.0053C14.6844 19.9944 14.6821 19.9855 14.68 19.9784L13.2342 19.9682H13.1924L13.1948 19.9264L13.2271 19.2906L13.2287 19.2536L13.2666 19.2528L14.3945 19.2315C14.3879 19.2317 14.3929 19.2373 14.4008 19.2157C14.4077 19.1969 14.412 19.1692 14.4111 19.1392C14.4101 19.1091 14.4043 19.0808 14.3961 19.0619L14.3858 19.0445L13.2879 19.0327H13.2524L13.2484 18.9972L13.2106 18.6502C13.2088 18.6339 13.2078 18.6123 13.2066 18.5918C13.2054 18.5705 13.2037 18.5489 13.2011 18.5295C13.1986 18.5101 13.1944 18.4962 13.1909 18.4877H13.0236C13.0197 18.4964 13.015 18.5105 13.0118 18.5303Z" fill="#26272A"/>
<path d="M9.41881 20.0015L7.94201 20.289C7.87013 20.3034 7.78649 20.0694 7.85575 20.0538C8.22822 19.9793 8.69479 19.8773 9.07771 19.7702L8.49483 19.1651C8.33539 18.9991 7.91064 19.1428 7.91718 19.0383L7.93286 18.8031L9.25022 18.7834L9.16919 18.492C9.15351 18.4345 9.42535 18.4227 9.45671 18.4737L9.65144 18.7939L10.991 18.8017C11.0015 18.8736 10.9976 19.0553 10.9727 19.0723L10.4487 19.1115L9.76122 19.7819C10.2095 19.9009 10.6578 19.9688 11.1439 20.025C11.2485 20.6223 9.65667 19.9571 9.42012 20.0028L9.41881 20.0015ZM10.0422 19.0919L8.80849 19.0958C8.97316 19.3154 9.20579 19.5454 9.43058 19.5833C9.68542 19.514 9.88407 19.3245 10.0422 19.0919Z" fill="#26272A"/>
<path d="M9.40345 18.4077C9.41998 18.4106 9.43655 18.4142 9.45077 18.4203C9.46398 18.426 9.48059 18.4358 9.491 18.4526L9.67399 18.754L10.9912 18.7618H11.0259L11.0307 18.7958C11.0364 18.8353 11.0382 18.902 11.0354 18.9598C11.034 18.9889 11.0316 19.0173 11.0275 19.0403C11.0255 19.0516 11.0224 19.0628 11.0188 19.0726C11.0161 19.0801 11.0101 19.0959 10.996 19.1057L10.9865 19.1121L10.9754 19.1128L10.4659 19.1507L9.84121 19.7596C10.1525 19.8386 10.4647 19.8953 10.7917 19.9403L11.149 19.9852L11.1782 19.9884L11.1837 20.0183C11.1981 20.1011 11.1844 20.1695 11.1403 20.2203C11.0974 20.2695 11.0315 20.2952 10.9581 20.307C10.8119 20.3306 10.609 20.3034 10.402 20.2605C10.1936 20.2173 9.97376 20.157 9.79388 20.1106C9.70349 20.0873 9.62343 20.067 9.55883 20.0546C9.52657 20.0484 9.49877 20.0448 9.47601 20.0428C9.45269 20.0407 9.43712 20.041 9.4279 20.0428L9.4066 20.0467L9.40502 20.0452L7.94976 20.3291C7.90845 20.3372 7.87592 20.3086 7.85747 20.2865C7.83678 20.2618 7.81948 20.2289 7.80778 20.1966C7.79616 20.1645 7.78864 20.1288 7.78964 20.098C7.79014 20.0827 7.79248 20.0652 7.80068 20.0499C7.80957 20.0333 7.82551 20.0193 7.84722 20.0144C8.19805 19.9442 8.63226 19.8486 9.00039 19.7486L8.46561 19.1933C8.43404 19.1605 8.38716 19.1409 8.32915 19.1302C8.27128 19.1195 8.20683 19.1181 8.14458 19.1192C8.08478 19.1202 8.02323 19.1232 7.97894 19.1192C7.95704 19.1171 7.93257 19.1134 7.91348 19.1026C7.90331 19.0968 7.89308 19.088 7.88587 19.0758C7.87853 19.0633 7.87635 19.049 7.87719 19.0355L7.89297 18.8005L7.89533 18.7634L7.93241 18.7626L9.19679 18.7429L9.13054 18.5031C9.12366 18.4779 9.13448 18.4569 9.14789 18.444C9.15994 18.4325 9.17568 18.4245 9.18969 18.4195C9.21852 18.4094 9.25628 18.4042 9.29302 18.4022C9.33025 18.4002 9.37011 18.4019 9.40345 18.4077ZM9.21651 18.496C9.21475 18.4967 9.21313 18.4971 9.21178 18.4976L9.30327 18.8234L7.97027 18.8431L7.95765 19.0332C7.96273 19.0349 7.97155 19.0374 7.98604 19.0387C8.02449 19.0422 8.07773 19.0398 8.143 19.0387C8.20602 19.0376 8.27777 19.0383 8.34414 19.0505C8.4102 19.0628 8.47594 19.0873 8.52398 19.1373L9.10687 19.7423L9.15341 19.7912L9.08873 19.8093C8.70716 19.9161 8.24314 20.0165 7.87167 20.0909C7.87122 20.0931 7.87023 20.0966 7.87009 20.1004C7.86954 20.1174 7.87469 20.1425 7.88429 20.169C7.89381 20.1953 7.9068 20.2189 7.91979 20.2345C7.93503 20.2527 7.93947 20.2484 7.93398 20.2494L9.41133 19.9623L9.43184 19.9576L9.43657 19.9623C9.45111 19.9616 9.46679 19.9609 9.48311 19.9623C9.50954 19.9647 9.54022 19.9693 9.57382 19.9757C9.64114 19.9887 9.72392 20.0084 9.81439 20.0318C9.99609 20.0786 10.212 20.1389 10.4178 20.1816C10.625 20.2246 10.8153 20.2484 10.9455 20.2274C11.0101 20.2169 11.0536 20.1962 11.0788 20.1674C11.0989 20.1443 11.1102 20.111 11.1064 20.0609C10.6322 20.0054 10.192 19.938 9.75129 19.8212L9.68188 19.803L9.73315 19.7533L10.4202 19.0829L10.4312 19.0726L10.4454 19.071L10.9455 19.034C10.946 19.0316 10.9473 19.0291 10.9478 19.0261C10.9511 19.008 10.9536 18.9833 10.9549 18.9559C10.9569 18.9163 10.9539 18.8742 10.9518 18.8415L9.65112 18.8344H9.62903L9.6172 18.8155L9.42238 18.4952C9.42489 18.4992 9.42653 18.4976 9.41922 18.4945C9.41268 18.4917 9.40231 18.4896 9.38925 18.4874C9.36337 18.4829 9.33031 18.4809 9.29775 18.4826C9.26467 18.4844 9.23517 18.4894 9.21651 18.496ZM10.1189 19.0513L10.0755 19.1144C9.91477 19.3508 9.70931 19.5495 9.44131 19.6224L9.43263 19.6247L9.42395 19.6232C9.30141 19.6025 9.18067 19.5303 9.07138 19.4386C8.96151 19.3464 8.85996 19.2314 8.77638 19.1199L8.72827 19.0561L8.80872 19.0553L10.0423 19.0513H10.1189ZM8.89391 19.1357C8.96347 19.2217 9.03987 19.3076 9.12265 19.3771C9.22402 19.4622 9.32911 19.5219 9.42869 19.5411C9.64288 19.4801 9.81539 19.3276 9.96031 19.1326L8.89391 19.1357Z" fill="#26272A"/>
<path d="M8.08285 21.7501C8.00835 21.7723 7.86721 21.5789 7.90119 21.4966C8.82517 21.1999 8.47753 20.3099 8.6422 20.3125L8.84347 20.3164C8.8879 20.3164 9.06695 21.4613 8.08415 21.7514L8.08285 21.7501Z" fill="#26272A"/>
<path d="M8.84433 20.2764L8.84354 20.2772C8.85541 20.2772 8.86436 20.2813 8.86957 20.2851C8.87473 20.2889 8.87838 20.2931 8.88061 20.2961C8.88501 20.3021 8.88859 20.3088 8.89087 20.3143C8.8956 20.3257 8.89968 20.3408 8.90349 20.3577C8.91126 20.392 8.91848 20.4399 8.92242 20.4973C8.93031 20.6123 8.92577 20.7686 8.8885 20.9342C8.81373 21.2666 8.60503 21.6397 8.0958 21.7901L8.07292 21.7971L8.0674 21.7916C8.04034 21.7907 8.01504 21.7784 7.99562 21.7648C7.96792 21.7453 7.94108 21.7171 7.91911 21.6867C7.89703 21.6561 7.87744 21.6207 7.86627 21.5865C7.85566 21.554 7.85014 21.5153 7.8639 21.4816L7.871 21.4643L7.88914 21.458C8.11321 21.386 8.25777 21.2794 8.35214 21.1614C8.44672 21.043 8.49321 20.9105 8.51699 20.7852C8.54093 20.6589 8.54183 20.5424 8.54697 20.4523C8.54943 20.4092 8.55284 20.3683 8.56274 20.3379C8.56781 20.3225 8.57616 20.3058 8.58956 20.293C8.60421 20.2791 8.6228 20.2721 8.6432 20.2725L8.84433 20.2764ZM8.6432 20.3537C8.6421 20.3557 8.64067 20.3588 8.63925 20.3632C8.63309 20.3821 8.62995 20.4127 8.62742 20.457C8.62255 20.5424 8.62189 20.6671 8.59666 20.8002C8.57126 20.934 8.52038 21.0794 8.41524 21.2111C8.31328 21.3388 8.16124 21.4496 7.93647 21.5258C7.93645 21.5344 7.93862 21.5462 7.94356 21.5613C7.95163 21.5859 7.96631 21.6141 7.98458 21.6394C8.00277 21.6645 8.02297 21.6856 8.04137 21.6986C8.05058 21.705 8.05859 21.7087 8.06424 21.7104C8.06842 21.7117 8.07064 21.712 8.07134 21.712L8.09501 21.7049C8.55219 21.561 8.74043 21.2237 8.80962 20.9161C8.84483 20.7594 8.84942 20.6114 8.84196 20.5028C8.83823 20.4484 8.83128 20.4044 8.82461 20.375C8.82286 20.3673 8.82061 20.3612 8.81909 20.3561L8.6432 20.3529V20.3537Z" fill="#26272A"/>
<path d="M10.3294 21.6693C10.3294 21.7712 10.132 21.7921 10.0353 21.7333L10.0327 20.4107C10.0327 20.3741 10.1137 20.2866 10.1451 20.2813C10.1922 20.2735 10.3268 20.3493 10.3268 20.4055L10.3294 21.6693Z" fill="#26272A"/>
<path d="M10.2751 20.388C10.2649 20.3768 10.25 20.3644 10.2325 20.3533C10.2149 20.3422 10.1957 20.3331 10.1796 20.3273C10.1718 20.3245 10.1652 20.3227 10.1599 20.3218C10.1551 20.3209 10.1525 20.321 10.152 20.321C10.1547 20.3205 10.1546 20.3198 10.1512 20.3218C10.1483 20.3234 10.1443 20.3266 10.1394 20.3304C10.1296 20.3382 10.1186 20.3492 10.1078 20.3612C10.097 20.3734 10.0875 20.386 10.081 20.3967C10.0736 20.409 10.0731 20.4131 10.0731 20.4109L10.0755 21.7068C10.1136 21.723 10.1657 21.7298 10.212 21.7218C10.2387 21.7172 10.2595 21.7083 10.2727 21.6982C10.2847 21.6889 10.2893 21.6794 10.2893 21.669L10.2869 20.4054C10.2869 20.4064 10.2863 20.4006 10.2751 20.388ZM10.3697 21.669C10.3697 21.7094 10.3494 21.7414 10.3216 21.7628C10.2948 21.7833 10.2599 21.7955 10.2254 21.8015C10.1569 21.8132 10.0733 21.8031 10.0148 21.7676L9.99504 21.7557V21.7336L9.99268 20.4109C9.99268 20.3899 10.003 20.3692 10.0116 20.3549C10.0213 20.3389 10.0339 20.3224 10.0471 20.3076C10.0604 20.2926 10.0755 20.2778 10.0897 20.2666C10.0967 20.261 10.1044 20.2558 10.1118 20.2516C10.1188 20.2476 10.1281 20.2431 10.1386 20.2413C10.161 20.2376 10.1866 20.2442 10.2072 20.2516C10.2295 20.2595 10.2531 20.2716 10.2751 20.2855C10.2969 20.2993 10.3184 20.316 10.335 20.3344C10.3504 20.3516 10.3673 20.3762 10.3673 20.4054L10.3697 21.669Z" fill="#26272A"/>
<path d="M10.2583 25.4845L8.65471 25.4819L8.55669 25.6661C8.53839 25.7014 8.40639 25.6766 8.32144 25.6661L8.31622 23.9763L9.28725 23.9567L9.27941 23.2928H7.89931C7.83658 23.2941 7.79737 23.0209 7.86403 23.0196L9.27157 22.9948L9.30685 22.4315C9.31077 22.361 9.53556 22.3374 9.58653 22.3858L9.62574 22.9987L11.0111 23.0131C11.0856 23.0131 11.0921 23.2862 11.0176 23.2862L9.6179 23.2993L9.62051 23.958L10.5824 23.9828V25.5694C10.5837 25.6191 10.4295 25.7406 10.406 25.704L10.2622 25.4845H10.2583ZM10.2857 25.1943L10.2792 24.2429L8.61288 24.2455L8.61942 25.1996L10.2857 25.1943Z" fill="#26272A"/>
<path d="M9.52677 22.3224C9.54175 22.3242 9.55803 22.3273 9.5733 22.3326L9.61432 22.3563L9.62615 22.3673L9.62694 22.3831L9.66322 22.9581L11.0112 22.9723L11.042 22.9794C11.051 22.9838 11.0585 22.9901 11.0649 22.9968C11.077 23.0094 11.0856 23.0254 11.0917 23.0409C11.1038 23.0721 11.1097 23.1112 11.1106 23.1482C11.1115 23.1852 11.1071 23.2247 11.0964 23.2563C11.0911 23.2718 11.0837 23.2882 11.072 23.3012C11.0595 23.3149 11.0412 23.3262 11.0183 23.3265L9.65849 23.3391L9.66007 23.918L10.5837 23.9425L10.6231 23.9433V25.5681L10.6121 25.6091C10.6062 25.6205 10.5985 25.632 10.59 25.6423C10.5732 25.6628 10.5509 25.6832 10.5285 25.7006C10.5063 25.7178 10.4809 25.7343 10.4583 25.7432C10.4473 25.7475 10.4335 25.7513 10.4196 25.7511C10.4122 25.751 10.4036 25.7494 10.3952 25.7456L10.3723 25.7259L10.2406 25.5239L8.67885 25.5224L8.59208 25.6841C8.58458 25.6985 8.57273 25.7081 8.56211 25.7132C8.55185 25.7182 8.5407 25.7204 8.53056 25.7219C8.50987 25.7251 8.48496 25.7251 8.46115 25.7235C8.41399 25.7203 8.35674 25.7111 8.3168 25.7061L8.28131 25.7014V25.6659L8.27579 23.9764V23.937L9.24597 23.9172L9.23966 23.3328H7.89955C7.87622 23.333 7.85853 23.3208 7.84749 23.3091C7.83632 23.2973 7.82812 23.2821 7.82146 23.2673C7.80795 23.2373 7.79807 23.1991 7.79307 23.1624C7.78812 23.126 7.78735 23.0873 7.79307 23.0559C7.7959 23.0404 7.80071 23.0228 7.81042 23.0086C7.82093 22.9933 7.83871 22.9799 7.86327 22.9794L9.23256 22.9542L9.26647 22.4288C9.26886 22.3887 9.30117 22.3644 9.32642 22.3515C9.35419 22.3375 9.38934 22.3286 9.42344 22.3239C9.45787 22.3192 9.49452 22.3184 9.52677 22.3224ZM9.43448 22.4036C9.40574 22.4076 9.38052 22.4147 9.36349 22.4233C9.344 22.4332 9.34664 22.4387 9.34693 22.4336L9.31222 22.9975L9.30986 23.0346L9.272 23.0354L7.8751 23.0591C7.87422 23.0616 7.87285 23.0651 7.87194 23.0701C7.86828 23.0901 7.86921 23.1196 7.87352 23.1513C7.87783 23.183 7.88542 23.2133 7.89482 23.2342C7.89907 23.2436 7.90321 23.2492 7.90586 23.2523H9.31932L9.32011 23.2925L9.328 23.9559V23.9961L8.35624 24.015L8.36098 25.6296C8.39637 25.6345 8.43327 25.6408 8.46667 25.643C8.48868 25.6445 8.50608 25.644 8.51794 25.6423C8.52084 25.6418 8.52278 25.6403 8.52425 25.6399L8.6189 25.4624L8.63073 25.4411H8.65439L10.2587 25.4443H10.284L10.4291 25.6667C10.4419 25.6615 10.46 25.6513 10.4788 25.6367C10.4975 25.6222 10.5154 25.6059 10.5277 25.591C10.5339 25.5835 10.5379 25.5767 10.5403 25.5721C10.543 25.5669 10.5418 25.5669 10.5419 25.5705V24.0214L9.61984 23.9985L9.5804 23.9969V23.9583L9.57725 23.2996V23.2594L9.61747 23.2586L11.012 23.246C11.0138 23.2437 11.0169 23.239 11.0199 23.2302C11.0265 23.2106 11.0309 23.1817 11.0301 23.1506C11.0294 23.1194 11.0237 23.09 11.0159 23.0701C11.0121 23.0602 11.0086 23.055 11.0065 23.0528L9.62536 23.0393L9.5875 23.0386L9.54727 22.4107C9.54054 22.4083 9.53108 22.4045 9.5173 22.4028C9.49296 22.3998 9.46308 22.3997 9.43448 22.4036ZM10.3195 24.2422L10.3258 25.1942L10.3266 25.2345H10.2856L8.61969 25.24H8.57946L8.57867 25.1998L8.57236 24.2454V24.2051H8.61259L10.2792 24.2028L10.3195 24.202V24.2422ZM8.65361 24.2848L8.65913 25.158L10.2445 25.154L10.239 24.2832L8.65361 24.2848Z" fill="#26272A"/>
<path d="M11.8396 25.682L11.5939 25.665C11.5338 25.6611 11.5024 25.4402 11.5586 25.4285L11.939 25.3435L11.9481 24.4339L11.5351 24.5528L11.4214 24.4666C11.3822 24.4365 11.4358 24.2627 11.4907 24.247L11.9429 24.1072L11.9468 23.3244L11.4881 23.2825C11.4685 23.2486 11.4489 23.1009 11.4659 23.0577C11.5024 22.9676 11.9311 23.0865 11.935 22.9806L11.9481 22.701L11.9612 22.4226C11.9638 22.3546 12.1677 22.369 12.233 22.3899L12.2748 23.0355C12.4892 22.9806 12.6957 23.0643 12.6617 23.195C12.6342 23.3034 12.4042 23.3139 12.2618 23.3152L12.2565 23.9556L12.6551 23.7922C12.663 23.8889 12.6774 24.0771 12.6185 24.1046L12.2722 24.2627L12.2461 25.3474C12.2408 25.5644 12.101 25.7016 11.837 25.6833L11.8396 25.682Z" fill="#26272A"/>
<path d="M12.1675 22.3364L12.2456 22.3513L12.2716 22.36L12.2732 22.3876L12.3119 22.9879C12.4099 22.971 12.5049 22.9789 12.5769 23.0084C12.6185 23.0255 12.655 23.0507 12.6786 23.0841C12.7031 23.1187 12.7123 23.1609 12.7007 23.2056C12.6902 23.2463 12.6612 23.2745 12.6282 23.2939C12.5951 23.3133 12.5544 23.3263 12.513 23.3349C12.4445 23.3491 12.3668 23.3524 12.3016 23.3539L12.2969 23.895L12.64 23.7546L12.6913 23.734L12.6952 23.7893C12.6991 23.8373 12.7052 23.9108 12.7023 23.9762C12.7009 24.0088 12.697 24.0417 12.6889 24.0693C12.6813 24.095 12.6664 24.1265 12.6353 24.141L12.3119 24.2885L12.2866 25.3486C12.2838 25.4655 12.2442 25.5659 12.1652 25.6342C12.0862 25.7022 11.973 25.7329 11.8339 25.7233L11.6864 25.7138L11.6895 25.7115L11.5909 25.7052C11.5708 25.7037 11.5552 25.6938 11.5444 25.6831C11.5336 25.6724 11.5256 25.659 11.5192 25.646C11.5063 25.6197 11.4969 25.5867 11.4923 25.5553C11.4878 25.5242 11.4874 25.4909 11.4923 25.463C11.4948 25.4491 11.4993 25.4335 11.5073 25.4204C11.5156 25.4072 11.5293 25.3933 11.5499 25.3889L11.8986 25.3108L11.9072 24.4873L11.546 24.5914L11.5271 24.597L11.5105 24.5851L11.3969 24.4991C11.3828 24.4883 11.3752 24.473 11.3717 24.4605C11.368 24.4478 11.3675 24.4339 11.3677 24.4211C11.3682 24.3955 11.3735 24.3667 11.3819 24.3398C11.3904 24.3127 11.4029 24.2844 11.4174 24.2617C11.424 24.2515 11.4323 24.24 11.4427 24.2302L11.4797 24.2081L11.9025 24.0772L11.9057 23.361L11.4845 23.3231L11.4632 23.3207L11.4529 23.3026C11.4447 23.2883 11.4391 23.2675 11.4348 23.2482C11.4301 23.2272 11.4257 23.2025 11.4229 23.178C11.4202 23.1537 11.4187 23.1286 11.419 23.1062C11.4192 23.0851 11.4213 23.0604 11.4285 23.0423C11.4392 23.0162 11.4621 23.0023 11.4821 22.995C11.5026 22.9875 11.5274 22.984 11.5515 22.9824C11.5998 22.979 11.6599 22.9822 11.7148 22.9847C11.7716 22.9874 11.8228 22.9893 11.8599 22.9847C11.8783 22.9824 11.8893 22.979 11.8946 22.976C11.8978 22.9742 11.8948 22.9754 11.8946 22.9792L11.908 22.6992L11.9206 22.4208C11.9224 22.3791 11.9562 22.3579 11.9814 22.3482C12.0079 22.338 12.0408 22.3336 12.0721 22.3324C12.1034 22.3312 12.137 22.3329 12.1675 22.3364ZM12.0098 22.4239C12.0052 22.4257 12.0025 22.4269 12.0011 22.4279L11.9885 22.7031L11.9751 22.9824C11.9739 23.0124 11.9566 23.0332 11.9356 23.0455C11.9164 23.0566 11.8926 23.0624 11.8702 23.0652C11.8248 23.0708 11.766 23.0677 11.7108 23.0652C11.6537 23.0625 11.5995 23.0598 11.557 23.0628C11.536 23.0643 11.5205 23.0671 11.5105 23.0707C11.5001 23.0745 11.5018 23.077 11.5034 23.0731C11.502 23.0769 11.4997 23.0878 11.4994 23.107C11.4992 23.1253 11.5009 23.1472 11.5034 23.1693C11.5059 23.1912 11.5097 23.2125 11.5136 23.23C11.5149 23.2357 11.5164 23.2409 11.5176 23.245L11.9506 23.2845L11.9877 23.2876L11.9869 23.3247L11.983 24.1071V24.1371L11.9546 24.1458L11.5026 24.2854L11.5018 24.2862C11.5007 24.287 11.4944 24.2915 11.4852 24.3059C11.4755 24.3211 11.4661 24.3416 11.4592 24.3635C11.4523 24.3856 11.4485 24.4068 11.4482 24.4226C11.4481 24.4293 11.4484 24.434 11.449 24.4368L11.5428 24.5078L11.9372 24.395L11.9893 24.38L11.9885 24.4345L11.979 25.3439V25.3762L11.9475 25.3833L11.5744 25.4654C11.5735 25.4677 11.573 25.4717 11.572 25.4772C11.569 25.494 11.569 25.5184 11.5728 25.5443C11.5766 25.5699 11.5836 25.594 11.5917 25.6105C11.5953 25.6177 11.5982 25.6223 11.6004 25.6247L11.8536 25.6428C11.9712 25.6485 12.0562 25.6217 12.1123 25.5734C12.1703 25.5234 12.203 25.4462 12.2054 25.3463L12.2322 24.2617V24.2365L12.2551 24.2262L12.6013 24.0677C12.6026 24.0664 12.6072 24.0614 12.6116 24.0464C12.617 24.0281 12.6205 24.0028 12.6219 23.973C12.6236 23.9335 12.6188 23.8898 12.6163 23.8508L12.2716 23.9928L12.2156 24.0164L12.2164 23.9557L12.2212 23.3152L12.2219 23.275H12.2614C12.3324 23.2743 12.422 23.2715 12.4964 23.2561C12.5338 23.2483 12.5649 23.2376 12.5871 23.2245C12.6091 23.2116 12.6193 23.1982 12.6226 23.1851L12.6242 23.1559C12.6225 23.1469 12.6181 23.1387 12.6124 23.1306C12.6002 23.1135 12.5784 23.0966 12.5461 23.0833C12.4813 23.0568 12.3851 23.0491 12.2851 23.0746L12.2377 23.0865L12.1943 22.4231C12.1628 22.4171 12.1173 22.4121 12.0752 22.4137C12.0472 22.4147 12.0242 22.4184 12.0098 22.4239Z" fill="#26272A"/>
<path d="M14.634 25.5568H12.7586C12.7089 25.5554 12.6174 25.477 12.6174 25.4457C12.6174 25.3999 12.6893 25.2732 12.7416 25.2718L13.7571 25.2627C13.9309 24.6864 14.0681 24.0878 14.1936 23.4892C14.2079 23.4187 14.417 23.4566 14.4915 23.5193L14.0955 25.2483L14.6614 25.2771C14.6941 25.2784 14.7647 25.3542 14.7817 25.3816C14.8078 25.4221 14.7006 25.5568 14.6353 25.5568H14.634Z" fill="#26272A"/>
<path d="M14.325 23.4137C14.3923 23.4227 14.472 23.4496 14.5175 23.4878L14.5364 23.5036L14.5309 23.528L14.1452 25.2097L14.6634 25.2365H14.6626C14.6828 25.2373 14.7017 25.248 14.7139 25.2562C14.7279 25.2656 14.7421 25.278 14.7549 25.2901C14.7796 25.3135 14.8036 25.3416 14.8149 25.3595H14.8157C14.825 25.3742 14.8268 25.3901 14.8259 25.4029C14.8249 25.416 14.8211 25.4292 14.8164 25.4408C14.8071 25.4639 14.7914 25.4879 14.7739 25.5094C14.7562 25.531 14.7347 25.552 14.7123 25.5678C14.6911 25.5827 14.6637 25.597 14.635 25.597H12.7578C12.7364 25.5964 12.7147 25.5879 12.697 25.5788C12.6786 25.5693 12.6604 25.5565 12.6442 25.5433C12.628 25.5301 12.6124 25.5153 12.6008 25.5007C12.595 25.4935 12.5892 25.4854 12.585 25.4771C12.5812 25.4694 12.5772 25.4582 12.5771 25.4455C12.5771 25.4259 12.5841 25.4028 12.5921 25.3832C12.6007 25.3625 12.6126 25.34 12.6261 25.3193C12.6394 25.2988 12.6552 25.2783 12.6726 25.2625C12.6887 25.2479 12.7125 25.2317 12.7404 25.231H12.7412L13.7264 25.2215C13.8956 24.6558 14.0306 24.0688 14.1539 23.4807L14.1649 23.4539C14.1799 23.4316 14.2053 23.4202 14.2264 23.4152C14.2559 23.4083 14.2911 23.4091 14.325 23.4137ZM14.2446 23.4941C14.2276 23.4982 14.2316 23.5022 14.2328 23.4965V23.4973C14.1073 24.096 13.97 24.6958 13.7958 25.2736L13.7871 25.3028H13.7571L12.742 25.3106L12.7428 25.3114C12.7437 25.3114 12.7383 25.3122 12.727 25.3225C12.7164 25.3322 12.7049 25.3466 12.6939 25.3635C12.683 25.3801 12.6736 25.3982 12.6671 25.414C12.6617 25.4269 12.6593 25.4365 12.6584 25.4416C12.6595 25.4435 12.661 25.4466 12.6639 25.4503C12.671 25.4592 12.6818 25.4705 12.6947 25.481C12.7075 25.4914 12.7215 25.5005 12.7341 25.507C12.7472 25.5138 12.7557 25.5155 12.7594 25.5157H14.635C14.6389 25.5157 14.6495 25.513 14.6658 25.5015C14.6811 25.4908 14.6975 25.4752 14.7115 25.4581C14.7255 25.4411 14.7361 25.4242 14.7415 25.4108C14.7436 25.4055 14.7443 25.4014 14.7447 25.399C14.7369 25.388 14.7198 25.3675 14.6997 25.3485C14.6887 25.3381 14.6779 25.3293 14.6689 25.3233L14.6595 25.317L14.0931 25.2886L14.045 25.2854L14.0561 25.2389L14.4449 23.5391C14.4123 23.5198 14.3633 23.5007 14.3148 23.4941C14.2855 23.4902 14.2606 23.4903 14.2446 23.4941Z" fill="#26272A"/>
<path d="M14.6404 23.2136L12.748 23.2266L12.7336 22.9535L13.5361 22.9221L13.4093 22.4307L13.6014 22.3589C13.6524 22.3392 13.7308 22.4752 13.7491 22.5314L13.8733 22.9352L14.6038 22.9326C14.6574 22.9326 14.6979 23.2123 14.6404 23.2136Z" fill="#26272A"/>
<path d="M13.5872 22.3216C13.6196 22.3091 13.6493 22.3239 13.6676 22.3374C13.6871 22.3517 13.7054 22.372 13.7205 22.3926C13.7508 22.434 13.7768 22.486 13.7875 22.5188V22.5196L13.9027 22.8942L14.6039 22.8926L14.6355 22.9021C14.6437 22.9074 14.65 22.914 14.6544 22.9195C14.664 22.9315 14.6721 22.9464 14.6781 22.9613C14.69 22.9914 14.699 23.0299 14.7041 23.067C14.7092 23.1038 14.7105 23.143 14.7064 23.1742C14.7045 23.1895 14.7009 23.2066 14.693 23.2208C14.6849 23.2355 14.6686 23.2531 14.6418 23.2539H14.641L12.7487 23.2673H12.7101L12.7077 23.2287L12.6935 22.9557L12.6912 22.9147L12.7322 22.9132L13.4847 22.8832L13.3703 22.4407L13.3616 22.406L13.3955 22.3934L13.5872 22.3208V22.3216ZM13.4571 22.4557L13.5754 22.9124L13.588 22.9605L13.5375 22.9628L12.7756 22.992L12.7858 23.1853L14.6236 23.1734C14.6242 23.1709 14.6263 23.1679 14.6268 23.164C14.6296 23.1425 14.6282 23.1111 14.6236 23.078C14.6191 23.0451 14.612 23.0135 14.6031 22.9912C14.5997 22.9826 14.5961 22.9769 14.5937 22.9731L13.8735 22.9755H13.8435L13.8349 22.9471L13.7102 22.5432C13.7024 22.5196 13.6808 22.4759 13.655 22.4407C13.642 22.4229 13.6296 22.4094 13.6195 22.402C13.6118 22.3964 13.6098 22.3972 13.6116 22.3973L13.4571 22.4557Z" fill="#26272A"/>
<path d="M13.1871 23.4903C13.1779 23.6928 13.7843 25.4872 13.2054 25.0664L12.9178 23.6131C12.9048 23.5465 13.1047 23.4615 13.1871 23.4916V23.4903Z" fill="#26272A"/>
<path d="M13.2012 23.4538L13.1878 23.4893L13.2272 23.4901V23.4925L13.232 23.5398C13.2356 23.5629 13.2413 23.5915 13.2485 23.625C13.263 23.6919 13.2836 23.7767 13.3069 23.8719C13.3533 24.0615 13.4104 24.2926 13.4497 24.5044C13.4693 24.6104 13.4842 24.7126 13.4915 24.8026C13.4987 24.8918 13.4987 24.9725 13.4852 25.0345C13.4719 25.0949 13.4418 25.1523 13.3795 25.167C13.322 25.1805 13.255 25.1526 13.1815 25.0992L13.1689 25.0897L13.1657 25.0739L12.8786 23.621C12.8711 23.5826 12.8951 23.551 12.9157 23.5319C12.9382 23.5112 12.9685 23.493 13.0001 23.4791C13.0321 23.4649 13.068 23.4537 13.1018 23.4483C13.1347 23.4431 13.1712 23.4429 13.2012 23.4538ZM13.1144 23.5287C13.0883 23.5329 13.0596 23.5416 13.0332 23.5532C13.0064 23.565 12.9839 23.5783 12.9701 23.5911C12.9543 23.6057 12.9585 23.6103 12.9575 23.6053L13.2414 25.0416C13.3053 25.0857 13.3423 25.0934 13.3613 25.0889C13.3766 25.0853 13.3949 25.0689 13.4063 25.0171C13.4172 24.9671 13.418 24.8963 13.411 24.8097C13.4041 24.7235 13.3894 24.6241 13.37 24.5194C13.3312 24.3102 13.2746 24.0812 13.228 23.8908C13.2049 23.7961 13.1844 23.7105 13.1697 23.6423C13.1623 23.6083 13.1563 23.5776 13.1523 23.5524C13.1509 23.5432 13.1509 23.534 13.1499 23.5256C13.1402 23.5253 13.1281 23.5266 13.1144 23.5287Z" fill="#26272A"/>
<path d="M26.2497 10.3647C26.3971 10.3647 26.5329 10.4453 26.6039 10.5746C26.6746 10.7037 26.6695 10.8612 26.5905 10.9855L23.8069 15.3584L21.7656 27.2017L17.1285 29.3092C16.9939 29.3704 16.8364 29.3532 16.7183 29.2643C16.6004 29.1755 16.54 29.0294 16.5614 28.8833L18.5806 15.1525L18.5956 15.0539L18.6539 14.9735L21.6426 10.864C21.8705 10.5506 22.2347 10.3649 22.6222 10.3647H26.2497ZM17.4684 28.2673L21.0407 26.6432L22.9432 15.6147H19.3299L17.4684 28.2673ZM22.6222 11.1724C22.4931 11.1726 22.3716 11.2345 22.2957 11.3389L19.7732 14.8071H23.2012L25.5138 11.1724H22.6222Z" fill="#26272A"/>
<path d="M20.9996 24.0953C18.738 25.0645 19.2496 28.8068 19.788 30.5568C19.9227 30.8261 20.3535 31.203 20.9996 30.5569C21.6458 29.9107 23.1535 28.9415 23.8265 28.5377L24.1996 28.1338C24.0706 28.4354 23.9402 28.7142 23.8265 28.9415C23.6919 30.153 23.665 32.5761 24.6342 32.5761C25.8458 32.5761 28.6727 30.9607 28.8179 29.2591C28.9631 27.5575 28.6727 25.7107 27.0573 24.4991C25.4419 23.2876 23.8265 22.8838 20.9996 24.0953Z" fill="#F9C890"/>
<path d="M20.8403 23.7245C22.292 23.1023 23.4747 22.8764 24.5254 22.987C25.5807 23.0981 26.4562 23.544 27.2994 24.1764C29.0788 25.511 29.3701 27.535 29.2201 29.2939C29.1749 29.8231 28.9254 30.3159 28.5922 30.7436C28.2573 31.1736 27.8202 31.5618 27.3586 31.8866C26.8962 32.2119 26.3976 32.4815 25.9309 32.6714C25.472 32.8581 25.0121 32.9806 24.6342 32.9806C24.1843 32.9806 23.8931 32.6853 23.724 32.3693C23.5581 32.0591 23.4667 31.6613 23.4156 31.265C23.332 30.6164 23.3466 29.8742 23.3911 29.2844C23.1535 29.437 22.8926 29.6098 22.6323 29.7892C22.0919 30.1619 21.58 30.5482 21.2851 30.843C20.9048 31.2233 20.5005 31.3835 20.1114 31.2942C19.7504 31.2113 19.5276 30.9389 19.4268 30.7373L19.4118 30.7082L19.4023 30.6758C19.1235 29.7694 18.8491 28.3449 18.9409 27.0057C19.0317 25.6822 19.4958 24.3008 20.8403 23.7245ZM24.4402 23.7907C23.5726 23.6994 22.5339 23.8775 21.1589 24.4667C20.2421 24.8596 19.8313 25.8336 19.747 27.0609C19.6653 28.2522 19.9063 29.5499 20.1611 30.395C20.1959 30.4529 20.2475 30.4967 20.2921 30.507C20.3136 30.512 20.4483 30.5369 20.7141 30.2712C21.0654 29.9199 21.631 29.4987 22.1741 29.1243C22.6968 28.7639 23.2219 28.4314 23.567 28.2228L23.8525 27.9136C24.0802 27.375 24.2934 26.788 24.3936 26.3108C24.4463 26.0601 24.462 25.8686 24.4481 25.7421C24.4422 25.6891 24.4325 25.6626 24.4276 25.6514C24.2482 25.544 24.1781 25.317 24.273 25.1269C24.3727 24.9274 24.6153 24.8465 24.8148 24.9462C25.1228 25.1003 25.2232 25.4089 25.2502 25.6538C25.2779 25.905 25.2434 26.1933 25.184 26.4764C25.0638 27.049 24.8159 27.7207 24.5711 28.293C24.4522 28.5709 24.33 28.8294 24.2217 29.0494C24.1606 29.6359 24.1282 30.4733 24.217 31.1617C24.2635 31.5225 24.3388 31.8063 24.4362 31.9883C24.5305 32.1645 24.5995 32.1729 24.6342 32.1729C24.862 32.1729 25.2101 32.093 25.6265 31.9236C26.035 31.7574 26.4794 31.5167 26.8932 31.2256C27.308 30.9338 27.6811 30.599 27.9549 30.2475C28.2303 29.894 28.388 29.5466 28.4155 29.2253C28.5558 27.581 28.2664 25.9109 26.8151 24.8224C26.0431 24.2434 25.303 23.8815 24.4402 23.7907Z" fill="#26272A"/>
</svg>
