<svg width="52" height="52" viewBox="0 0 52 52" fill="none" xmlns="http://www.w3.org/2000/svg">
<path d="M38.5 15.5L37.5 14H17.5L14 14.5L13.5 16.5L14.5 18H38L38.5 15.5Z" fill="white"/>
<path d="M37 20L37.5 18.5V18H14L14.5 19L16.5 21.5L20 23L21.5 26.5L23 28L26 28.5L29 28L31 26L32 23L35.5 21.5L37 20Z" fill="#FCA978"/>
<path d="M38.4103 13.5L38.4904 13.9023C38.7085 14.9933 38.7469 16.5672 38.2834 18.1416C37.6496 20.2939 36.0747 22.4416 32.8029 23.3252C32.5796 23.3855 32.3985 23.5673 32.3361 23.8017C32.0444 24.8973 31.446 26.2786 30.4249 27.3486C29.3978 28.4249 27.9436 29.1792 26.0001 29C24.0566 29.1793 22.6025 28.4249 21.5753 27.3486C20.5543 26.2786 19.9558 24.8973 19.6642 23.8017C19.6018 23.5674 19.4205 23.3855 19.1974 23.3252C15.9255 22.4416 14.3506 20.2939 13.7169 18.1416C13.2534 16.5672 13.2917 14.9933 13.5099 13.9023L13.5899 13.5H38.4103ZM14.8985 18.5C15.5544 20.1356 16.898 21.669 19.4581 22.3603C20.0369 22.5167 20.4787 22.9764 20.63 23.5449C20.8937 24.5353 21.4292 25.7467 22.2989 26.6582C23.1533 27.5533 24.3299 28.1634 25.9464 28.0029H26.0509C27.6688 28.1643 28.8465 27.5539 29.7013 26.6582C30.5711 25.7467 31.1066 24.5354 31.3703 23.5449C31.5216 22.9763 31.9632 22.5167 32.5421 22.3603C35.1023 21.669 36.4459 20.1356 37.1017 18.5H14.8985ZM14.4239 14.5C14.3109 15.3336 14.3171 16.4071 14.5811 17.5H37.4191C37.6831 16.4071 37.6894 15.3336 37.5763 14.5H14.4239Z" fill="#26272A"/>
<path d="M42.8391 7.52625C43.1004 7.43734 43.3849 7.57742 43.4739 7.83875C43.5628 8.1001 43.4227 8.3845 43.1614 8.47352L36.177 10.8524C36.0626 10.8915 35.966 10.9704 35.9055 11.0751L27.4329 25.7499C27.2947 25.9889 26.9893 26.0705 26.7502 25.9325C26.5112 25.7944 26.4296 25.489 26.5676 25.2499L35.0393 10.5751C35.221 10.2605 35.5108 10.0223 35.8547 9.90516L42.8391 7.52625Z" fill="#26272A"/>
<path d="M14.4103 9.50469C15.1235 9.47309 15.8397 9.58621 16.5118 9.84063C17.2222 10.1095 17.8602 10.5276 18.381 11.0623C18.5656 11.2519 18.7355 11.4562 18.8888 11.6736C19.4911 12.5282 19.4073 13.3123 19.4913 13.7527L18.5089 13.9402C18.3588 13.1539 18.5088 12.8704 18.0714 12.2498C18.0303 12.1915 17.9856 12.1359 17.9415 12.0799L14.5353 14.4813L14.5948 14.535L11.9298 17.5174C12.1323 17.6871 12.3506 17.8414 12.5861 17.9715C13.3114 18.3722 14.1461 18.5516 14.9806 18.4861L15.0587 19.4832C14.0305 19.5639 12.9998 19.3427 12.1017 18.8465C11.6406 18.5917 11.2251 18.2702 10.8683 17.8953C10.53 17.5399 10.2442 17.1358 10.0226 16.6951C9.62735 15.9091 9.45234 15.0373 9.51184 14.1678C9.5209 14.0355 9.53483 13.9032 9.55481 13.7713C9.70617 12.7725 10.1651 11.8431 10.8683 11.1043C11.5712 10.3658 12.4857 9.85157 13.4913 9.62676C13.7946 9.55899 14.1024 9.51833 14.4103 9.50469ZM10.506 14.6883C10.5323 15.226 10.6699 15.7562 10.9161 16.2459C11.0108 16.4341 11.1213 16.6136 11.2443 16.784L13.1798 14.618L10.506 14.6883ZM11.2833 12.1629C10.9435 12.6182 10.7063 13.1367 10.588 13.6863L12.9386 13.6238L11.2833 12.1629ZM14.7736 13.0897L17.2179 11.366C16.8986 11.1218 16.5426 10.9217 16.1583 10.7762C15.7559 10.6238 15.3332 10.5337 14.9064 10.5076L14.7736 13.0897ZM13.9025 10.5643C13.8381 10.5756 13.774 10.589 13.7101 10.6033C13.0684 10.7467 12.4763 11.0362 11.9777 11.4412L13.7755 13.0281L13.9025 10.5643Z" fill="#26272A"/>
<path d="M25 40.1972V29.5C25 28.9477 25.4477 28.5 26 28.5C26.5523 28.5 27 28.9477 27 29.5V35.5L27.4574 40.9892C27.4842 41.3099 27.6636 41.5981 27.9395 41.7637L29.9059 42.9435C29.9684 42.9811 30.0349 43.0116 30.1041 43.0347L30.8095 43.2698C31.1739 43.3913 31.3463 43.8074 31.1745 44.151C31.0675 44.3649 30.849 44.5 30.6098 44.5H21.618C21.2767 44.5 21 44.2233 21 43.882C21 43.6479 21.1323 43.4339 21.3416 43.3292L22 43L23.7625 42.1188C23.9181 42.0409 24.0508 41.9238 24.1473 41.779L24.8321 40.7519C24.9416 40.5877 25 40.3946 25 40.1972Z" fill="white"/>
<path d="M27.6251 28V40.418C27.8364 41.0345 28.595 42.1726 30.1593 42.4414C30.7346 42.5402 31.3514 42.8022 31.757 43.3428C32.269 44.0255 31.7822 44.9999 30.9288 45H21.0713C20.218 44.9998 19.7312 44.0255 20.2432 43.3428C20.6487 42.8022 21.2656 42.5403 21.8409 42.4414C23.4053 42.1726 24.1638 41.0345 24.3751 40.418V28H27.6251ZM25.3751 29V40.5732L25.3536 40.6436C25.0926 41.5136 24.0888 43.0696 22.0098 43.4268C21.5885 43.4992 21.2445 43.674 21.043 43.9424C21.036 43.9517 21.0354 43.9575 21.0352 43.96C21.0349 43.9643 21.035 43.9722 21.0391 43.9805C21.0432 43.9887 21.0492 43.9937 21.0528 43.9961C21.0548 43.9974 21.0594 44 21.0713 44H30.9288C30.9407 44 30.9453 43.9974 30.9474 43.9961C30.951 43.9938 30.9569 43.9888 30.9611 43.9805C30.9652 43.9721 30.9653 43.9643 30.965 43.96C30.9648 43.9575 30.9642 43.9518 30.9572 43.9424C30.7557 43.6741 30.4117 43.4992 29.9904 43.4268C27.9115 43.0695 26.9076 41.5135 26.6466 40.6436L26.6251 40.5732V29H25.3751Z" fill="#26272A"/>
</svg>
