<svg width="28" height="31" viewBox="0 0 28 31" fill="none" xmlns="http://www.w3.org/2000/svg">
<path d="M23.4228 6.46203L22.6151 5.25049H6.46124L3.63431 5.65433L3.23047 7.26972L4.03816 8.48126H23.0189L23.4228 6.46203Z" fill="white"/>
<path d="M22.2112 10.0968L22.615 8.88529V8.48145H3.63428L4.03812 9.28914L5.65351 11.3084L8.48043 12.5199L9.69197 15.3468L10.9035 16.5584L13.3266 16.9622L15.7497 16.5584L17.365 14.943L18.1727 12.5199L20.9997 11.3084L22.2112 10.0968Z" fill="#FCA978"/>
<path d="M23.3503 4.84668L23.415 5.17165C23.5912 6.05284 23.6221 7.324 23.2478 8.59566C22.7359 10.334 21.4639 12.0687 18.8212 12.7824C18.6409 12.8311 18.4946 12.978 18.4442 13.1673C18.2086 14.0522 17.7253 15.1679 16.9006 16.0321C16.0709 16.9014 14.8964 17.5107 13.3267 17.3659C11.7569 17.5107 10.5824 16.9014 9.75278 16.0321C8.92811 15.1679 8.44474 14.0522 8.20917 13.1673C8.15879 12.9781 8.0124 12.8311 7.83214 12.7824C5.18951 12.0687 3.91748 10.334 3.4056 8.59566C3.03123 7.324 3.06219 6.05284 3.23838 5.17165L3.30306 4.84668H23.3503ZM4.36 8.88513C4.88971 10.2062 5.97494 11.4447 8.04274 12.0031C8.51024 12.1294 8.86703 12.5007 8.98926 12.9599C9.20225 13.7598 9.63474 14.7383 10.3373 15.4744C11.0273 16.1974 11.9777 16.6902 13.2833 16.5606H13.3677C14.6745 16.691 15.6257 16.1979 16.3161 15.4744C17.0186 14.7382 17.4511 13.7598 17.6641 12.9599C17.7863 12.5007 18.143 12.1294 18.6106 12.0031C20.6784 11.4447 21.7636 10.2062 22.2933 8.88513H4.36ZM3.97666 5.65437C3.88535 6.32768 3.89039 7.19471 4.10365 8.07744H22.5497C22.763 7.19471 22.768 6.32768 22.6767 5.65437H3.97666Z" fill="#26272A"/>
<path d="M26.9273 0.0215986C27.1384 -0.0502169 27.3681 0.0629219 27.44 0.274002C27.5118 0.485091 27.3987 0.714801 27.1876 0.786698L21.5464 2.70812C21.454 2.7397 21.3759 2.80341 21.3271 2.88796L14.4838 14.7407C14.3722 14.9337 14.1255 14.9997 13.9324 14.8882C13.7394 14.7766 13.6734 14.53 13.7849 14.3368L20.6274 2.48411C20.7742 2.23 21.0083 2.03767 21.2861 1.94302L26.9273 0.0215986Z" fill="#26272A"/>
<path d="M3.9656 1.61991C4.54166 1.59439 5.12012 1.68575 5.66301 1.89124C6.23675 2.10843 6.75206 2.44613 7.1727 2.87798C7.32184 3.0311 7.45906 3.19613 7.58286 3.37175C8.06934 4.06193 8.00163 4.69528 8.06953 5.05102L7.27603 5.20246C7.15482 4.56737 7.27598 4.33838 6.92267 3.83712C6.88945 3.79 6.85339 3.74508 6.81776 3.69987L4.06656 5.63944L4.11467 5.68282L1.96214 8.0917C2.12573 8.22878 2.30204 8.35341 2.49219 8.45847C3.07807 8.78209 3.7522 8.92706 4.42623 8.87415L4.48934 9.67948C3.65884 9.74464 2.82636 9.56599 2.10096 9.1652C1.72853 8.95939 1.39299 8.69975 1.10476 8.39695C0.831496 8.10986 0.600691 7.78351 0.42169 7.42756C0.102469 6.79267 -0.0388869 6.08859 0.0091674 5.38624C0.0164865 5.27937 0.027736 5.17251 0.0438729 5.06601C0.16613 4.25928 0.536775 3.50862 1.10476 2.9119C1.67251 2.31544 2.41113 1.90008 3.22337 1.7185C3.4683 1.66377 3.71696 1.63093 3.9656 1.61991ZM0.812127 5.80665C0.83337 6.24098 0.944519 6.66918 1.14341 7.06473C1.21986 7.21676 1.30915 7.36168 1.40843 7.49934L2.97176 5.74986L0.812127 5.80665ZM1.43998 3.76692C1.1655 4.13463 0.973963 4.55348 0.878383 4.99738L2.77693 4.9469L1.43998 3.76692ZM4.25902 4.51545L6.23329 3.12329C5.97542 2.92606 5.68784 2.76439 5.37748 2.64687C5.05247 2.52384 4.71106 2.45102 4.36629 2.42996L4.25902 4.51545ZM3.55544 2.47571C3.50345 2.48485 3.45171 2.49572 3.40006 2.50726C2.88177 2.62308 2.40355 2.85691 2.00079 3.18402L3.4529 4.46576L3.55544 2.47571Z" fill="#26272A"/>
<path d="M12.5189 26.4097V17.7696C12.5189 17.3235 12.8805 16.9619 13.3265 16.9619C13.7726 16.9619 14.1342 17.3235 14.1342 17.7696V22.6158L14.5037 27.0494C14.5253 27.3084 14.6702 27.5412 14.8931 27.6749L16.4813 28.6278C16.5318 28.6582 16.5855 28.6829 16.6414 28.7015L17.2111 28.8914C17.5055 28.9895 17.6447 29.3256 17.5059 29.6031C17.4196 29.7759 17.243 29.885 17.0499 29.885H9.78727C9.51158 29.885 9.28809 29.6615 9.28809 29.3858C9.28809 29.1967 9.39491 29.0239 9.56403 28.9393L10.0958 28.6735L11.5193 27.9617C11.645 27.8988 11.7522 27.8042 11.8301 27.6873L12.3832 26.8577C12.4717 26.725 12.5189 26.5691 12.5189 26.4097Z" fill="white"/>
<path d="M14.6392 16.5581V26.588C14.8098 27.0859 15.4225 28.0052 16.686 28.2223C17.1507 28.3022 17.6489 28.5137 17.9765 28.9503C18.3901 29.5018 17.9969 30.2888 17.3076 30.2889H9.34576C8.65656 30.2887 8.26337 29.5018 8.67688 28.9503C9.00443 28.5137 9.50268 28.3022 9.96731 28.2223C11.2309 28.0052 11.8435 27.086 12.0142 26.588V16.5581H14.6392ZM12.8219 17.3658V26.7134L12.8045 26.7702C12.5937 27.4729 11.7829 28.7297 10.1038 29.0182C9.76344 29.0767 9.48559 29.2179 9.32289 29.4346C9.31724 29.4422 9.31674 29.4468 9.31658 29.4488C9.31634 29.4523 9.31639 29.4587 9.31973 29.4654C9.32307 29.4721 9.32784 29.4761 9.33077 29.478C9.3324 29.4791 9.33615 29.4812 9.34576 29.4812H17.3076C17.3171 29.4812 17.3209 29.4791 17.3226 29.478C17.3255 29.4761 17.3303 29.4721 17.3336 29.4654C17.337 29.4587 17.337 29.4523 17.3368 29.4488C17.3366 29.4468 17.3361 29.4422 17.3305 29.4346C17.1677 29.2179 16.8899 29.0767 16.5496 29.0182C14.8705 28.7296 14.0596 27.4729 13.8488 26.7702L13.8315 26.7134V17.3658H12.8219Z" fill="#26272A"/>
</svg>
