<svg width="21" height="30" viewBox="0 0 21 30" fill="none" xmlns="http://www.w3.org/2000/svg">
<path d="M11.7277 0.898845C12.3247 0.278207 13.2275 -0.137797 14.4884 0.0422496C14.7092 0.073792 14.863 0.278146 14.8315 0.498943C14.7999 0.719605 14.5954 0.872635 14.3748 0.841265C13.3743 0.698341 12.7292 1.02286 12.3098 1.45887C11.8729 1.91316 11.6589 2.51485 11.6007 2.92202L11.2008 2.86444L10.8009 2.80765C10.8774 2.27252 11.1483 1.50126 11.7277 0.898845Z" fill="#26272A"/>
<path d="M4.12657 8.77472C4.92206 7.11396 6.60008 6.05713 8.44154 6.05713H12.3449C14.1863 6.05713 15.8644 7.11396 16.6598 8.77472C17.3118 10.1358 16.3197 11.711 14.8106 11.711H5.97584C4.46671 11.711 3.47464 10.1358 4.12657 8.77472Z" fill="#F3F3D4"/>
<path d="M12.3445 6.05713C14.1859 6.05713 15.8643 7.11378 16.6599 8.77441C17.3118 10.1355 16.3194 11.711 14.8102 11.711V10.9033C15.7249 10.9033 16.3261 9.94875 15.931 9.12384C15.2698 7.74344 13.8751 6.86482 12.3445 6.86482H8.44175C6.91117 6.86482 5.51645 7.74344 4.85525 9.12384C4.46016 9.94875 5.06143 10.9033 5.97608 10.9033V11.711L5.83568 11.7062C4.40619 11.6124 3.4949 10.0929 4.12644 8.77441C4.89706 7.16577 6.4959 6.12396 8.26902 6.06028L8.44175 6.05713H12.3445ZM14.8102 10.9033V11.711H5.97608V10.9033H14.8102Z" fill="#26272A"/>
<path d="M1.91235 12.9607C1.91235 11.6224 2.9972 10.5376 4.33543 10.5376H16.4508C17.789 10.5376 18.8739 11.6224 18.8739 12.9607C18.8739 14.2989 17.789 15.3838 16.4508 15.3838H4.33543C2.9972 15.3838 1.91235 14.2989 1.91235 12.9607Z" fill="#F6D5A9"/>
<path d="M16.4508 14.5761V15.3838H4.33543V14.5761H16.4508ZM18.0662 12.9607C18.0662 12.0685 17.343 11.3453 16.4508 11.3453H4.33543C3.44328 11.3453 2.72005 12.0685 2.72005 12.9607C2.72005 13.8528 3.44328 14.5761 4.33543 14.5761V15.3838L4.21081 15.3806C2.93049 15.3157 1.91235 14.2571 1.91235 12.9607C1.91235 11.6224 2.9972 10.5376 4.33543 10.5376H16.4508C17.789 10.5376 18.8739 11.6224 18.8739 12.9607C18.8739 14.2571 17.8558 15.3157 16.5754 15.3806L16.4508 15.3838V14.5761C17.343 14.5761 18.0662 13.8528 18.0662 12.9607Z" fill="#26272A"/>
<path d="M13.2201 5.28786C13.2201 6.84913 11.9545 8.11478 10.3932 8.11478C8.83194 8.11478 7.56628 6.84913 7.56628 5.28786C7.56628 3.72659 8.83194 2.46094 10.3932 2.46094C11.9545 2.46094 13.2201 3.72659 13.2201 5.28786Z" fill="#F9B485"/>
<path d="M12.4124 5.28786C12.4124 4.17267 11.5084 3.26863 10.3932 3.26863C9.27802 3.26863 8.37398 4.17267 8.37398 5.28786C8.37398 6.40305 9.27802 7.30709 10.3932 7.30709V8.11478C8.83194 8.11478 7.56628 6.84913 7.56628 5.28786C7.56628 3.72659 8.83194 2.46094 10.3932 2.46094C11.9545 2.46094 13.2201 3.72659 13.2201 5.28786C13.2201 6.84913 11.9545 8.11478 10.3932 8.11478V7.30709C11.5084 7.30709 12.4124 6.40305 12.4124 5.28786Z" fill="#26272A"/>
<path d="M0.296997 17.8069C0.296997 16.0226 1.74346 14.5762 3.52777 14.5762H17.2585C19.0428 14.5762 20.4893 16.0226 20.4893 17.8069C20.4893 19.1452 19.4045 20.23 18.0662 20.23H2.72007C1.38185 20.23 0.296997 19.1452 0.296997 17.8069Z" fill="#F9B485"/>
<path d="M18.0662 19.4223V20.23H2.72007V19.4223H18.0662ZM19.6816 17.8069C19.6816 16.4687 18.5968 15.3839 17.2585 15.3839H3.52777C2.18954 15.3839 1.10469 16.4687 1.10469 17.8069C1.10469 18.6991 1.82792 19.4223 2.72007 19.4223V20.23C1.42364 20.23 0.365016 19.2119 0.300152 17.9316L0.296997 17.8069C0.296997 16.0785 1.65437 14.6667 3.36134 14.5801L3.52777 14.5762H17.2585L17.425 14.5801C19.1319 14.6667 20.4893 16.0785 20.4893 17.8069C20.4893 19.1452 19.4045 20.23 18.0662 20.23V19.4223C18.9584 19.4223 19.6816 18.6991 19.6816 17.8069Z" fill="#26272A"/>
<path d="M20.0055 20.3079L17.6624 28.6724H14.4316H10.3932H6.35471H3.12394L0.458725 20.296C0.356057 19.9733 0.398997 19.6219 0.576346 19.3335C1.36475 18.0512 3.22377 18.0376 4.03086 19.3082L4.33549 19.7878C5.83344 17.7686 8.87426 17.7843 10.3932 19.7878C11.7509 17.8254 14.6679 17.8403 16.047 19.7878L16.3146 19.3597C17.1297 18.0555 19.0244 18.0417 19.8584 19.334C20.0446 19.6226 20.0982 19.9772 20.0055 20.3079Z" fill="#AEEAE0"/>
<path d="M4.38435 19.1112C6.0184 17.442 8.75431 17.4724 10.3813 19.1546C11.871 17.5155 14.474 17.5152 16.0004 19.1025C16.987 17.5908 19.2124 17.5889 20.1974 19.1152C20.4464 19.5009 20.5185 19.9753 20.3946 20.4174L17.9684 29.0764H2.82891L2.73899 28.7948L0.0737621 20.419C-0.0645211 19.9844 -0.00654416 19.5108 0.232303 19.1223C1.17697 17.5858 3.40454 17.5692 4.37173 19.0915L4.38435 19.1112ZM19.5191 19.5529C18.8456 18.5094 17.315 18.521 16.6567 19.5742L16.4303 19.9347L14.9159 28.2687H17.3563L19.6169 20.1989C19.6783 19.9796 19.6426 19.7443 19.5191 19.5529ZM15.6171 19.8889C14.3854 18.3302 11.9867 18.3369 10.797 19.9205V28.2687H14.094L15.6171 19.8889ZM9.98929 19.9299C8.64319 18.286 6.11295 18.2657 4.77163 19.8866L6.67649 28.2687H9.98929V19.9299ZM3.69024 19.5245C3.04312 18.5059 1.55217 18.517 0.920104 19.545C0.804294 19.7334 0.776558 19.963 0.843594 20.1737L3.4189 28.2687H5.84908L3.95684 19.9457L3.69024 19.5245Z" fill="#26272A"/>
</svg>
