<svg width="52" height="52" viewBox="0 0 52 52" fill="none" xmlns="http://www.w3.org/2000/svg">
<path d="M27.1523 7.61334C27.8914 6.84494 29.0092 6.32988 30.5703 6.5528C30.8437 6.59185 31.0342 6.84486 30.9951 7.11823C30.956 7.39143 30.7029 7.58089 30.4297 7.54206C29.191 7.3651 28.3922 7.76688 27.873 8.3067C27.3321 8.86917 27.0671 9.61411 26.9951 10.1182L26.5 10.0469L26.0049 9.97663C26.0995 9.31409 26.435 8.3592 27.1523 7.61334Z" fill="#26272A"/>
<path d="M17.7414 17.3646C18.7263 15.3085 20.8038 14 23.0837 14H27.9164C30.1963 14 32.2738 15.3085 33.2587 17.3646C34.0659 19.0498 32.8376 21 30.9692 21H20.0309C18.1625 21 16.9342 19.0498 17.7414 17.3646Z" fill="#F3F3D4"/>
<path d="M27.916 14C30.1958 14 32.2739 15.3082 33.2588 17.3643C34.066 19.0494 32.8372 21 30.9688 21V20C32.1012 20 32.8456 18.8182 32.3565 17.7969C31.5378 16.0878 29.811 15 27.916 15H23.084C21.189 15 19.4622 16.0878 18.6436 17.7969C18.1544 18.8182 18.8988 20 20.0313 20V21L19.8574 20.9941C18.0876 20.878 16.9593 18.9966 17.7412 17.3643C18.6953 15.3726 20.6748 14.0827 22.8701 14.0039L23.084 14H27.916ZM30.9688 20V21H20.0313V20H30.9688Z" fill="#26272A"/>
<path d="M15 22.5474C15 20.8905 16.3431 19.5474 18 19.5474H33C34.6569 19.5474 36 20.8905 36 22.5474C36 24.2042 34.6569 25.5474 33 25.5474H18C16.3431 25.5474 15 24.2042 15 22.5474Z" fill="#F6D5A9"/>
<path d="M33 24.5474V25.5474H18V24.5474H33ZM35 22.5474C35 21.4428 34.1046 20.5474 33 20.5474H18C16.8954 20.5474 16 21.4428 16 22.5474C16 23.6519 16.8954 24.5474 18 24.5474V25.5474L17.8457 25.5435C16.2606 25.4631 15 24.1525 15 22.5474C15 20.8905 16.3431 19.5474 18 19.5474H33C34.6569 19.5474 36 20.8905 36 22.5474C36 24.1525 34.7394 25.4631 33.1543 25.5435L33 25.5474V24.5474C34.1046 24.5474 35 23.6519 35 22.5474Z" fill="#26272A"/>
<path d="M29 13.0474C29 14.9804 27.433 16.5474 25.5 16.5474C23.567 16.5474 22 14.9804 22 13.0474C22 11.1144 23.567 9.54736 25.5 9.54736C27.433 9.54736 29 11.1144 29 13.0474Z" fill="#F9B485"/>
<path d="M28 13.0474C28 11.6667 26.8807 10.5474 25.5 10.5474C24.1193 10.5474 23 11.6667 23 13.0474C23 14.4281 24.1193 15.5474 25.5 15.5474V16.5474C23.567 16.5474 22 14.9804 22 13.0474C22 11.1144 23.567 9.54736 25.5 9.54736C27.433 9.54736 29 11.1144 29 13.0474C29 14.9804 27.433 16.5474 25.5 16.5474V15.5474C26.8807 15.5474 28 14.4281 28 13.0474Z" fill="#26272A"/>
<path d="M13 28.5474C13 26.3382 14.7909 24.5474 17 24.5474H34C36.2091 24.5474 38 26.3382 38 28.5474C38 30.2042 36.6569 31.5474 35 31.5474H16C14.3431 31.5474 13 30.2042 13 28.5474Z" fill="#F9B485"/>
<path d="M35 30.5474V31.5474H16V30.5474H35ZM37 28.5474C37 26.8905 35.6569 25.5474 34 25.5474H17C15.3431 25.5474 14 26.8905 14 28.5474C14 29.6519 14.8954 30.5474 16 30.5474V31.5474C14.3949 31.5474 13.0842 30.2868 13.0039 28.7017L13 28.5474C13 26.4073 14.6806 24.6595 16.7939 24.5522L17 24.5474H34L34.2061 24.5522C36.3194 24.6595 38 26.4073 38 28.5474C38 30.2042 36.6569 31.5474 35 31.5474V30.5474C36.1046 30.5474 37 29.6519 37 28.5474Z" fill="#26272A"/>
<path d="M37.401 31.644L34.5 42H30.5H25.5H20.5H16.5L13.2002 31.6292C13.0731 31.2297 13.1262 30.7947 13.3458 30.4375C14.3219 28.8499 16.6236 28.833 17.6228 30.4062L18 31C19.8546 28.5 23.6194 28.5195 25.5 31C27.181 28.5703 30.7925 28.5888 32.5 31L32.8313 30.4699C33.8405 28.8552 36.1862 28.8382 37.2188 30.4381C37.4494 30.7954 37.5157 31.2345 37.401 31.644Z" fill="#AEEAE0"/>
<path d="M18.0606 30.1622C20.0837 28.0955 23.471 28.1331 25.4854 30.2159C27.3298 28.1865 30.5526 28.1861 32.4424 30.1514C33.6639 28.2798 36.4191 28.2774 37.6387 30.167C37.9469 30.6447 38.0362 31.232 37.8828 31.7793L34.8789 42.5H16.1348L16.0235 42.1514L12.7236 31.7813C12.5524 31.2432 12.6242 30.6569 12.9199 30.1758C14.0895 28.2735 16.8475 28.253 18.0449 30.1377L18.0606 30.1622ZM36.7988 30.709C35.9649 29.417 34.0699 29.4314 33.2549 30.7354L32.9746 31.1817L31.0996 41.5H34.1211L36.9199 31.5088C36.9959 31.2373 36.9517 30.9459 36.7988 30.709ZM31.9678 31.125C30.4428 29.1952 27.473 29.2035 26 31.1641V41.5H30.082L31.9678 31.125ZM25 31.1758C23.3334 29.1405 20.2007 29.1154 18.5401 31.1221L20.8985 41.5H25V31.1758ZM17.2012 30.6739C16.4 29.4128 14.5541 29.4265 13.7715 30.6993C13.6281 30.9325 13.5938 31.2167 13.6768 31.4776L16.8653 41.5H19.874L17.5313 31.1954L17.2012 30.6739Z" fill="#26272A"/>
</svg>
