<svg width="52" height="52" viewBox="0 0 52 52" fill="none" xmlns="http://www.w3.org/2000/svg">
<path d="M45.5 26.5C45.5 36.7173 36.7696 45 26 45C15.2304 45 6.5 36.7173 6.5 26.5C6.5 16.2827 15.2304 8 26 8C36.7696 8 45.5 16.2827 45.5 26.5Z" fill="white"/>
<path d="M34.5 26.9998C35.7 26.5998 35.3333 29.8331 35 31.4998C34 32.6665 32 34.4 32 32C32 29 33 27.4998 34.5 26.9998Z" fill="#7FB1A6"/>
<path d="M39.5 33C39.5 31.8 36.5 32.1667 35 32.5L32.5 34C32.5 34.1667 32.9 34.6 34.5 35C36.5 35.5 39.5 34.5 39.5 33Z" fill="#7FB1A6"/>
<path d="M39 32.9998C39 32.9634 38.9917 32.9501 38.9805 32.9363C38.9624 32.9141 38.9163 32.8729 38.8125 32.8289C38.5967 32.7374 38.2518 32.6825 37.8037 32.6746C36.95 32.6594 35.9097 32.8163 35.1816 32.9734L33.3379 34.0789C33.602 34.2078 34.0098 34.3616 34.6211 34.5144C35.5056 34.7355 36.6513 34.628 37.5742 34.282C38.0326 34.1101 38.4056 33.8902 38.6553 33.6531C38.9038 33.417 39 33.1956 39 32.9998ZM40 32.9998C40 33.5538 39.7211 34.0201 39.3447 34.3777C38.9695 34.7342 38.4671 35.0145 37.9258 35.2175C36.8488 35.6214 35.4943 35.7639 34.3789 35.4851C33.5525 35.2785 33.0009 35.055 32.6436 34.8416C32.4653 34.7351 32.3205 34.6225 32.2139 34.5027C32.1199 34.397 32 34.2225 32 33.9998C32 33.8427 32.0739 33.6962 32.1973 33.6023C32.138 33.5733 32.0793 33.5378 32.0225 33.4939C31.6216 33.1844 31.5 32.6248 31.5 31.9998C31.5 30.4502 31.7572 29.2348 32.2471 28.325C32.7439 27.4022 33.469 26.8161 34.3418 26.5252C34.5886 26.4429 34.8578 26.4373 35.1074 26.5652C35.3442 26.6866 35.4912 26.8917 35.583 27.0857C35.7604 27.4605 35.8166 27.9704 35.8252 28.4656C35.8428 29.4838 35.6599 30.749 35.4902 31.5974C35.4734 31.6814 35.4356 31.7599 35.3799 31.825C35.3489 31.8611 35.315 31.8963 35.2822 31.9334C36.0244 31.7904 36.9849 31.6597 37.8213 31.6746C38.3106 31.6833 38.8095 31.7411 39.2031 31.908C39.404 31.9931 39.604 32.1183 39.7559 32.3045C39.9144 32.4989 40 32.7363 40 32.9998ZM32.5 31.9998C32.5 32.5715 32.6273 32.6966 32.6338 32.7019H32.6328C32.6351 32.7025 32.6453 32.7046 32.667 32.7039C32.7159 32.7021 32.7995 32.6849 32.9209 32.6306C33.1659 32.5212 33.4661 32.308 33.7793 32.032C34.0503 31.7932 34.3112 31.5234 34.5322 31.2732C34.6874 30.4628 34.8402 29.3516 34.8252 28.4832C34.8171 28.0119 34.7605 27.6844 34.6797 27.5134C34.6713 27.4957 34.6615 27.4835 34.6553 27.4734C34.0292 27.6827 33.5056 28.0982 33.1279 28.7996C32.7429 29.5148 32.5 30.5495 32.5 31.9998Z" fill="#26272A"/>
<path d="M6 26.5C6 15.9821 14.9794 7.5 26 7.5C29.637 7.5 33.0493 8.42313 35.9902 10.0371C36.2323 10.17 36.3213 10.4737 36.1885 10.7158C36.0556 10.9577 35.7518 11.0458 35.5098 10.9131C32.7143 9.37893 29.4666 8.5 26 8.5C15.4815 8.5 7 16.5834 7 26.5C7 36.4166 15.4815 44.5 26 44.5C36.5185 44.5 45 36.4166 45 26.5C45 24.077 44.495 21.7666 43.5791 19.6572C43.4692 19.404 43.5848 19.1091 43.8379 18.999C44.0912 18.889 44.3861 19.0055 44.4961 19.2588C45.4652 21.4907 46 23.9364 46 26.5C46 37.0179 37.0206 45.5 26 45.5C14.9794 45.5 6 37.0179 6 26.5Z" fill="#26272A"/>
<path d="M34 19.5978L32.5 16.9997L37.5 15C37.5 14 37.5 12.9998 38 12.4998C38.5 11.9998 39.5 11.4997 40.5387 12.3475C41.3696 13.0257 41.1925 14.3982 41 14.9997C41.5 14.9997 43 15.9997 42.5 17.4997C42 18.9997 40 18.9997 39.5 18.4997C39.1 18.0997 38 17.9997 37.5 17.9997L34 19.5978Z" fill="white"/>
<path d="M33.539 19.0316L32.1706 16.6615C31.814 16.0438 30.8452 15.9585 30.1869 16.2332C27.6878 17.2758 25.0684 16.3568 22.3678 16.1571C21.5455 16.0963 20.774 16.107 20.0709 16.1641C17.6277 16.3626 15.0788 17.275 13.7445 19.3312C12.8267 20.7456 12.2318 22.6228 12.5 24.5C13 28 16.5 30.5 18.5 31C20.5 31.5 25 31 26.5 29.5C28 28 29.5 25.5 30.3865 23.9614C30.7799 23.2784 31.7079 22.5877 32.6499 22.0271C33.6858 21.4105 34.1418 20.0757 33.539 19.0316Z" fill="white"/>
<path d="M38.9763 11.4265C39.5657 11.3179 40.2243 11.4448 40.8552 11.9597C41.4198 12.4207 41.6115 13.0927 41.6521 13.6668C41.6769 14.0183 41.6463 14.3625 41.5945 14.657C41.6533 14.685 41.7109 14.7144 41.7654 14.7459C42.0142 14.8894 42.278 15.0967 42.5046 15.3611C42.9638 15.8968 43.2931 16.7017 42.9744 17.658C42.6515 18.6261 41.8428 19.0911 41.0984 19.24C40.726 19.3145 40.3502 19.3155 40.0222 19.2576C39.7097 19.2024 39.3747 19.0817 39.1462 18.8533C39.1144 18.8215 39.0412 18.7706 38.906 18.7176C38.7761 18.6666 38.6168 18.6244 38.4421 18.5906C38.1407 18.5323 37.8269 18.5076 37.6023 18.5017L34.3074 20.0066C34.3202 20.9859 33.7723 21.9411 32.906 22.4568C32.4487 22.729 32.003 23.0277 31.6296 23.3347C31.2513 23.646 30.9735 23.9445 30.8201 24.2107C29.9383 25.7413 28.4072 28.2993 26.8533 29.8533C26.4071 30.2994 25.7707 30.6431 25.075 30.9051C24.3721 31.1697 23.572 31.365 22.7664 31.4939C21.1693 31.7494 19.4696 31.7579 18.3787 31.4851C17.2789 31.2102 15.83 30.4095 14.5935 29.2381C13.3529 28.0627 12.2754 26.4655 12.0046 24.5701C11.7159 22.5476 12.3571 20.5499 13.325 19.0584C14.7822 16.813 17.5204 15.8697 20.03 15.6658C20.7574 15.6067 21.5556 15.5952 22.405 15.658C23.1 15.7094 23.786 15.8072 24.45 15.9051C25.1196 16.0038 25.7636 16.1022 26.4001 16.1629C27.6696 16.2839 28.854 16.2468 29.9939 15.7713C30.4115 15.597 30.9155 15.5395 31.3777 15.6199C31.8379 15.7 32.327 15.9327 32.6033 16.4109L32.6072 16.4177L37.0037 14.6599C37.0061 14.2681 37.0142 13.8618 37.0671 13.491C37.1347 13.0181 37.2811 12.5115 37.6462 12.1463C37.9472 11.8453 38.4094 11.5312 38.9763 11.4265ZM31.2058 16.6052C30.9301 16.5574 30.6201 16.5939 30.3796 16.6941C29.0205 17.2612 27.6455 17.2867 26.3054 17.159C25.6372 17.0953 24.9635 16.9915 24.3044 16.8943C23.6399 16.7963 22.9859 16.7045 22.3308 16.656C21.5357 16.5973 20.7898 16.6068 20.1111 16.6619C17.7346 16.855 15.3751 17.7367 14.1638 19.6033C13.2962 20.9404 12.7475 22.6977 12.9949 24.4295C13.2242 26.0337 14.1469 27.437 15.281 28.5115C16.4193 29.5899 17.7206 30.2892 18.6209 30.5144C19.5298 30.7417 21.0803 30.7501 22.6082 30.5056C23.365 30.3845 24.0972 30.2049 24.7224 29.9695C25.3545 29.7315 25.8425 29.45 26.1462 29.1463C27.5922 27.7003 29.0618 25.2584 29.9529 23.7117C30.1928 23.2952 30.5757 22.9071 30.9949 22.5623C31.4194 22.2131 31.9096 21.8859 32.3943 21.5974C33.2331 21.0982 33.5512 20.0517 33.1062 19.281L31.738 16.9109C31.6577 16.7718 31.4835 16.6536 31.2058 16.6052ZM40.2224 12.7342C39.8148 12.4015 39.4532 12.3555 39.158 12.4099C38.8405 12.4685 38.5522 12.6544 38.3533 12.8533C38.2188 12.9879 38.1148 13.231 38.0574 13.6326C38.0009 14.0281 37.9998 14.4905 37.9998 14.9998C37.9998 15.2042 37.8751 15.3877 37.6853 15.4636L33.2214 17.2488L34.2058 18.9529L37.2927 17.5447L37.3933 17.5105C37.4282 17.5029 37.4639 17.4998 37.4998 17.4998C37.7754 17.4998 38.2082 17.526 38.6326 17.6082C38.8452 17.6493 39.0678 17.7067 39.2722 17.7869C39.4714 17.8651 39.6852 17.9782 39.8533 18.1463C39.8748 18.1678 39.9778 18.2337 40.196 18.2722C40.3993 18.3081 40.6495 18.3101 40.9021 18.2595C41.4075 18.1585 41.8489 17.873 42.0261 17.3416C42.2073 16.798 42.0365 16.3518 41.7459 16.0125C41.5976 15.8395 41.4227 15.7029 41.2654 15.6121C41.0969 15.5149 41.0016 15.5006 40.9998 15.4998C40.8404 15.4997 40.6905 15.4233 40.5964 15.2947C40.5023 15.1658 40.4756 14.9994 40.5242 14.8474C40.6046 14.596 40.6843 14.166 40.6541 13.7371C40.6235 13.3052 40.4885 12.9514 40.2224 12.7342Z" fill="#26272A"/>
<path d="M33.539 19.0316L32.1706 16.6615C31.814 16.0438 30.8452 15.9585 30.1869 16.2332C27.6878 17.2758 25.0684 16.3568 22.3678 16.1571C21.5455 16.0963 20.774 16.107 20.0709 16.1641C17.6277 16.3626 15.0788 17.275 13.7445 19.3312C12.8267 20.7456 12.2318 22.6228 12.5 24.5C13 28 16.5 30.5 18.5 31C20.5 31.5 25 31 26.5 29.5C28 28 29.5 25.5 30.3865 23.9614C30.7799 23.2784 31.7079 22.5877 32.6499 22.0271C33.6858 21.4105 34.1418 20.0757 33.539 19.0316Z" fill="#FCA978"/>
<path d="M29.9939 15.7715C30.4115 15.5973 30.9155 15.5398 31.3777 15.6202C31.8379 15.7003 32.327 15.933 32.6033 16.4112L33.9724 18.7813C34.733 20.0986 34.139 21.7231 32.906 22.4571C32.4487 22.7293 32.003 23.0279 31.6296 23.335C31.2513 23.6463 30.9735 23.9447 30.8201 24.211C29.9383 25.7416 28.4072 28.2996 26.8533 29.8536C26.4071 30.2997 25.7706 30.6434 25.075 30.9053C24.3721 31.1699 23.572 31.3653 22.7664 31.4942C21.1693 31.7497 19.4696 31.7581 18.3787 31.4854C17.2789 31.2105 15.83 30.4097 14.5935 29.2383C13.3529 28.063 12.2754 26.4658 12.0046 24.5704C11.7159 22.5479 12.3571 20.5501 13.325 19.0586C14.7822 16.8133 17.5204 15.87 20.03 15.6661C20.7574 15.607 21.5556 15.5955 22.405 15.6583C23.1 15.7096 23.786 15.8074 24.45 15.9053C25.1196 16.004 25.7636 16.1025 26.4001 16.1631C27.6696 16.2842 28.854 16.247 29.9939 15.7715ZM31.2058 16.6055C30.9301 16.5576 30.6201 16.5941 30.3796 16.6944C29.0205 17.2614 27.6455 17.287 26.3054 17.1592C25.6372 17.0955 24.9635 16.9917 24.3044 16.8946C23.6399 16.7966 22.9859 16.7047 22.3308 16.6563C21.5357 16.5975 20.7898 16.607 20.1111 16.6622C17.7346 16.8553 15.3751 17.737 14.1638 19.6036C13.2962 20.9407 12.7475 22.698 12.9949 24.4297C13.2242 26.034 14.1469 27.4372 15.281 28.5118C16.4193 29.5901 17.7206 30.2895 18.6209 30.5147C19.5298 30.7419 21.0803 30.7503 22.6082 30.5059C23.365 30.3848 24.0972 30.2052 24.7224 29.9698C25.3545 29.7318 25.8425 29.4503 26.1462 29.1465C27.5922 27.7006 29.0618 25.2586 29.9529 23.712C30.1928 23.2955 30.5757 22.9073 30.9949 22.5626C31.4194 22.2134 31.9096 21.8862 32.3943 21.5977C33.2331 21.0985 33.5512 20.052 33.1062 19.2813L31.738 16.9112C31.6577 16.7721 31.4835 16.6538 31.2058 16.6055Z" fill="#26272A"/>
<path d="M19.4376 18.5039C19.7115 18.4697 19.9618 18.6637 19.9962 18.9375C20.0305 19.2115 19.8357 19.4619 19.5617 19.4961C18.9745 19.5696 18.1055 19.8613 17.4406 20.4785C16.7986 21.0747 16.3166 21.9995 16.4962 23.4375C16.5305 23.7115 16.3357 23.9619 16.0617 23.9961C15.788 24.0301 15.5385 23.8361 15.5041 23.5625C15.2838 21.8008 15.8853 20.5582 16.7599 19.7461C17.6113 18.9555 18.6916 18.5972 19.4376 18.5039Z" fill="#26272A"/>
<path d="M38.5045 28.0304C37.2189 27.6049 33.3263 31.7534 31.5407 33.8809C30.8265 34.5901 30.1479 35.6895 33.1477 34.413C36.8975 32.8174 40.1115 28.5623 38.5045 28.0304Z" fill="#7FB1A6"/>
<path d="M37.753 27.5976C38.0313 27.5058 38.354 27.4541 38.6612 27.5556C38.9968 27.6666 39.2486 27.8985 39.3624 28.2294C39.4663 28.5316 39.4356 28.8591 39.3555 29.1571C39.1951 29.7543 38.7775 30.4505 38.2247 31.1366C37.1102 32.5198 35.3056 34.0381 33.3438 34.873C32.5842 35.1962 32.0241 35.3843 31.6231 35.4599C31.4253 35.4971 31.2314 35.5132 31.0567 35.4862C30.8793 35.4588 30.6495 35.372 30.5167 35.1386C30.3922 34.9196 30.4254 34.6953 30.4639 34.5605C30.5047 34.418 30.5761 34.2841 30.6475 34.1728C30.788 33.9535 30.9845 33.7296 31.171 33.5429C32.0729 32.4695 33.5003 30.8934 34.8712 29.6308C35.5582 28.998 36.2473 28.4289 36.8585 28.0429C37.1633 27.8503 37.4665 27.6921 37.753 27.5976ZM38.3477 28.5048C38.3336 28.5001 38.2537 28.4851 38.0665 28.5468C37.8872 28.6059 37.6612 28.719 37.3926 28.8886C36.8565 29.2272 36.2189 29.749 35.5489 30.3661C34.2128 31.5967 32.8082 33.1484 31.9239 34.2021C31.9142 34.2136 31.9034 34.2246 31.8926 34.2353C31.8377 34.2898 31.787 34.3474 31.7374 34.4022C32.0273 34.319 32.4239 34.1779 32.9522 33.953C34.7401 33.1922 36.4172 31.7848 37.4454 30.5087C37.9637 29.8654 38.2821 29.2984 38.3897 28.8983C38.4434 28.6982 38.4302 28.5932 38.4171 28.5546C38.4137 28.5447 38.4137 28.5266 38.3477 28.5048Z" fill="#26272A"/>
<path d="M27.7321 33.4599L22.4522 40.0598C21.9234 40.7207 22.6156 41.6538 23.4015 41.3394L31.2808 38.1877C32.3578 37.7569 33.1556 36.826 33.4164 35.6957C33.9121 33.5477 31.9635 31.6342 29.8248 32.1688L29.6926 32.2019C28.919 32.3953 28.2303 32.8372 27.7321 33.4599Z" fill="#FCA978"/>
<path d="M29.7031 31.6837C32.2041 31.0584 34.483 33.2967 33.9033 35.8087C33.6055 37.0982 32.6956 38.1608 31.4668 38.6524L23.5869 41.8038C22.3241 42.3086 21.2119 40.8091 22.0615 39.7472L27.3418 33.1475C27.9083 32.4395 28.6915 31.9368 29.5713 31.7169L29.7031 31.6837ZM32.9287 35.5831C33.3402 33.7991 31.7225 32.2104 29.9463 32.6544L29.8134 32.6866C29.1461 32.8535 28.5517 33.2354 28.122 33.7725L22.8427 40.3722C22.6349 40.632 22.9068 40.9987 23.2158 40.8751L31.0947 37.7237C32.0197 37.3537 32.7047 36.5538 32.9287 35.5831Z" fill="#26272A"/>
<path d="M28.6465 37.1465C28.8417 36.9513 29.1582 36.9513 29.3535 37.1465L30.3535 38.1465C30.5488 38.3418 30.5488 38.6583 30.3535 38.8536C30.1582 39.0488 29.8417 39.0488 29.6465 38.8536L28.6465 37.8536C28.4512 37.6583 28.4512 37.3418 28.6465 37.1465ZM25.25 36.0674C25.4891 35.9294 25.7945 36.011 25.9326 36.25L26.5107 37.25C26.6487 37.4892 26.5662 37.7946 26.3271 37.9327C26.088 38.0707 25.7826 37.9891 25.6445 37.75L25.0674 36.75C24.9293 36.511 25.011 36.2055 25.25 36.0674ZM27.7226 33.084C27.9524 32.9309 28.2628 32.9929 28.416 33.2227L29.416 34.7227C29.5692 34.9525 29.5071 35.2629 29.2773 35.4161C29.0476 35.5692 28.7371 35.5072 28.584 35.2774L27.584 33.7774C27.4308 33.5476 27.4929 33.2372 27.7226 33.084Z" fill="#26272A"/>
<path d="M18 34.5C19.2 32.5 22.3333 34.1667 23.5 35C23.3333 35.6667 22.3 36.6 21.5 37C20.5 37.5 20 38 17.5 38C15.5 38 15.3333 36.6667 15.5 36C15.5 34.8 17.1667 34.5 18 34.5Z" fill="#7FB1A6"/>
<path d="M11.3418 30.5253C11.6038 30.438 11.8873 30.5797 11.9746 30.8417C12.2133 31.5577 12.6949 32.6646 13.3516 33.6317C13.8915 34.4268 14.4997 35.0531 15.1309 35.3515C15.348 34.8492 15.803 34.5292 16.2393 34.3407C16.7329 34.1275 17.2904 34.0353 17.7285 34.0087C18.0892 33.5305 18.5638 33.2519 19.0879 33.1298C19.6743 32.9932 20.3017 33.056 20.8838 33.202C22.0457 33.4936 23.1793 34.1557 23.791 34.5927C23.9581 34.712 24.0351 34.9218 23.9854 35.121C23.8663 35.5971 23.4776 36.0791 23.085 36.4589C22.6756 36.8548 22.1765 37.2207 21.7237 37.4472C21.2831 37.6674 20.8273 37.9598 20.2207 38.162C19.59 38.3722 18.782 38.4999 17.5 38.4999C16.3839 38.4999 15.6572 38.1202 15.2686 37.5224C15.0217 37.1426 14.9454 36.7237 14.9531 36.3612C13.9552 35.9884 13.1366 35.0963 12.5235 34.1933C11.8052 33.1354 11.2867 31.9421 11.0254 31.1581C10.9381 30.8961 11.0798 30.6126 11.3418 30.5253ZM20.6406 34.1727C20.1439 34.0481 19.6902 34.0172 19.3154 34.1044C18.9585 34.1875 18.6548 34.3801 18.4287 34.7567C18.3384 34.9073 18.1757 34.9999 18 34.9999C17.6264 34.9999 17.0744 35.0692 16.6358 35.2587C16.1949 35.4491 16 35.6917 16 35.9999C16 36.0407 15.9952 36.0814 15.9854 36.121C15.9246 36.364 15.9331 36.7107 16.1065 36.9774C16.2595 37.2129 16.6163 37.4999 17.5 37.4999C18.7181 37.4999 19.41 37.3776 19.9043 37.2128C20.4227 37.04 20.7169 36.8324 21.2764 36.5526C21.6235 36.3791 22.0407 36.0776 22.3897 35.7401C22.6016 35.5352 22.7607 35.3417 22.8672 35.1786C22.2885 34.811 21.4579 34.3778 20.6406 34.1727Z" fill="#26272A"/>
</svg>
