<svg width="33" height="31" viewBox="0 0 33 31" fill="none" xmlns="http://www.w3.org/2000/svg">
<path d="M31.9038 15.3461C31.9038 23.5985 24.8523 30.2884 16.1538 30.2884C7.45532 30.2884 0.403809 23.5985 0.403809 15.3461C0.403809 7.09371 7.45532 0.403809 16.1538 0.403809C24.8523 0.403809 31.9038 7.09371 31.9038 15.3461Z" fill="white"/>
<path d="M23.0192 15.7501C23.9885 15.427 23.6923 18.0385 23.4231 19.3847C22.6154 20.3271 21 21.7272 21 19.7887C21 17.3656 21.8077 16.1539 23.0192 15.7501Z" fill="#7FB1A6"/>
<path d="M27.0577 20.5964C27.0577 19.6272 24.6346 19.9233 23.4231 20.1926L21.4038 21.4041C21.4038 21.5387 21.7269 21.8887 23.0192 22.2118C24.6346 22.6156 27.0577 21.808 27.0577 20.5964Z" fill="#7FB1A6"/>
<path d="M26.6539 20.5963C26.6539 20.5669 26.6472 20.5561 26.6381 20.545C26.6235 20.5271 26.5863 20.4938 26.5024 20.4582C26.3282 20.3844 26.0495 20.34 25.6877 20.3336C24.9981 20.3213 24.1579 20.4481 23.5698 20.575L22.0806 21.4678C22.294 21.5719 22.6234 21.6962 23.1171 21.8196C23.8315 21.9982 24.7569 21.9114 25.5023 21.6319C25.8726 21.4931 26.1738 21.3154 26.3755 21.1239C26.5762 20.9333 26.6539 20.7544 26.6539 20.5963ZM27.4616 20.5963C27.4616 21.0438 27.2363 21.4204 26.9323 21.7092C26.6292 21.9971 26.2234 22.2236 25.7862 22.3875C24.9164 22.7137 23.8223 22.8288 22.9215 22.6037C22.254 22.4368 21.8085 22.2563 21.5198 22.0839C21.3759 21.9979 21.2589 21.907 21.1728 21.8102C21.0969 21.7248 21 21.5839 21 21.404C21 21.2771 21.0598 21.1588 21.1594 21.0829C21.1115 21.0595 21.0641 21.0308 21.0182 20.9954C20.6944 20.7454 20.5962 20.2934 20.5962 19.7886C20.5962 18.537 20.8039 17.5554 21.1996 16.8205C21.6009 16.0751 22.1865 15.6018 22.8915 15.3668C23.0909 15.3003 23.3083 15.2958 23.5099 15.3991C23.7011 15.4971 23.8198 15.6628 23.894 15.8195C24.0373 16.1223 24.0827 16.5341 24.0896 16.934C24.1038 17.7565 23.9561 18.7783 23.8191 19.4636C23.8055 19.5314 23.7749 19.5949 23.7299 19.6474C23.7049 19.6766 23.6775 19.705 23.6511 19.7349C24.2506 19.6194 25.0263 19.5139 25.7018 19.5259C26.0971 19.5329 26.5 19.5797 26.8179 19.7144C26.9802 19.7832 27.1418 19.8843 27.2644 20.0347C27.3924 20.1918 27.4616 20.3834 27.4616 20.5963ZM21.4039 19.7886C21.4039 20.2504 21.5067 20.3514 21.5119 20.3557H21.5112C21.513 20.3562 21.5213 20.3579 21.5388 20.3573C21.5782 20.3558 21.6458 20.3419 21.7438 20.2981C21.9417 20.2097 22.1842 20.0375 22.4372 19.8146C22.656 19.6218 22.8668 19.4038 23.0453 19.2017C23.1707 18.5471 23.294 17.6496 23.2819 16.9482C23.2754 16.5676 23.2297 16.3031 23.1644 16.165C23.1576 16.1507 23.1497 16.1408 23.1447 16.1327C22.639 16.3017 22.2161 16.6373 21.9111 17.2038C21.6001 17.7815 21.4039 18.6172 21.4039 19.7886Z" fill="#26272A"/>
<path d="M0 15.3462C0 6.85094 7.25262 0 16.1538 0C19.0914 0 21.8475 0.745606 24.2229 2.0492C24.4184 2.15651 24.4903 2.40187 24.383 2.59739C24.2757 2.79278 24.0303 2.8639 23.8348 2.75672C21.577 1.5176 18.9538 0.807692 16.1538 0.807692C7.6581 0.807692 0.807692 7.33655 0.807692 15.3462C0.807692 23.3558 7.6581 29.8846 16.1538 29.8846C24.6496 29.8846 31.5 23.3558 31.5 15.3462C31.5 13.3891 31.0921 11.523 30.3524 9.8193C30.2636 9.6148 30.357 9.3766 30.5614 9.28767C30.766 9.19884 31.0042 9.2929 31.093 9.49748C31.8758 11.3002 32.3077 13.2756 32.3077 15.3462C32.3077 23.8414 25.0551 30.6923 16.1538 30.6923C7.25262 30.6923 0 23.8414 0 15.3462Z" fill="#26272A"/>
<path d="M22.6154 9.77141L21.4039 7.67291L25.4423 6.0578C25.4423 5.25011 25.4423 4.44225 25.8462 4.03841C26.25 3.63456 27.0577 3.23061 27.8966 3.91536C28.5678 4.46317 28.4247 5.57172 28.2693 6.05753C28.6731 6.05753 29.8846 6.86522 29.4808 8.07676C29.077 9.2883 27.4616 9.2883 27.0577 8.88445C26.7346 8.56137 25.8462 8.48061 25.4423 8.48061L22.6154 9.77141Z" fill="white"/>
<path d="M22.2431 9.31411L21.1378 7.39981C20.8498 6.9009 20.0672 6.83201 19.5356 7.05383C17.5171 7.89598 15.4014 7.15365 13.2202 6.99241C12.556 6.94331 11.9329 6.95191 11.365 6.99804C9.39165 7.15833 7.33291 7.89532 6.25516 9.55609C5.51384 10.6984 5.0334 12.2147 5.25 13.7309C5.65385 16.5578 8.48077 18.577 10.0962 18.9809C11.7115 19.3847 15.3462 18.9809 16.5577 17.7693C17.7692 16.5578 18.9808 14.5386 19.6968 13.2958C20.0146 12.7442 20.7641 12.1863 21.5249 11.7335C22.3616 11.2355 22.7299 10.1574 22.2431 9.31411Z" fill="white"/>
<path d="M26.6347 3.17158C27.1108 3.0838 27.6427 3.18632 28.1523 3.60225C28.6083 3.97454 28.7631 4.5173 28.7959 4.981C28.816 5.26496 28.7912 5.54292 28.7494 5.78081C28.7969 5.80338 28.8434 5.82718 28.8874 5.85258C29.0884 5.96854 29.3014 6.13598 29.4845 6.3495C29.8554 6.78217 30.1214 7.43227 29.8639 8.20467C29.6031 8.98664 28.9499 9.36217 28.3487 9.48247C28.0479 9.54262 27.7443 9.54341 27.4795 9.49667C27.227 9.45209 26.9564 9.35461 26.7719 9.17012C26.7462 9.14442 26.6871 9.10333 26.5779 9.06048C26.473 9.01934 26.3443 8.98524 26.2032 8.95794C25.9598 8.91084 25.7063 8.89094 25.5249 8.88616L22.8636 10.1016C22.874 10.8926 22.4315 11.6641 21.7318 12.0806C21.3624 12.3005 21.0024 12.5417 20.7008 12.7897C20.3953 13.0411 20.1709 13.2822 20.047 13.4973C19.3347 14.7335 18.0981 16.7996 16.843 18.0547C16.4827 18.415 15.9686 18.6927 15.4067 18.9042C14.839 19.118 14.1927 19.2757 13.542 19.3799C12.2521 19.5862 10.8793 19.593 9.99813 19.3728C9.10989 19.1507 7.9396 18.5039 6.94089 17.5578C5.93884 16.6085 5.06858 15.3185 4.84988 13.7875C4.61663 12.154 5.13453 10.5404 5.91629 9.33576C7.09332 7.52217 9.30496 6.76031 11.3319 6.5956C11.9194 6.54787 12.5641 6.53857 13.2502 6.58929C13.8115 6.6308 14.3656 6.70979 14.9019 6.78885C15.4427 6.86858 15.9629 6.94806 16.477 6.99708C17.5023 7.09482 18.459 7.06484 19.3797 6.68078C19.717 6.54005 20.124 6.49358 20.4973 6.55853C20.869 6.62321 21.2641 6.81118 21.4872 7.19742L21.4904 7.20295L25.0414 5.78317C25.0434 5.46669 25.0499 5.13856 25.0927 4.83903C25.1473 4.45711 25.2655 4.04791 25.5604 3.7529C25.8035 3.50979 26.1768 3.2561 26.6347 3.17158ZM20.3585 7.35439C20.1358 7.3157 19.8855 7.34519 19.6912 7.42617C18.5935 7.88416 17.4829 7.9048 16.4005 7.80162C15.8608 7.75016 15.3167 7.66634 14.7843 7.58786C14.2476 7.50873 13.7193 7.43451 13.1902 7.3954C12.548 7.34793 11.9456 7.3556 11.3974 7.40014C9.47796 7.55609 7.57221 8.26823 6.59383 9.77589C5.89304 10.8558 5.44986 12.2752 5.64968 13.6739C5.83488 14.9697 6.58015 16.1031 7.49618 16.971C8.41556 17.842 9.46664 18.4068 10.1937 18.5887C10.9279 18.7723 12.1803 18.779 13.4143 18.5816C14.0256 18.4838 14.6169 18.3387 15.1219 18.1486C15.6325 17.9564 16.0266 17.729 16.2719 17.4837C17.4398 16.3158 18.6268 14.3434 19.3465 13.0942C19.5403 12.7578 19.8496 12.4443 20.1881 12.1658C20.531 11.8838 20.927 11.6195 21.3184 11.3865C21.9959 10.9833 22.2528 10.1381 21.8934 9.5156L20.7884 7.60127C20.7235 7.48893 20.5828 7.39341 20.3585 7.35439ZM27.6412 4.22774C27.3119 3.95906 27.0198 3.9219 26.7814 3.96587C26.525 4.01318 26.2921 4.16331 26.1315 4.32396C26.0228 4.43271 25.9388 4.629 25.8925 4.9534C25.8468 5.27284 25.8459 5.64635 25.8459 6.05766C25.8459 6.22281 25.7453 6.371 25.592 6.43232L21.9865 7.87418L22.7816 9.25057L25.2749 8.11318L25.3561 8.08557C25.3843 8.07943 25.4131 8.07691 25.4421 8.07689C25.6647 8.07689 26.0143 8.09811 26.3571 8.16445C26.5288 8.19769 26.7086 8.24399 26.8737 8.30879C27.0345 8.37195 27.2072 8.46328 27.343 8.59905C27.3604 8.61644 27.4436 8.66966 27.6199 8.7008C27.7841 8.72978 27.9861 8.73136 28.1901 8.69055C28.5983 8.6089 28.9549 8.37832 29.098 7.94911C29.2443 7.51011 29.1064 7.14964 28.8716 6.87561C28.7519 6.73587 28.6106 6.62553 28.4836 6.55222C28.3475 6.47376 28.2705 6.4622 28.269 6.46151C28.1403 6.46144 28.0193 6.39976 27.9433 6.29587C27.8673 6.19177 27.8457 6.05739 27.8849 5.93462C27.9499 5.73153 28.0143 5.38422 27.9898 5.03779C27.9651 4.68898 27.8561 4.40318 27.6412 4.22774Z" fill="#26272A"/>
<path d="M22.2431 9.31398L21.1378 7.39968C20.8498 6.90077 20.0672 6.83188 19.5356 7.0537C17.5171 7.89585 15.4014 7.15352 13.2202 6.99228C12.556 6.94318 11.9329 6.95178 11.365 6.99791C9.39165 7.1582 7.33291 7.89519 6.25517 9.55596C5.51384 10.6983 5.0334 12.2145 5.25 13.7308C5.65385 16.5577 8.48077 18.5769 10.0962 18.9808C11.7115 19.3846 15.3462 18.9808 16.5577 17.7692C17.7692 16.5577 18.9808 14.5384 19.6968 13.2957C20.0146 12.7441 20.7641 12.1862 21.5249 11.7334C22.3616 11.2354 22.7299 10.1572 22.2431 9.31398Z" fill="#FCA978"/>
<path d="M19.3797 6.68088C19.717 6.54014 20.124 6.49367 20.4973 6.55862C20.869 6.6233 21.2641 6.81127 21.4872 7.19752L22.5931 9.11184C23.2074 10.1758 22.7277 11.4879 21.7318 12.0807C21.3624 12.3006 21.0024 12.5418 20.7008 12.7898C20.3953 13.0412 20.1709 13.2823 20.047 13.4974C19.3347 14.7336 18.0981 16.7997 16.843 18.0548C16.4827 18.4151 15.9686 18.6927 15.4067 18.9043C14.839 19.118 14.1927 19.2758 13.542 19.3799C12.2521 19.5863 10.8793 19.5931 9.99813 19.3728C9.10989 19.1508 7.9396 18.504 6.94089 17.5579C5.93884 16.6086 5.06858 15.3185 4.84988 13.7876C4.61663 12.1541 5.13453 10.5405 5.91629 9.33585C7.09332 7.52227 9.30496 6.7604 11.3319 6.59569C11.9194 6.54797 12.5641 6.53866 13.2502 6.58938C13.8115 6.63089 14.3656 6.70988 14.9019 6.78894C15.4427 6.86867 15.9629 6.94815 16.477 6.99717C17.5023 7.09491 18.459 7.06493 19.3797 6.68088ZM20.3585 7.35448C20.1358 7.3158 19.8855 7.34528 19.6912 7.42626C18.5935 7.88425 17.4829 7.90489 16.4005 7.80171C15.8608 7.75026 15.3167 7.66643 14.7843 7.58795C14.2476 7.50882 13.7193 7.43461 13.1902 7.3955C12.548 7.34802 11.9456 7.3557 11.3974 7.40023C9.47796 7.55618 7.57221 8.26833 6.59383 9.77598C5.89304 10.8559 5.44986 12.2753 5.64968 13.674C5.83488 14.9698 6.58015 16.1032 7.49618 16.9711C8.41556 17.8421 9.46664 18.4069 10.1937 18.5888C10.9279 18.7724 12.1803 18.7791 13.4143 18.5817C14.0256 18.4839 14.6169 18.3388 15.1219 18.1487C15.6325 17.9565 16.0266 17.7291 16.2719 17.4838C17.4398 16.3159 18.6268 14.3435 19.3465 13.0943C19.5403 12.7579 19.8496 12.4444 20.1881 12.1659C20.531 11.8839 20.927 11.6196 21.3184 11.3866C21.9959 10.9834 22.2528 10.1382 21.8934 9.51569L20.7884 7.60136C20.7235 7.48902 20.5828 7.3935 20.3585 7.35448Z" fill="#26272A"/>
<path d="M10.8536 8.88793C11.0747 8.86028 11.2769 9.01702 11.3047 9.23814C11.3324 9.45945 11.175 9.66165 10.9537 9.68931C10.4795 9.74865 9.77759 9.98427 9.24054 10.4828C8.72199 10.9643 8.33272 11.7113 8.4778 12.8728C8.50547 13.0941 8.34812 13.2963 8.1268 13.3239C7.90573 13.3514 7.70427 13.1947 7.67642 12.9737C7.49856 11.5508 7.98437 10.5472 8.69077 9.89123C9.37846 9.25269 10.251 8.9633 10.8536 8.88793Z" fill="#26272A"/>
<path d="M26.2537 16.5822C25.2153 16.2385 22.0713 19.5892 20.6291 21.3076C20.0522 21.8804 19.5041 22.7684 21.9271 21.7374C24.9557 20.4486 27.5517 17.0117 26.2537 16.5822Z" fill="#7FB1A6"/>
<path d="M25.6466 16.2326C25.8714 16.1585 26.1321 16.1167 26.3802 16.1987C26.6513 16.2884 26.8546 16.4757 26.9465 16.7429C27.0304 16.9871 27.0056 17.2515 26.941 17.4923C26.8115 17.9746 26.4741 18.5369 26.0276 19.0911C25.1275 20.2083 23.6699 21.4346 22.0854 22.1089C21.4719 22.3699 21.0195 22.5219 20.6956 22.5829C20.5358 22.613 20.3792 22.626 20.2381 22.6042C20.0948 22.5821 19.9092 22.5119 19.8019 22.3234C19.7014 22.1465 19.7282 21.9654 19.7593 21.8565C19.7922 21.7414 19.85 21.6333 19.9076 21.5433C20.0211 21.3663 20.1798 21.1854 20.3304 21.0346C21.0589 20.1676 22.2118 18.8946 23.319 17.8748C23.8739 17.3637 24.4305 16.9041 24.9241 16.5923C25.1704 16.4368 25.4152 16.309 25.6466 16.2326ZM26.127 16.9654C26.1156 16.9616 26.051 16.9494 25.8998 16.9993C25.755 17.0471 25.5725 17.1383 25.3556 17.2754C24.9226 17.5489 24.4076 17.9703 23.8664 18.4687C22.7872 19.4627 21.6528 20.716 20.9385 21.567C20.9307 21.5764 20.9219 21.5852 20.9133 21.5938C20.8689 21.6379 20.8279 21.6844 20.7879 21.7287C21.0221 21.6614 21.3423 21.5475 21.7691 21.3659C23.2131 20.7514 24.5677 19.6146 25.3982 18.5839C25.8168 18.0643 26.074 17.6063 26.1609 17.2832C26.2043 17.1216 26.1937 17.0368 26.183 17.0056C26.1803 16.9976 26.1803 16.983 26.127 16.9654Z" fill="#26272A"/>
<path d="M17.5529 20.9676L13.2884 26.2983C12.8613 26.8321 13.4204 27.5857 14.0551 27.3318L20.4192 24.7862C21.289 24.4383 21.9334 23.6864 22.1441 22.7735C22.5445 21.0385 20.9706 19.493 19.2432 19.9248L19.1364 19.9515C18.5116 20.1077 17.9553 20.4647 17.5529 20.9676Z" fill="#FCA978"/>
<path d="M19.1448 19.5329C21.1648 19.0279 23.0055 20.8358 22.5372 22.8646C22.2968 23.9062 21.5618 24.7645 20.5693 25.1615L14.2048 27.7069C13.1849 28.1146 12.2865 26.9035 12.9727 26.0457L17.2376 20.7153C17.6951 20.1433 18.3277 19.7374 19.0383 19.5597L19.1448 19.5329ZM21.7501 22.6824C22.0825 21.2415 20.7758 19.9584 19.3412 20.3169L19.2339 20.343C18.6949 20.4778 18.2148 20.7862 17.8678 21.2201L13.6037 26.5505C13.4358 26.7604 13.6555 27.0566 13.905 26.9567L20.2688 24.4114C21.0159 24.1126 21.5691 23.4665 21.7501 22.6824Z" fill="#26272A"/>
<path d="M18.2913 23.9453C18.4491 23.7876 18.7047 23.7876 18.8624 23.9453L19.6701 24.753C19.8278 24.9107 19.8278 25.1664 19.6701 25.3241C19.5124 25.4818 19.2567 25.4818 19.099 25.3241L18.2913 24.5164C18.1336 24.3587 18.1336 24.103 18.2913 23.9453ZM15.548 23.0737C15.7411 22.9622 15.9878 23.0282 16.0994 23.2212L16.5663 24.0289C16.6777 24.2221 16.6111 24.4688 16.418 24.5803C16.2249 24.6918 15.9782 24.6259 15.8667 24.4328L15.4005 23.6251C15.289 23.432 15.355 23.1853 15.548 23.0737ZM17.5452 20.6641C17.7308 20.5403 17.9815 20.5905 18.1052 20.7761L18.9129 21.9876C19.0366 22.1732 18.9865 22.4239 18.8009 22.5476C18.6153 22.6713 18.3646 22.6212 18.2409 22.4356L17.4332 21.2241C17.3095 21.0385 17.3596 20.7878 17.5452 20.6641Z" fill="#26272A"/>
<path d="M9.69226 21.8079C10.6615 20.1925 13.1923 21.5386 14.1346 22.2117C14 22.7502 13.1653 23.504 12.5192 23.8271C11.7115 24.231 11.3076 24.6348 9.28841 24.6348C7.67303 24.6348 7.53841 23.5579 7.67303 23.0194C7.67303 22.0502 9.01918 21.8079 9.69226 21.8079Z" fill="#7FB1A6"/>
<path d="M4.31459 18.5975C4.52618 18.5269 4.75517 18.6414 4.8257 18.853C5.01846 19.4313 5.40747 20.3254 5.93786 21.1065C6.37395 21.7487 6.86516 22.2546 7.37498 22.4955C7.55031 22.0899 7.91783 21.8314 8.27023 21.6792C8.66896 21.5069 9.11921 21.4325 9.47309 21.411C9.76437 21.0248 10.1478 20.7997 10.571 20.7011C11.0447 20.5908 11.5514 20.6415 12.0216 20.7595C12.96 20.995 13.8756 21.5297 14.3697 21.8827C14.5046 21.9791 14.5668 22.1485 14.5267 22.3094C14.4305 22.694 14.1166 23.0833 13.7994 23.39C13.4688 23.7098 13.0657 24.0053 12.6999 24.1882C12.3441 24.3661 11.976 24.6023 11.486 24.7656C10.9766 24.9354 10.3239 25.0385 9.28852 25.0385C8.387 25.0385 7.80012 24.7318 7.4862 24.249C7.2868 23.9422 7.22517 23.6039 7.23143 23.3111C6.42541 23.01 5.76422 22.2894 5.26899 21.5601C4.68886 20.7057 4.2701 19.7418 4.05903 19.1086C3.9885 18.897 4.10299 18.668 4.31459 18.5975ZM11.8252 21.5435C11.424 21.4428 11.0575 21.4178 10.7548 21.4883C10.4665 21.5555 10.2212 21.711 10.0386 22.0152C9.96565 22.1368 9.83422 22.2116 9.69236 22.2116C9.39062 22.2116 8.94477 22.2676 8.59046 22.4206C8.23438 22.5744 8.07698 22.7704 8.07698 23.0193C8.07698 23.0522 8.07313 23.0851 8.06515 23.1171C8.01609 23.3133 8.02296 23.5934 8.16296 23.8088C8.28655 23.999 8.57471 24.2308 9.28852 24.2308C10.2723 24.2308 10.8312 24.132 11.2305 23.9989C11.6492 23.8594 11.8868 23.6917 12.3387 23.4657C12.619 23.3255 12.956 23.082 13.2378 22.8095C13.409 22.644 13.5375 22.4876 13.6236 22.3559C13.1562 22.0591 12.4853 21.7092 11.8252 21.5435Z" fill="#26272A"/>
</svg>
