<svg width="52" height="52" viewBox="0 0 52 52" fill="none" xmlns="http://www.w3.org/2000/svg">
<path d="M46 26.5C46 36.165 39.3333 44 26 44C12.1538 44 6 36.165 6 26.5C6 16.835 14.9543 9 26 9C37.0457 9 46 16.835 46 26.5Z" fill="#F6F6F6"/>
<path d="M45 26.5C45 17.5086 36.623 10 26 10C15.377 10 7 17.5086 7 26.5C7 31.12 8.46732 35.2147 11.5039 38.1562C14.5406 41.0977 19.2648 43 26 43V44C12.1538 44 6 36.165 6 26.5C6 16.835 14.9543 9 26 9C37.0457 9 46 16.835 46 26.5C46 36.165 39.3333 44 26 44V43C32.4698 43 37.2031 41.1026 40.3115 38.1494C43.4188 35.1972 45 31.0983 45 26.5Z" fill="#26272A"/>
<path d="M13.9999 34.4723H38.314C40.5944 34.4723 42.418 32.5489 41.78 30.3595C40.7028 26.6632 38.2781 22.3775 33.4999 20.9722C24.9999 18.4722 20.4999 23.4722 19.4999 24.9722C18.4999 26.4722 16.4999 32.4722 15.4999 32.9722C14.4999 33.4722 11.9999 33.4722 11.9999 30.4722C11.9999 27.4722 19.9999 18.9722 22.9999 18.9722C25.9999 18.9722 32.4999 17.4725 37.9999 21.9723C36.4999 19.3057 30.9999 14.4723 20.9999 16.4723C12.9216 18.088 10.7166 24.6162 10.1675 30.4777C9.96142 32.6772 11.7908 34.4723 13.9999 34.4723Z" fill="#FACE99"/>
<path d="M11.5 30.4727C11.5 29.9988 11.6545 29.464 11.8906 28.918C12.13 28.3644 12.4695 27.7603 12.8779 27.1358C13.695 25.8861 14.8097 24.5192 16.0126 23.253C17.2154 21.9869 18.52 20.808 19.7236 19.9415C20.3251 19.5083 20.9108 19.1461 21.4531 18.8907C21.9876 18.6389 22.5186 18.4727 23 18.4727C25.3706 18.4727 30.4608 17.4138 35.375 19.7286C32.7505 17.5678 28.0652 15.5694 21.0976 16.9629C17.1941 17.7437 14.7398 19.698 13.1826 22.1504C11.6135 24.6218 10.9362 27.6298 10.665 30.5245C10.4897 32.3962 12.0497 33.9727 14 33.9727H38.3144C40.3481 33.9725 41.8216 32.2897 41.2998 30.4991C40.242 26.8697 37.8959 22.7867 33.3593 21.4522C25.1462 19.0366 20.8458 23.8553 19.916 25.25C19.694 25.5831 19.398 26.1993 19.0517 26.9864C18.7088 27.7658 18.3389 28.6596 17.9599 29.544C17.5848 30.4193 17.2031 31.2791 16.8496 31.9541C16.6731 32.2911 16.497 32.595 16.3261 32.836C16.1687 33.058 15.9674 33.297 15.7236 33.419C15.1125 33.7245 14.0851 33.8722 13.1826 33.4961C12.718 33.3025 12.288 32.9698 11.9785 32.4571C11.6711 31.948 11.5 31.2912 11.5 30.4727ZM12.5 30.4727C12.5 31.1537 12.6414 31.6216 12.8339 31.9405C13.0244 32.2559 13.282 32.4544 13.5673 32.5733C14.1647 32.8222 14.8873 32.7198 15.2763 32.5254C15.2704 32.5284 15.2924 32.5175 15.3408 32.4678C15.387 32.4203 15.4431 32.3508 15.5097 32.2569C15.6435 32.0683 15.7957 31.8094 15.9628 31.4903C16.2967 30.8529 16.6652 30.0249 17.04 29.1504C17.4109 28.2849 17.7912 27.366 18.1357 26.5831C18.4768 25.8079 18.806 25.1114 19.0839 24.6944C20.1545 23.0888 24.8547 17.9084 33.6406 20.4922C38.6599 21.9685 41.163 26.4566 42.2597 30.2198C43.0139 32.8076 40.8412 34.9725 38.3144 34.9727H14C11.532 34.9727 9.43312 32.958 9.66988 30.4307C9.94783 27.4641 10.6479 24.2771 12.3378 21.6153C14.0399 18.9346 16.7279 16.8173 20.9023 15.9825C31.1144 13.9402 36.8294 18.8723 38.4355 21.7276L37.6835 22.3594C32.3638 18.007 26.149 19.4727 23 19.4727C22.7314 19.4727 22.356 19.5712 21.8789 19.7959C21.4095 20.0171 20.8778 20.3424 20.3076 20.753C19.1674 21.5739 17.9095 22.7076 16.7373 23.9415C15.5652 25.1752 14.4924 26.4958 13.7158 27.6836C13.3273 28.2777 13.0184 28.8301 12.8085 29.3155C12.5954 29.8084 12.5 30.1967 12.5 30.4727Z" fill="#26272A"/>
<path d="M19.4472 19.8899C20.6472 17.8899 22.6139 19.7232 23.4472 20.8899C21.7805 24.0565 18.0472 29.8896 16.4472 27.8896C14.4472 25.3896 14.9472 23.3896 15.4472 22.3896C15.9472 21.3896 17.9472 22.3899 19.4472 19.8899Z" fill="#AFCAB8"/>
<path d="M20.3409 18.5525C20.8566 18.4243 21.3629 18.5437 21.7989 18.7508C22.6561 19.1578 23.417 19.9868 23.8546 20.5994L24.0333 20.8494L23.8897 21.1228C23.0488 22.7206 21.6796 25.0056 20.3057 26.6482C19.6259 27.461 18.9054 28.1646 18.214 28.5271C17.8642 28.7105 17.4803 28.8286 17.0899 28.7898C16.6812 28.7491 16.3299 28.5434 16.0567 28.2019C15.0006 26.8817 14.5809 25.6612 14.5108 24.6101C14.4411 23.5636 14.7206 22.7248 15.0001 22.1658C15.2136 21.7387 15.5867 21.5536 15.9259 21.45C16.0924 21.3991 16.2712 21.3617 16.4376 21.3279C16.6105 21.2927 16.7772 21.2601 16.9513 21.2166C17.6059 21.0529 18.3529 20.7422 19.0186 19.6326C19.3683 19.0498 19.8145 18.6835 20.3409 18.5525ZM21.3702 19.6541C21.0605 19.507 20.7985 19.4693 20.5821 19.5232C20.3762 19.5745 20.1264 19.73 19.8761 20.1472C19.042 21.5372 18.0387 21.976 17.1934 22.1873C16.9926 22.2375 16.7997 22.2752 16.6368 22.3084C16.4675 22.3428 16.3335 22.372 16.2188 22.407C15.9956 22.4752 15.931 22.5403 15.8946 22.6131C15.6741 23.054 15.4536 23.7153 15.5089 24.5437C15.5638 25.3677 15.8941 26.3971 16.838 27.5769C16.9647 27.7354 17.0804 27.7849 17.1886 27.7957C17.315 27.8083 17.4981 27.7738 17.7491 27.6424C18.2596 27.3747 18.8775 26.7977 19.5391 26.0066C20.7725 24.5319 22.0232 22.4797 22.8546 20.9353C22.46 20.4408 21.9133 19.9119 21.3702 19.6541Z" fill="#26272A"/>
<path d="M29 16.9722C27.4 16.9722 26.6667 18.6388 26.5 19.4722C28.6667 19.3055 33 18.7722 33 17.9722C33 16.9722 32 16.4722 31 16.4722C30 16.4722 31 16.9722 29 16.9722Z" fill="#F1E5B9"/>
<path d="M31 15.9722C31.5742 15.9722 32.1769 16.1142 32.6523 16.4312C33.1426 16.758 33.5 17.2782 33.5 17.9722C33.5 18.313 33.2718 18.5388 33.1084 18.6606C32.9306 18.7931 32.7024 18.8996 32.4648 18.9888C31.9836 19.1693 31.3398 19.322 30.6543 19.4507C29.276 19.7094 27.6315 19.8861 26.5381 19.9702L25.8799 20.021L26.0098 19.3745C26.1049 18.8987 26.3563 18.1973 26.8174 17.603C27.2855 16.9998 28.0015 16.4722 29 16.4722C29.486 16.4722 29.7547 16.441 29.9033 16.4067C29.9745 16.3903 30.0075 16.3753 30.0186 16.3696C30.0214 16.3681 30.0229 16.3671 30.0234 16.3667C30.0361 16.3539 30.0247 16.3637 30.0771 16.3032C30.1199 16.2539 30.1876 16.1831 30.29 16.1216C30.4877 16.0031 30.7257 15.9722 31 15.9722ZM31 16.9722C30.8984 16.9722 30.8401 16.9781 30.8105 16.9829C30.8075 16.9866 30.8046 16.9919 30.7998 16.9976C30.7828 17.0178 30.7586 17.0456 30.7285 17.0757C30.4424 17.3618 29.9895 17.4722 29 17.4722C28.3986 17.4722 27.9476 17.7779 27.6074 18.2163C27.4385 18.4341 27.3042 18.6756 27.2031 18.9077C28.1989 18.8129 29.421 18.6653 30.4707 18.4683C31.1392 18.3428 31.7144 18.2019 32.1133 18.0522C32.3004 17.9821 32.4222 17.9176 32.4932 17.8687C32.4642 17.6136 32.3272 17.4162 32.0977 17.2632C31.8231 17.0801 31.4258 16.9722 31 16.9722Z" fill="#26272A"/>
<path d="M17.3816 24.5555C16.028 25.4085 16.2961 27.2095 16.5994 28.0034C18.3436 26.7073 21.7254 23.9458 21.2989 23.269C20.7657 22.4229 19.6531 22.5331 18.8071 23.0662C17.9611 23.5993 19.0737 23.4892 17.3816 24.5555Z" fill="#F1E5B9"/>
<path d="M18.5405 22.6433C19.0263 22.3372 19.6119 22.136 20.1831 22.1507C20.7721 22.1658 21.3519 22.4154 21.7218 23.0025C21.9035 23.2908 21.8309 23.6036 21.7576 23.7937C21.6778 24.0006 21.5415 24.2124 21.3881 24.4145C21.0772 24.8237 20.6139 25.2962 20.1026 25.7705C19.0744 26.7242 17.7773 27.7505 16.8971 28.4046L16.3673 28.7985L16.1326 28.1823C15.9594 27.729 15.7981 27.0015 15.8714 26.253C15.9458 25.4931 16.2702 24.665 17.115 24.1326C17.5262 23.8735 17.7369 23.7039 17.8444 23.5956C17.8958 23.5438 17.9158 23.5135 17.9221 23.5028C17.9237 23.5 17.9244 23.4983 17.9246 23.4977C17.9285 23.4801 17.9241 23.4945 17.9362 23.4154C17.9461 23.3509 17.9656 23.2549 18.0195 23.1482C18.1236 22.9426 18.3084 22.7896 18.5405 22.6433ZM19.0736 23.4893C18.9877 23.5435 18.9415 23.5796 18.9191 23.5994C18.9185 23.6041 18.9188 23.6102 18.9178 23.6175C18.9142 23.6437 18.9086 23.6801 18.8991 23.7216C18.8096 24.1162 18.4853 24.4511 17.6482 24.9786C17.1393 25.2993 16.9208 25.7983 16.8667 26.3506C16.8399 26.6249 16.855 26.9009 16.8933 27.1511C17.6852 26.54 18.6404 25.7636 19.4235 25.0373C19.9221 24.5747 20.3336 24.1488 20.5913 23.8096C20.7122 23.6504 20.7809 23.5309 20.8148 23.4517C20.6543 23.2514 20.4333 23.1574 20.1574 23.1503C19.8275 23.1419 19.4339 23.2623 19.0736 23.4893Z" fill="#26272A"/>
<path d="M40.8002 24.8077C42.3357 26.263 40.9447 27.2324 40 27.5473L34 21.5474C34 20.5474 34.2 18.4473 35 18.0473C35.6773 17.7087 36.6413 19.2575 37.2245 20.4485C37.4004 20.8078 37.7594 21.0473 38.1594 21.0473H39.1327C39.6304 21.0473 40.0523 21.4133 40.1227 21.9059L40.444 24.1553C40.48 24.4071 40.6156 24.6327 40.8002 24.8077Z" fill="#FCA978"/>
<path d="M34.7764 17.6008C35.1571 17.4104 35.5337 17.5194 35.8076 17.6828C36.0766 17.8433 36.3222 18.0956 36.5361 18.3605C36.9692 18.897 37.376 19.6204 37.6738 20.2287C37.7718 20.4288 37.9634 20.547 38.1592 20.5471H39.1328C39.8791 20.5471 40.5115 21.0964 40.6172 21.8352L40.9395 24.0852C40.9564 24.2029 41.0239 24.3302 41.1445 24.4445C41.5717 24.8494 41.8419 25.2644 41.9424 25.6906C42.046 26.1307 41.9556 26.5297 41.7607 26.8596C41.3953 27.4782 40.6718 27.8505 40.1582 28.0217L39.8652 28.1193L39.6465 27.9016L33.5 21.7551V21.548C33.5 21.0236 33.5517 20.2114 33.7109 19.468C33.7904 19.0971 33.9009 18.7225 34.0566 18.4035C34.2076 18.0943 34.4329 17.7726 34.7764 17.6008ZM35.21 18.5022C35.1518 18.5374 35.0581 18.6311 34.9551 18.842C34.8485 19.0603 34.7589 19.3482 34.6885 19.677C34.5665 20.2462 34.5167 20.8774 34.5049 21.3449L40.1211 26.9611C40.453 26.809 40.7567 26.5924 40.8994 26.3508C40.9784 26.2171 41.0066 26.0809 40.9688 25.9201C40.9276 25.7456 40.7964 25.4936 40.4561 25.1711C40.2076 24.9356 40.0043 24.6116 39.9492 24.2258L39.6279 21.9768C39.5927 21.7305 39.3816 21.5471 39.1328 21.5471H38.1592C37.555 21.547 37.0292 21.1865 36.7754 20.6682C36.4901 20.0856 36.1227 19.4394 35.7588 18.9885C35.5742 18.7598 35.4153 18.614 35.2949 18.5422C35.251 18.516 35.2242 18.5057 35.21 18.5022Z" fill="#26272A"/>
<path d="M14.5124 24.1496C15.5957 23.3006 16.4684 26.2721 16.7693 27.864V32.1092C16.017 32.6398 14.1512 33.4888 12.7068 32.6398C10.9012 31.5786 12.2554 30.5173 12.2775 27.6304C12.2996 24.7435 13.1582 25.2109 14.5124 24.1496Z" fill="#FCA978"/>
<path d="M14.9198 23.4998C15.1827 23.5062 15.4072 23.6149 15.5848 23.7517C15.9226 24.012 16.1846 24.4461 16.3876 24.8797C16.8043 25.7701 17.1068 26.9578 17.2606 27.7713L17.2694 27.8172V32.368L17.0575 32.5174C16.6365 32.8143 15.9236 33.1896 15.1112 33.3787C14.2992 33.5677 13.3265 33.5837 12.454 33.0711C11.951 32.7755 11.5998 32.4401 11.4159 32.0135C11.234 31.5914 11.2495 31.1563 11.3124 30.7439C11.4448 29.8754 11.7664 29.0299 11.7772 27.6267C11.7884 26.1612 12.0068 25.3736 12.5468 24.8475C12.7962 24.6045 13.0922 24.4421 13.3524 24.2976C13.624 24.1469 13.9 23.9939 14.204 23.7557C14.41 23.5942 14.6523 23.4934 14.9198 23.4998ZM14.8964 24.4998C14.907 24.4999 14.885 24.4928 14.8212 24.5428C14.4481 24.8351 14.1087 25.0223 13.8378 25.1726C13.5556 25.3292 13.3813 25.4296 13.244 25.5633C13.0109 25.7905 12.7881 26.2131 12.7772 27.6336C12.7659 29.117 12.4005 30.2464 12.3016 30.8953C12.249 31.2413 12.2627 31.4515 12.3339 31.617C12.4032 31.7778 12.5603 31.9739 12.9598 32.2088C13.5317 32.5449 14.2147 32.561 14.8846 32.4051C15.4295 32.2782 15.925 32.0447 16.2694 31.8367V27.9148C16.1202 27.1397 15.8403 26.0706 15.4813 25.3035C15.2931 24.9013 15.1144 24.6516 14.9745 24.5437C14.9274 24.5075 14.9024 24.5008 14.8964 24.4998Z" fill="#26272A"/>
<path d="M30.5 19.042L29 18.0418C27.4 17.6418 27 20.2085 27 21.5418L36 22.042L34.2253 19.5575C33.7814 18.936 33.0224 18.6216 32.2691 18.7471L30.5 19.042Z" fill="#AFCAB8"/>
<path d="M28.9189 17.5177L29.1211 17.5567L29.2051 17.5782L29.2773 17.6261L30.6123 18.5157L32.1865 18.254C33.128 18.0971 34.0769 18.4901 34.6318 19.2667L37.0127 22.5987L26.5 22.0147V21.5421C26.5 20.8435 26.6032 19.7982 26.9355 18.9581C27.1013 18.5391 27.3428 18.1216 27.7041 17.839C28.041 17.5756 28.4539 17.4525 28.9189 17.5177ZM28.8027 18.5118C28.5924 18.4764 28.4457 18.5281 28.3203 18.6261C28.1569 18.7538 27.9994 18.9871 27.8652 19.3263C27.6589 19.8479 27.5539 20.5049 27.5166 21.0694L34.9873 21.4845L33.8184 19.8477C33.4855 19.382 32.9163 19.1463 32.3516 19.2403L30.582 19.5352L30.3867 19.5675L28.8027 18.5118Z" fill="#26272A"/>
<path d="M14.7925 29.1692L13.133 29.8738C11.9202 30.9915 13.8459 32.735 14.9603 33.467L20.3195 26.2192L17.2685 26.3385C16.5054 26.3683 15.8259 26.8301 15.5173 27.5287L14.7925 29.1692Z" fill="#AFCAB8"/>
<path d="M12.6503 29.6537L12.7939 29.5061L12.858 29.4477L12.9376 29.4136L14.4141 28.7863L15.0596 27.3268C15.4454 26.4537 16.2948 25.8764 17.2486 25.839L21.3406 25.6784L15.0809 34.1444L14.6859 33.8849C14.102 33.5014 13.285 32.8412 12.7653 32.1022C12.5061 31.7336 12.2897 31.3026 12.2518 30.8454C12.2167 30.4192 12.3405 30.0066 12.6503 29.6537ZM13.4174 30.2966C13.2723 30.4529 13.235 30.6039 13.248 30.7625C13.2651 30.9693 13.3736 31.229 13.5834 31.5273C13.9061 31.9861 14.3976 32.4346 14.849 32.7757L19.2974 26.7595L17.2876 26.8379C16.7155 26.8604 16.2061 27.2068 15.9746 27.7304L15.2496 29.3713L15.1693 29.5522L13.4174 30.2966Z" fill="#26272A"/>
<path d="M28 21C28 22.6569 26.433 24 24.5 24C22.567 24 21 22.6569 21 21C21 19.3431 22.567 18 24.5 18C26.433 18 28 19.3431 28 21Z" fill="#FCA978"/>
<path d="M27 21C27 20.0345 26.0309 19 24.5 19C22.9691 19 22 20.0345 22 21C22 21.9655 22.9691 23 24.5 23V24C22.567 24 21 22.6569 21 21C21 19.3431 22.567 18 24.5 18C26.433 18 28 19.3431 28 21C28 22.6569 26.433 24 24.5 24V23C26.0309 23 27 21.9655 27 21Z" fill="#26272A"/>
<path d="M13.5 33.0812V34.3733C13.7827 34.4373 14.0772 34.4711 14.3802 34.4711H38.314C40.5944 34.4711 42.418 32.5477 41.78 30.3583C40.7028 26.662 38.2782 22.3763 33.5 20.971C25 18.471 20.6223 23.5602 19.5 24.971C15.5 29.9988 16.5 32.471 15.5 32.971C15.0275 33.2072 14.2203 33.3318 13.5 33.0812Z" fill="#FACE99"/>
<path d="M13.5673 32.572C14.1647 32.8209 14.8873 32.7185 15.2763 32.5241C15.3217 32.5014 15.3987 32.4448 15.5038 32.0788C15.5541 31.9036 15.6017 31.6964 15.664 31.4313C15.725 31.1717 15.7973 30.87 15.8945 30.5309C16.2871 29.1605 17.0666 27.2262 19.1083 24.6599C19.6874 23.932 21.1176 22.2404 23.5116 21.0563C25.9188 19.8658 29.2674 19.2057 33.6405 20.4919C38.6598 21.9681 41.163 26.4553 42.2597 30.2184C43.0138 32.8063 40.8412 34.9712 38.3144 34.9714H14.3798C12.923 34.9713 11.6413 34.2765 10.8232 33.2135L11 32.5L11.5 33C12.1346 33.8588 13.2248 33.9713 14.3798 33.9714H38.3144C40.3479 33.9712 41.8213 32.2892 41.2997 30.4987C40.242 26.8692 37.8961 22.7854 33.3593 21.4509C29.2326 20.2371 26.1422 20.8711 23.955 21.9528C21.7551 23.0409 20.435 24.5988 19.8915 25.2819C17.9337 27.7429 17.2128 29.5588 16.8554 30.8063C16.7651 31.1216 16.6967 31.4043 16.6366 31.6599C16.5779 31.9099 16.5238 32.1498 16.4648 32.3552C16.3512 32.7504 16.1781 33.1914 15.7236 33.4186C15.1125 33.7241 14.085 33.8708 13.1825 33.4948C12.8749 33.3666 13.2597 32.4438 13.5673 32.572Z" fill="#26272A"/>
<path d="M34 24.9712C34 25.2473 33.7761 25.4712 33.5 25.4712C33.2239 25.4712 33 25.2473 33 24.9712C33 24.695 33.2239 24.4712 33.5 24.4712C33.7761 24.4712 34 24.695 34 24.9712Z" fill="#E0B17B"/>
<path d="M31 27.9712C31 28.2473 30.7761 28.4712 30.5 28.4712C30.2239 28.4712 30 28.2473 30 27.9712C30 27.695 30.2239 27.4712 30.5 27.4712C30.7761 27.4712 31 27.695 31 27.9712Z" fill="#E0B17B"/>
<path d="M37 30.9712C37 31.2473 36.7761 31.4712 36.5 31.4712C36.2239 31.4712 36 31.2473 36 30.9712C36 30.695 36.2239 30.4712 36.5 30.4712C36.7761 30.4712 37 30.695 37 30.9712Z" fill="#E0B17B"/>
<path d="M23 30.9712C23 31.2473 22.7761 31.4712 22.5 31.4712C22.2239 31.4712 22 31.2473 22 30.9712C22 30.695 22.2239 30.4712 22.5 30.4712C22.7761 30.4712 23 30.695 23 30.9712Z" fill="#E0B17B"/>
<path d="M27 23.9712C27 24.2473 26.7761 24.4712 26.5 24.4712C26.2239 24.4712 26 24.2473 26 23.9712C26 23.695 26.2239 23.4712 26.5 23.4712C26.7761 23.4712 27 23.695 27 23.9712Z" fill="#E0B17B"/>
<path d="M37.1687 36.9717C37.3755 36.7887 37.6908 36.8079 37.8738 37.0146C38.0567 37.2212 38.0381 37.5366 37.8318 37.7197C35.1564 40.0885 31.364 41.5 26.4998 41.5C21.6632 41.5 17.9607 40.2042 15.3348 38.0029C15.1232 37.8255 15.0959 37.5104 15.2732 37.2988C15.4506 37.0873 15.7657 37.0591 15.9773 37.2363C18.3852 39.2547 21.8431 40.5 26.4998 40.5C31.1667 40.5 34.7086 39.1499 37.1687 36.9717ZM26.4998 11.5C30.159 11.5 33.5354 12.6518 36.2342 14.5938C36.4583 14.755 36.5087 15.0679 36.3474 15.292C36.1862 15.5159 35.8742 15.5672 35.6502 15.4062C33.12 13.5856 29.9475 12.5 26.4998 12.5C23.0521 12.5 19.8795 13.5856 17.3494 15.4062C17.1253 15.5671 16.8133 15.5159 16.6521 15.292C16.4908 15.0679 16.5413 14.755 16.7654 14.5938C19.4642 12.6517 22.8406 11.5 26.4998 11.5Z" fill="#26272A"/>
</svg>
