<svg width="33" height="29" viewBox="0 0 33 29" fill="none" xmlns="http://www.w3.org/2000/svg">
<path d="M32.3077 14.1346C32.3077 21.9409 26.9231 28.2692 16.1538 28.2692C4.97042 28.2692 0 21.9409 0 14.1346C0 6.32828 7.23232 0 16.1538 0C25.0754 0 32.3077 6.32828 32.3077 14.1346Z" fill="#F6F6F6"/>
<path d="M31.5 14.1346C31.5 6.87229 24.734 0.807692 16.1538 0.807692C7.57372 0.807693 0.807692 6.8723 0.807692 14.1346C0.807692 17.8661 1.99283 21.1734 4.44546 23.5493C6.89817 25.9251 10.7139 27.4615 16.1538 27.4615V28.2692C4.97041 28.2692 0 21.9409 0 14.1346C0 6.32828 7.23232 4.32579e-07 16.1538 0C25.0754 0 32.3077 6.32828 32.3077 14.1346C32.3077 21.9409 26.9231 28.2692 16.1538 28.2692V27.4615C21.3794 27.4615 25.2025 25.929 27.7132 23.5438C30.2229 21.1593 31.5 17.8486 31.5 14.1346Z" fill="#26272A"/>
<path d="M6.46153 20.5738H26.0998C27.9417 20.5738 29.4146 19.0202 28.8993 17.2519C28.0292 14.2664 26.0709 10.8049 22.2115 9.66979C15.3462 7.65056 11.7115 11.689 10.9039 12.9006C10.0962 14.1121 8.48077 18.9583 7.67308 19.3621C6.86539 19.7659 4.84616 19.7659 4.84616 17.3429C4.84616 14.9198 11.3077 8.05441 13.7308 8.05441C16.1539 8.05441 21.4039 6.84313 25.8462 10.4776C24.6346 8.32377 20.1923 4.41992 12.1154 6.03531C5.59054 7.34027 3.80961 12.6131 3.36609 17.3473C3.19966 19.1239 4.67722 20.5738 6.46153 20.5738Z" fill="#FACE99"/>
<path d="M4.44236 17.3434C4.44236 16.9606 4.56721 16.5287 4.75786 16.0877C4.9512 15.6406 5.22547 15.1527 5.5553 14.6482C6.21526 13.6389 7.1156 12.5349 8.08722 11.5121C9.05868 10.4895 10.1124 9.53736 11.0845 8.83742C11.5704 8.48761 12.0434 8.19502 12.4814 7.98871C12.9131 7.78539 13.342 7.65113 13.7308 7.65112C15.6456 7.65112 19.7569 6.79584 23.726 8.66547C21.6062 6.9202 17.822 5.30616 12.1943 6.4317C9.04148 7.06235 7.05916 8.64083 5.80139 10.6216C4.53402 12.6177 3.98699 15.0473 3.76796 17.3852C3.62638 18.897 4.88635 20.1704 6.46159 20.1704H26.1002C27.7427 20.1702 28.9329 18.811 28.5114 17.3647C27.6571 14.4333 25.7621 11.1355 22.098 10.0576C15.4643 8.10655 11.9909 11.9986 11.2399 13.1251C11.0606 13.3942 10.8216 13.8919 10.5419 14.5276C10.2649 15.1571 9.96614 15.879 9.66002 16.5933C9.35703 17.3003 9.04878 17.9948 8.76319 18.54C8.62063 18.8121 8.47845 19.0576 8.34042 19.2522C8.21324 19.4316 8.05067 19.6246 7.85375 19.7231C7.36021 19.9699 6.53033 20.0892 5.80139 19.7854C5.42616 19.6291 5.07887 19.3603 4.82885 18.9462C4.58058 18.535 4.44241 18.0045 4.44236 17.3434ZM5.25005 17.3434C5.2501 17.8935 5.36432 18.2714 5.5198 18.5289C5.67361 18.7837 5.88167 18.944 6.11216 19.0401C6.59466 19.2411 7.17833 19.1584 7.4925 19.0014C7.48773 19.0038 7.50549 18.995 7.54456 18.9549C7.58188 18.9165 7.62721 18.8604 7.68101 18.7845C7.78903 18.6322 7.91197 18.4231 8.047 18.1653C8.31664 17.6505 8.61429 16.9818 8.917 16.2754C9.2166 15.5764 9.52373 14.8342 9.80199 14.2018C10.0775 13.5757 10.3434 13.0131 10.5679 12.6763C11.4326 11.3795 15.2288 7.19534 22.3252 9.28228C26.3793 10.4747 28.401 14.0997 29.2868 17.1391C29.8959 19.2293 28.1411 20.9779 26.1002 20.978H6.46159C4.46824 20.978 2.77299 19.3508 2.96422 17.3095C3.18872 14.9134 3.75415 12.3393 5.11911 10.1894C6.49387 8.02416 8.66494 6.3141 12.0366 5.63978C20.2848 3.99024 24.9008 7.97388 26.198 10.2801L25.5906 10.7904C21.2939 7.27501 16.2743 8.45882 13.7308 8.45882C13.5139 8.45882 13.2107 8.53836 12.8253 8.7199C12.4462 8.8985 12.0167 9.1613 11.5562 9.49288C10.6353 10.1559 9.61927 11.0716 8.67249 12.0682C7.72585 13.0647 6.85934 14.1313 6.23206 15.0907C5.91831 15.5706 5.66878 16.0167 5.4993 16.4087C5.32718 16.8069 5.25005 17.1205 5.25005 17.3434Z" fill="#26272A"/>
<path d="M10.8613 8.79589C11.8305 7.18051 13.419 8.66128 14.092 9.60358C12.7459 12.1612 9.7305 16.8726 8.43819 15.2572C6.82281 13.238 7.22665 11.6226 7.6305 10.8149C8.03434 10.0072 9.64973 10.8151 10.8613 8.79589Z" fill="#AFCAB8"/>
<path d="M11.5831 7.71566C11.9997 7.61207 12.4086 7.70858 12.7608 7.87578C13.4531 8.20456 14.0677 8.87411 14.4211 9.3689L14.5654 9.57082L14.4495 9.79168C13.7703 11.0822 12.6644 12.9277 11.5547 14.2545C11.0056 14.911 10.4237 15.4792 9.86521 15.7721C9.58274 15.9202 9.27261 16.0156 8.95734 15.9842C8.6272 15.9514 8.34351 15.7853 8.12283 15.5094C7.2698 14.4431 6.93082 13.4573 6.87422 12.6083C6.81788 11.7631 7.04364 11.0856 7.26939 10.6341C7.44188 10.2891 7.74316 10.1396 8.01714 10.0559C8.15166 10.0148 8.29605 9.98466 8.43045 9.95732C8.57013 9.92891 8.70476 9.90253 8.84534 9.8674C9.37409 9.73522 9.9774 9.48423 10.5151 8.58803C10.7976 8.11732 11.158 7.82149 11.5831 7.71566ZM12.4145 8.60538C12.1644 8.48661 11.9527 8.45618 11.778 8.49969C11.6116 8.54109 11.4099 8.66673 11.2077 9.0037C10.534 10.1264 9.72363 10.4808 9.04095 10.6514C8.87873 10.692 8.72294 10.7225 8.59136 10.7492C8.45457 10.7771 8.34634 10.8006 8.25377 10.8289C8.07349 10.884 8.0213 10.9365 7.9919 10.9953C7.81381 11.3515 7.63573 11.8856 7.68034 12.5547C7.72472 13.2202 7.99151 14.0517 8.75384 15.0046C8.85623 15.1326 8.94965 15.1726 9.03701 15.1813C9.1391 15.1914 9.28705 15.1637 9.48976 15.0575C9.90208 14.8413 10.4012 14.3752 10.9356 13.7363C11.9318 12.5452 12.9419 10.8876 13.6134 9.64024C13.2947 9.24085 12.8531 8.81366 12.4145 8.60538Z" fill="#26272A"/>
<path d="M18.5768 6.43949C17.2845 6.43949 16.6922 7.78564 16.5576 8.45872C18.3076 8.32411 21.8076 7.89334 21.8076 7.24718C21.8076 6.43949 20.9999 6.03564 20.1922 6.03564C19.3845 6.03564 20.1922 6.43949 18.5768 6.43949Z" fill="#F1E5B9"/>
<path d="M20.1924 5.63135C20.6561 5.63135 21.143 5.74607 21.5269 6.00207C21.9229 6.26604 22.2116 6.68623 22.2116 7.24673C22.2116 7.52201 22.0273 7.70443 21.8953 7.80281C21.7517 7.9098 21.5674 7.99585 21.3755 8.06783C20.9868 8.21365 20.4668 8.337 19.9131 8.44092C18.7999 8.64985 17.4716 8.79261 16.5885 8.86054L16.0569 8.90156L16.1618 8.37939C16.2387 7.99507 16.4417 7.42853 16.8141 6.94858C17.1922 6.46135 17.7705 6.03519 18.577 6.03519C18.9695 6.03519 19.1865 6.01005 19.3066 5.98235C19.3641 5.96907 19.3908 5.95698 19.3997 5.95237C19.402 5.95117 19.4032 5.9503 19.4036 5.95001C19.4138 5.93966 19.4046 5.9476 19.447 5.89874C19.4815 5.85891 19.5362 5.80168 19.6189 5.75203C19.7786 5.65632 19.9708 5.63135 20.1924 5.63135ZM20.1924 6.43904C20.1103 6.43904 20.0632 6.44383 20.0393 6.44772C20.0369 6.45067 20.0345 6.45497 20.0307 6.45955C20.0169 6.47588 19.9974 6.49832 19.9731 6.52265C19.742 6.75374 19.3762 6.84289 18.577 6.84289C18.0912 6.84289 17.727 7.08981 17.4522 7.44392C17.3157 7.6198 17.2073 7.81491 17.1257 8.00237C17.93 7.92578 18.917 7.80656 19.7649 7.64742C20.3048 7.54607 20.7694 7.43227 21.0916 7.31141C21.2427 7.25472 21.3411 7.20265 21.3984 7.16312C21.375 6.95713 21.2644 6.79771 21.0789 6.67409C20.8572 6.52624 20.5363 6.43904 20.1924 6.43904Z" fill="#26272A"/>
<path d="M9.19292 12.5644C8.09959 13.2534 8.31617 14.7081 8.56113 15.3493C9.96991 14.3024 12.7013 12.072 12.3568 11.5253C11.9262 10.842 11.0276 10.9309 10.3443 11.3616C9.66094 11.7922 10.5596 11.7032 9.19292 12.5644Z" fill="#F1E5B9"/>
<path d="M10.1289 11.0198C10.5212 10.7726 10.9942 10.6101 11.4556 10.6219C11.9313 10.6342 12.3996 10.8357 12.6984 11.3099C12.8452 11.5428 12.7865 11.7954 12.7273 11.949C12.6628 12.1161 12.5528 12.2872 12.4288 12.4504C12.1777 12.7809 11.8035 13.1626 11.3905 13.5456C10.5601 14.3159 9.51243 15.1449 8.80151 15.6732L8.37361 15.9913L8.18398 15.4936C8.04411 15.1275 7.91381 14.5399 7.97302 13.9353C8.03313 13.3215 8.29516 12.6527 8.9775 12.2227C9.30959 12.0134 9.47979 11.8765 9.56659 11.789C9.60817 11.7471 9.62428 11.7227 9.62935 11.714C9.63067 11.7118 9.6312 11.7104 9.63143 11.7099C9.63458 11.6957 9.63102 11.7073 9.6408 11.6434C9.64876 11.5913 9.66451 11.5138 9.70805 11.4276C9.79211 11.2615 9.94139 11.1379 10.1289 11.0198ZM10.5595 11.7031C10.49 11.7469 10.4527 11.7761 10.4346 11.7921C10.4341 11.7959 10.4344 11.8008 10.4336 11.8067C10.4307 11.8278 10.4261 11.8572 10.4185 11.8908C10.3462 12.2095 10.0843 12.4799 9.40811 12.906C8.99713 13.165 8.82065 13.5681 8.77696 14.0142C8.75528 14.2357 8.76752 14.4587 8.79842 14.6607C9.43807 14.1671 10.2095 13.5401 10.842 12.9534C11.2448 12.5798 11.5772 12.2358 11.7853 11.9618C11.8829 11.8333 11.9384 11.7368 11.9658 11.6728C11.8362 11.511 11.6576 11.4351 11.4348 11.4293C11.1684 11.4225 10.8504 11.5198 10.5595 11.7031Z" fill="#26272A"/>
<path d="M28.108 12.7681C29.3482 13.9435 28.2247 14.7265 27.4616 14.9808L22.6155 10.1347C22.6155 9.32701 22.777 7.63084 23.4232 7.30776C23.9702 7.03424 24.7488 8.28519 25.2199 9.24719C25.3619 9.53737 25.6519 9.73084 25.975 9.73084H26.7611C27.1631 9.73084 27.5039 10.0264 27.5607 10.4243L27.8202 12.2411C27.8493 12.4445 27.9588 12.6267 28.108 12.7681Z" fill="#FCA978"/>
<path d="M23.2423 6.94713C23.5498 6.79339 23.854 6.88138 24.0753 7.01338C24.2926 7.14304 24.4909 7.34676 24.6637 7.56078C25.0135 7.9941 25.342 8.57835 25.5826 9.06968C25.6617 9.23126 25.8165 9.32675 25.9746 9.32682H26.761C27.3638 9.32686 27.8746 9.77048 27.9599 10.3672L28.2202 12.1845C28.2339 12.2796 28.2884 12.3824 28.3859 12.4748C28.7309 12.8018 28.9491 13.137 29.0303 13.4812C29.114 13.8367 29.0409 14.1589 28.8836 14.4254C28.5884 14.925 28.004 15.2257 27.5892 15.364L27.3526 15.4429L27.1759 15.267L22.2114 10.3025V10.1353C22.2114 9.71168 22.2531 9.05572 22.3818 8.45524C22.446 8.15567 22.5353 7.85312 22.661 7.59549C22.783 7.34574 22.965 7.08588 23.2423 6.94713ZM23.5925 7.67515C23.5456 7.70362 23.4699 7.77927 23.3867 7.94964C23.3006 8.126 23.2283 8.35853 23.1713 8.62403C23.0728 9.08381 23.0326 9.59358 23.0231 9.97124L27.5592 14.5074C27.8273 14.3845 28.0726 14.2096 28.1879 14.0144C28.2517 13.9064 28.2745 13.7965 28.2439 13.6666C28.2106 13.5256 28.1046 13.3221 27.8298 13.0616C27.6291 12.8714 27.4649 12.6097 27.4204 12.2981L27.1609 10.4816C27.1325 10.2827 26.9619 10.1346 26.761 10.1345H25.9746C25.4867 10.1344 25.0619 9.8433 24.8569 9.42463C24.6265 8.95408 24.3298 8.43214 24.0358 8.06796C23.8868 7.88327 23.7584 7.76551 23.6612 7.70749C23.6257 7.68631 23.604 7.678 23.5925 7.67515Z" fill="#26272A"/>
<path d="M6.87547 12.2365C7.75046 11.5508 8.45532 13.9509 8.69837 15.2366V18.6655C8.09074 19.094 6.5838 19.7798 5.41711 19.094C3.95875 18.2369 5.05256 17.3797 5.07042 15.048C5.08827 12.7162 5.78172 13.0937 6.87547 12.2365Z" fill="#FCA978"/>
<path d="M7.20435 11.7117C7.41673 11.7168 7.598 11.8046 7.7415 11.9152C8.01431 12.1254 8.22595 12.476 8.38986 12.8262C8.72643 13.5454 8.9708 14.5046 9.09501 15.1617L9.10211 15.1988V18.8744L8.93095 18.9951C8.5909 19.2349 8.01515 19.538 7.35895 19.6908C6.70312 19.8434 5.91743 19.8563 5.21273 19.4423C4.80648 19.2035 4.52284 18.9326 4.37427 18.5881C4.22738 18.2472 4.23991 17.8958 4.29066 17.5627C4.39759 16.8612 4.65739 16.1783 4.66611 15.045C4.67518 13.8612 4.85153 13.2251 5.28766 12.8001C5.48911 12.6039 5.72818 12.4727 5.93839 12.3561C6.15774 12.2343 6.38064 12.1107 6.62619 11.9183C6.79259 11.7879 6.98828 11.7065 7.20435 11.7117ZM7.18542 12.5193C7.19403 12.5194 7.17623 12.5137 7.12469 12.5541C6.82336 12.7902 6.54924 12.9414 6.3304 13.0628C6.10248 13.1893 5.96168 13.2703 5.85083 13.3783C5.66251 13.5619 5.48263 13.9032 5.47381 15.0505C5.46463 16.2486 5.16955 17.1608 5.08968 17.685C5.04713 17.9644 5.05822 18.1342 5.11571 18.2678C5.17168 18.3978 5.29864 18.5562 5.6213 18.7458C6.08318 19.0173 6.63486 19.0303 7.17595 18.9044C7.61607 18.8019 8.01625 18.6133 8.29442 18.4453V15.2776C8.17386 14.6515 7.94787 13.788 7.65789 13.1685C7.50583 12.8436 7.36155 12.6419 7.24852 12.5548C7.21053 12.5256 7.19027 12.5202 7.18542 12.5193Z" fill="#26272A"/>
<path d="M19.7883 8.11114L18.5768 7.30332C17.2845 6.98025 16.9614 9.05332 16.9614 10.1302L24.2307 10.5342L22.7973 8.52748C22.4387 8.02554 21.8257 7.77159 21.2172 7.873L19.7883 8.11114Z" fill="#AFCAB8"/>
<path d="M18.5114 6.8796L18.6747 6.91115L18.7425 6.9285L18.8009 6.96715L19.8791 7.68572L21.1506 7.47433C21.911 7.34759 22.6774 7.66502 23.1256 8.29227L25.0486 10.9835L16.5576 10.5119V10.1301C16.5576 9.56584 16.641 8.72158 16.9094 8.04303C17.0433 7.70459 17.2384 7.36737 17.5302 7.1391C17.8023 6.92635 18.1358 6.82696 18.5114 6.8796ZM18.4175 7.68256C18.2476 7.65398 18.1291 7.6957 18.0279 7.77485C17.8959 7.87805 17.7687 8.06648 17.6603 8.34039C17.4937 8.76168 17.4088 9.29238 17.3787 9.74833L23.4127 10.0836L22.4686 8.76159C22.1997 8.38537 21.74 8.19505 21.2839 8.27098L19.8546 8.50918L19.6969 8.53521L18.4175 7.68256Z" fill="#26272A"/>
<path d="M7.10164 16.2907L5.7613 16.8598C4.78178 17.7626 6.33711 19.1707 7.23722 19.762L11.5658 13.908L9.10155 14.0044C8.48519 14.0284 7.93634 14.4014 7.68706 14.9657L7.10164 16.2907Z" fill="#AFCAB8"/>
<path d="M5.37135 16.6818L5.48736 16.5626L5.5391 16.5155L5.60345 16.4879L6.796 15.9812L7.31738 14.8024C7.62895 14.0972 8.31504 13.6309 9.08537 13.6007L12.3905 13.4709L7.33459 20.3089L7.01551 20.0993C6.5439 19.7895 5.88402 19.2564 5.46425 18.6595C5.25489 18.3617 5.08013 18.0136 5.04954 17.6444C5.02114 17.3001 5.12113 16.9668 5.37135 16.6818ZM5.99094 17.2011C5.87379 17.3273 5.84361 17.4493 5.85415 17.5774C5.86793 17.7444 5.9556 17.9542 6.12505 18.1951C6.38569 18.5657 6.78268 18.9279 7.14723 19.2034L10.7402 14.3441L9.1169 14.4075C8.65484 14.4257 8.24339 14.7054 8.05642 15.1284L7.47084 16.4537L7.40599 16.5999L5.99094 17.2011Z" fill="#26272A"/>
<path d="M17.7693 9.69261C17.7693 11.0308 16.5037 12.1157 14.9424 12.1157C13.3811 12.1157 12.1155 11.0308 12.1155 9.69261C12.1155 8.35438 13.3811 7.26953 14.9424 7.26953C16.5037 7.26953 17.7693 8.35438 17.7693 9.69261Z" fill="#FCA978"/>
<path d="M16.9616 9.69261C16.9616 8.91278 16.1789 8.07722 14.9424 8.07722C13.7059 8.07722 12.9232 8.91278 12.9232 9.69261C12.9232 10.4724 13.7059 11.308 14.9424 11.308V12.1157C13.3811 12.1157 12.1155 11.0308 12.1155 9.69261C12.1155 8.35438 13.3811 7.26953 14.9424 7.26953C16.5037 7.26953 17.7693 8.35438 17.7693 9.69261C17.7693 11.0308 16.5037 12.1157 14.9424 12.1157V11.308C16.1789 11.308 16.9616 10.4724 16.9616 9.69261Z" fill="#26272A"/>
<path d="M6.05762 19.4506V20.4941C6.28598 20.5458 6.52383 20.5732 6.76851 20.5732H26.0997C27.9416 20.5732 29.4145 19.0196 28.8992 17.2513C28.0291 14.2658 26.0707 10.8043 22.2114 9.66922C15.346 7.64999 11.8103 11.7605 10.9037 12.9C7.67296 16.9609 8.48066 18.9577 7.67296 19.3615C7.29137 19.5523 6.63936 19.653 6.05762 19.4506Z" fill="#FACE99"/>
<path d="M6.11211 19.0389C6.59465 19.2399 7.17827 19.1573 7.49244 19.0002C7.52913 18.9819 7.59128 18.9362 7.67622 18.6406C7.71687 18.4991 7.75527 18.3317 7.80558 18.1176C7.85486 17.9079 7.91328 17.6642 7.99173 17.3904C8.30886 16.2835 8.9385 14.7212 10.5875 12.6483C11.0552 12.0605 12.2104 10.6942 14.1441 9.73781C16.0883 8.77621 18.7929 8.24309 22.3251 9.28191C26.3791 10.4743 28.4009 14.0986 29.2867 17.138C29.8959 19.2281 28.141 20.9767 26.1001 20.9769H6.76836C5.59171 20.9768 4.55653 20.4157 3.89575 19.5571L4.03852 18.9808L4.44236 19.3846C4.95491 20.0783 5.83544 20.1691 6.76836 20.1692H26.1001C27.7426 20.169 28.9327 18.8105 28.5114 17.3644C27.657 14.4328 25.7623 11.1344 22.0979 10.0565C18.7649 9.07616 16.2687 9.58819 14.5022 10.4619C12.7253 11.3407 11.6591 12.599 11.2201 13.1508C9.63879 15.1385 9.05655 16.6052 8.76787 17.6128C8.69492 17.8675 8.6397 18.0958 8.59119 18.3022C8.54373 18.5041 8.50003 18.6979 8.45237 18.8638C8.36063 19.183 8.22085 19.5392 7.85369 19.7227C7.36014 19.9695 6.53022 20.088 5.80134 19.7843C5.55286 19.6807 5.86363 18.9354 6.11211 19.0389Z" fill="#26272A"/>
<path d="M22.6153 12.8999C22.6153 13.123 22.4345 13.3038 22.2115 13.3038C21.9884 13.3038 21.8076 13.123 21.8076 12.8999C21.8076 12.6769 21.9884 12.4961 22.2115 12.4961C22.4345 12.4961 22.6153 12.6769 22.6153 12.8999Z" fill="#E0B17B"/>
<path d="M20.1922 15.3233C20.1922 15.5463 20.0114 15.7271 19.7884 15.7271C19.5653 15.7271 19.3845 15.5463 19.3845 15.3233C19.3845 15.1002 19.5653 14.9194 19.7884 14.9194C20.0114 14.9194 20.1922 15.1002 20.1922 15.3233Z" fill="#E0B17B"/>
<path d="M25.0384 17.7461C25.0384 17.9692 24.8576 18.15 24.6346 18.15C24.4115 18.15 24.2307 17.9692 24.2307 17.7461C24.2307 17.5231 24.4115 17.3423 24.6346 17.3423C24.8576 17.3423 25.0384 17.5231 25.0384 17.7461Z" fill="#E0B17B"/>
<path d="M13.7308 17.7461C13.7308 17.9692 13.55 18.15 13.3269 18.15C13.1039 18.15 12.9231 17.9692 12.9231 17.7461C12.9231 17.5231 13.1039 17.3423 13.3269 17.3423C13.55 17.3423 13.7308 17.5231 13.7308 17.7461Z" fill="#E0B17B"/>
<path d="M16.9615 12.0923C16.9615 12.3154 16.7807 12.4962 16.5577 12.4962C16.3346 12.4962 16.1538 12.3154 16.1538 12.0923C16.1538 11.8693 16.3346 11.6885 16.5577 11.6885C16.7807 11.6885 16.9615 11.8693 16.9615 12.0923Z" fill="#E0B17B"/>
<path d="M25.1748 22.5928C25.3418 22.445 25.5965 22.4606 25.7443 22.6275C25.8921 22.7944 25.877 23.0491 25.7104 23.197C23.5495 25.1102 20.4864 26.2503 16.5576 26.2503C12.6511 26.2503 9.66067 25.2037 7.53968 23.4257C7.36883 23.2824 7.34673 23.0279 7.48999 22.857C7.63326 22.6862 7.88778 22.6634 8.05869 22.8066C10.0035 24.4368 12.7964 25.4426 16.5576 25.4426C20.3271 25.4426 23.1878 24.3521 25.1748 22.5928ZM16.5576 2.01953C19.5131 2.01953 22.2402 2.94981 24.42 4.51833C24.601 4.6486 24.6418 4.90126 24.5115 5.08229C24.3812 5.26313 24.1293 5.3046 23.9483 5.17458C21.9047 3.70401 19.3423 2.82722 16.5576 2.82722C13.7729 2.82724 11.2105 3.70403 9.1669 5.17458C8.9859 5.30451 8.73391 5.26317 8.60372 5.08229C8.47345 4.90126 8.5142 4.64861 8.69522 4.51833C10.875 2.94978 13.6021 2.01955 16.5576 2.01953Z" fill="#26272A"/>
</svg>
