<svg width="39" height="22" viewBox="0 0 39 22" fill="none" xmlns="http://www.w3.org/2000/svg">
<path d="M21.4038 6.40918C25.9557 6.40918 30.0646 6.8141 33.0249 7.46387C34.5082 7.78947 35.6817 8.1718 36.4741 8.58301C36.8708 8.78889 37.1522 8.99232 37.3296 9.18262C37.5051 9.37086 37.5581 9.5221 37.5581 9.63965C37.5581 9.75719 37.505 9.9085 37.3296 10.0967C37.1522 10.2869 36.8707 10.4905 36.4741 10.6963C35.6817 11.1075 34.5081 11.4898 33.0249 11.8154C30.0646 12.4652 25.9557 12.8701 21.4038 12.8701C16.8519 12.8701 12.743 12.4652 9.78271 11.8154C8.29944 11.4898 7.12593 11.1075 6.3335 10.6963C5.93683 10.4904 5.65543 10.287 5.47803 10.0967C5.3026 9.9085 5.25053 9.75719 5.25049 9.63965C5.25049 9.52211 5.30261 9.37083 5.47803 9.18262C5.65542 8.99232 5.93679 8.78889 6.3335 8.58301C7.12593 8.17178 8.29936 7.78948 9.78271 7.46387C12.743 6.81408 16.8519 6.40918 21.4038 6.40918Z" fill="#CEECE4" stroke="#26272A" stroke-width="0.807692"/>
<path d="M33.2488 5.41137C33.5681 4.92755 34.2779 4.92755 34.5972 5.41137L37.4875 9.7918C37.6493 10.0371 37.6652 10.3509 37.5289 10.6113L36.5728 12.4374C36.4334 12.7036 36.1578 12.8704 35.8573 12.8704H29.8278C29.1844 12.8704 28.7993 12.1549 29.1536 11.6179L33.2488 5.41137Z" fill="#F6D5A9" stroke="#26272A" stroke-width="0.807692"/>
<path d="M11.7648 3.04223C11.9424 2.49047 12.6262 2.29989 13.0636 2.68024L18.6748 7.55945C19.1603 7.98161 18.9814 8.77426 18.3617 8.94698L10.4719 11.1459C9.85213 11.3186 9.28904 10.7328 9.48619 10.1204L11.7648 3.04223Z" fill="#F6D5A9" stroke="#26272A" stroke-width="0.807692"/>
<path d="M17.9384 3.01879C18.116 2.46703 18.7998 2.27645 19.2372 2.6568L24.8484 7.53601C25.3339 7.95817 25.155 8.75082 24.5353 8.92355L16.6455 11.1225C16.0257 11.2952 15.4626 10.7093 15.6598 10.0969L17.9384 3.01879Z" fill="#F6D5A9" stroke="#26272A" stroke-width="0.807692"/>
<path d="M24.5435 2.6589C24.9845 2.28268 25.6664 2.47967 25.8389 3.03307L28.0509 10.1323C28.2423 10.7465 27.6737 11.3271 27.0556 11.1485L19.1868 8.87558C18.5687 8.69704 18.3973 7.90275 18.8867 7.48517L24.5435 2.6589Z" fill="#F6D5A9" stroke="#26272A" stroke-width="0.807692"/>
<path d="M30.9505 2.68107C31.3935 2.29182 32.0908 2.49324 32.2581 3.05879L34.9863 12.2839C35.1673 12.8958 34.6007 13.466 33.9877 13.2889L24.0324 10.4133C23.4193 10.2362 23.2441 9.45166 23.7234 9.03052L30.9505 2.68107Z" fill="#F6D5A9" stroke="#26272A" stroke-width="0.807692"/>
<path d="M4.29669 6.85131C3.99352 6.21364 4.59689 5.52132 5.27001 5.73451L13.3518 8.29418C13.9063 8.46981 14.099 9.15634 13.7168 9.59485L9.27508 14.6914C8.89291 15.1299 8.1865 15.0328 7.93674 14.5075L4.29669 6.85131Z" fill="#F6D5A9" stroke="#26272A" stroke-width="0.807692"/>
<path d="M13.8149 4.47397C14.7842 2.85858 16.3726 3.80089 17.0457 4.47397C18.338 3.50462 18.7809 4.50572 18.8407 5.12745C20.5999 4.68088 21.0693 6.39044 21.0841 7.30104C22.6995 7.30104 22.2956 9.32027 22.2956 10.128C22.2956 10.9357 11.7957 10.5318 9.77646 10.128C8.16107 9.80489 9.10338 8.10874 9.77646 7.30104C9.1303 6.00874 10.8534 5.68566 11.7957 5.68566C11.7957 4.07027 13.1418 4.20479 13.8149 4.47397Z" fill="#C0D474" stroke="#26272A" stroke-width="0.807692" stroke-linecap="round" stroke-linejoin="round"/>
<path d="M25.5194 5.27472C26.5666 3.60014 28.2829 4.57698 29.0101 5.27472C30.4064 4.26985 30.8848 5.30764 30.9495 5.95215C32.8502 5.48921 33.3574 7.26143 33.3734 8.2054C35.1187 8.2054 34.6824 10.2986 34.6824 11.1359C34.6824 11.9732 23.3377 11.5546 21.1561 11.1359C19.4107 10.801 20.4288 9.04269 21.1561 8.2054C20.4579 6.86573 22.3196 6.53082 23.3377 6.53082C23.3377 4.85623 24.7922 4.99568 25.5194 5.27472Z" fill="#FCA978" stroke="#26272A" stroke-width="0.807692" stroke-linecap="round" stroke-linejoin="round"/>
<path d="M13.0108 5.73906C13.3789 5.29134 14.0849 5.36569 14.3517 5.88028L17.7743 12.4816C18.0705 13.0527 17.6125 13.724 16.9727 13.6566L8.82726 12.7988C8.18744 12.7314 7.87937 11.9795 8.28799 11.4825L13.0108 5.73906Z" fill="#F6D5A9" stroke="#26272A" stroke-width="0.807692"/>
<path d="M17.8925 7.04765C18.0212 6.48248 18.6857 6.23284 19.1547 6.57348L25.171 10.9434C25.6915 11.3215 25.5827 12.1267 24.9804 12.353L17.3131 15.2333C16.7108 15.4596 16.0987 14.9252 16.2415 14.2979L17.8925 7.04765Z" fill="#F6D5A9" stroke="#26272A" stroke-width="0.807692"/>
<path d="M25.1615 7.04765C25.2902 6.48248 25.9547 6.23284 26.4237 6.57348L32.44 10.9434C32.9606 11.3215 32.8517 12.1267 32.2494 12.353L24.5821 15.2333C23.9799 15.4596 23.3677 14.9252 23.5105 14.2979L25.1615 7.04765Z" fill="#F6D5A9" stroke="#26272A" stroke-width="0.807692"/>
<path d="M5.34424 9.8501C5.58886 10.0138 5.89802 10.1974 6.2876 10.3892C8.31443 11.387 12.4855 12.6043 20.9966 12.604C27.8848 12.938 32.1617 12.263 34.7319 11.4878C35.97 11.1144 36.8119 10.7159 37.3599 10.3979C36.8162 12.8381 35.4825 15.0264 33.0513 17.021C30.3101 19.2698 26.0616 20.8574 21.8071 20.9429C17.5512 21.0283 13.3286 19.7025 10.3276 17.4761C8.84551 16.3764 7.63394 14.8294 6.76025 13.2983C6.03077 12.02 5.55364 10.7781 5.34424 9.8501Z" fill="#D5F5F0" stroke="#26272A" stroke-width="0.807692" stroke-linejoin="round"/>
<path d="M32.7114 14.0425C32.0383 14.8502 30.046 16.7079 27.4614 17.6771" stroke="#26272A" stroke-width="0.807692" stroke-linecap="round"/>
</svg>
