<svg width="53" height="52" viewBox="0 0 53 52" fill="none" xmlns="http://www.w3.org/2000/svg">
<path d="M26.5 21.5488C32.136 21.5488 37.2235 22.0509 40.8887 22.8555C42.725 23.2586 44.1771 23.7321 45.1582 24.2412C45.6492 24.496 45.9981 24.7469 46.2178 24.9824C46.4351 25.2155 46.5 25.4033 46.5 25.5488C46.5 25.6944 46.4351 25.8821 46.2178 26.1152C45.9981 26.3508 45.6492 26.6016 45.1582 26.8564C44.1771 27.3655 42.725 27.8391 40.8887 28.2422C37.2235 29.0467 32.136 29.5488 26.5 29.5488C20.864 29.5488 15.7765 29.0467 12.1113 28.2422C10.275 27.8391 8.82286 27.3655 7.8418 26.8564C7.3508 26.6016 7.00187 26.3508 6.78223 26.1152C6.56494 25.8821 6.5 25.6944 6.5 25.5488C6.5 25.4033 6.56494 25.2155 6.78223 24.9824C7.00187 24.7469 7.3508 24.496 7.8418 24.2412C8.82286 23.7321 10.275 23.2586 12.1113 22.8555C15.7765 22.0509 20.864 21.5488 26.5 21.5488Z" fill="#CEECE4" stroke="#26272A"/>
<path d="M41.1653 20.3138C41.5605 19.7148 42.4394 19.7148 42.8347 20.3138L46.4132 25.7372C46.6135 26.0409 46.6332 26.4294 46.4644 26.7518L45.2807 29.0127C45.1081 29.3423 44.7668 29.5488 44.3948 29.5488H36.9297C36.1331 29.5488 35.6563 28.6629 36.095 27.9981L41.1653 20.3138Z" fill="#F6D5A9" stroke="#26272A"/>
<path d="M14.5661 17.3809C14.786 16.6978 15.6326 16.4618 16.1742 16.9327L23.1213 22.9736C23.7224 23.4963 23.5009 24.4777 22.7336 24.6915L12.9653 27.414C12.198 27.6279 11.5009 26.9025 11.745 26.1443L14.5661 17.3809Z" fill="#F6D5A9" stroke="#26272A"/>
<path d="M22.2094 17.3516C22.4293 16.6685 23.2759 16.4325 23.8175 16.9034L30.7647 22.9444C31.3657 23.467 31.1443 24.4484 30.377 24.6622L20.6086 27.3847C19.8413 27.5986 19.1442 26.8732 19.3883 26.115L22.2094 17.3516Z" fill="#F6D5A9" stroke="#26272A"/>
<path d="M30.3873 16.9063C30.9333 16.4405 31.7776 16.6844 31.9911 17.3695L34.7298 26.1591C34.9667 26.9195 34.2628 27.6383 33.4975 27.4173L23.7552 24.6031C22.99 24.3821 22.7777 23.3987 23.3837 22.8817L30.3873 16.9063Z" fill="#F6D5A9" stroke="#26272A"/>
<path d="M38.3196 16.9337C38.8682 16.4517 39.7315 16.7011 39.9386 17.4013L43.3164 28.8229C43.5404 29.5805 42.8389 30.2864 42.0799 30.0672L29.7543 26.5069C28.9954 26.2876 28.7783 25.3163 29.3718 24.7949L38.3196 16.9337Z" fill="#F6D5A9" stroke="#26272A"/>
<path d="M5.31971 22.0966C4.94435 21.3071 5.69139 20.4499 6.52478 20.7139L16.5308 23.883C17.2174 24.1005 17.4559 24.9504 16.9827 25.4934L11.4834 31.8034C11.0103 32.3463 10.1357 32.2261 9.82643 31.5757L5.31971 22.0966Z" fill="#F6D5A9" stroke="#26272A"/>
<path d="M17.1043 19.1531C18.3043 17.1531 20.271 18.3198 21.1043 19.1531C22.7043 17.953 23.2526 19.1924 23.3267 19.9622C25.5047 19.4093 26.0859 21.5259 26.1042 22.6533C28.1042 22.6533 27.6042 25.1533 27.6042 26.1533C27.6042 27.1533 14.6043 26.6533 12.1043 26.1533C10.1043 25.7533 11.271 23.6533 12.1043 22.6533C11.3043 21.0533 13.4376 20.6533 14.6043 20.6533C14.6043 18.6533 16.271 18.8199 17.1043 19.1531Z" fill="#C0D474" stroke="#26272A" stroke-linecap="round" stroke-linejoin="round"/>
<path d="M31.5954 20.1448C32.8919 18.0715 35.0168 19.2809 35.9171 20.1448C37.6459 18.9006 38.2383 20.1855 38.3184 20.9835C40.6716 20.4103 41.2995 22.6045 41.3193 23.7732C43.4802 23.7732 42.94 26.3648 42.94 27.4015C42.94 28.4381 28.8943 27.9198 26.1931 27.4015C24.0322 26.9868 25.2928 24.8099 26.1931 23.7732C25.3288 22.1146 27.6337 21.6999 28.8943 21.6999C28.8943 19.6266 30.695 19.7993 31.5954 20.1448Z" fill="#FCA978" stroke="#26272A" stroke-linecap="round" stroke-linejoin="round"/>
<path d="M16.1086 20.7194C16.5644 20.1651 17.4384 20.2572 17.7687 20.8943L22.0063 29.0673C22.373 29.7745 21.806 30.6056 21.0138 30.5221L10.929 29.46C10.1368 29.3766 9.75541 28.4456 10.2613 27.8304L16.1086 20.7194Z" fill="#F6D5A9" stroke="#26272A"/>
<path d="M22.1525 22.3401C22.3118 21.6404 23.1345 21.3313 23.7152 21.753L31.164 27.1634C31.8085 27.6315 31.6736 28.6285 30.928 28.9086L21.4351 32.4748C20.6895 32.7549 19.9316 32.0933 20.1084 31.3166L22.1525 22.3401Z" fill="#F6D5A9" stroke="#26272A"/>
<path d="M31.1525 22.3401C31.3118 21.6404 32.1345 21.3313 32.7152 21.753L40.164 27.1634C40.8085 27.6315 40.6736 28.6285 39.928 28.9086L30.4351 32.4748C29.6895 32.7549 28.9316 32.0933 29.1084 31.3166L31.1525 22.3401Z" fill="#F6D5A9" stroke="#26272A"/>
<path d="M6.61401 25.8076C6.91731 26.0108 7.30109 26.2384 7.78491 26.4766C10.2924 27.711 15.4503 29.2167 25.9714 29.2188V29.2197C34.5136 29.636 39.8155 28.7975 43.0007 27.8369C44.5345 27.3744 45.5782 26.882 46.2566 26.4883C45.5835 29.5095 43.9309 32.2189 40.9207 34.6885C37.5269 37.4727 32.2672 39.4372 26.9998 39.543C21.7301 39.6488 16.5015 38.0079 12.7859 35.251C10.9509 33.8895 9.45156 31.9746 8.36987 30.0791C7.46601 28.4951 6.87296 26.9568 6.61401 25.8076Z" fill="#D5F5F0" stroke="#26272A" stroke-linejoin="round"/>
<path d="M40.5 31C39.6667 32 37.2 34.3 34 35.5" stroke="#26272A" stroke-linecap="round"/>
</svg>
