<svg width="52" height="52" viewBox="0 0 52 52" fill="none" xmlns="http://www.w3.org/2000/svg">
<path d="M22.2015 26.522L20.6903 27.0318L15.54 15.2401L17.1025 14.3705L17.9414 14.4955C18.294 14.548 18.5931 14.7844 18.7265 15.1159L22.759 25.1351L22.2015 26.522Z" fill="#F6D5A9"/>
<path d="M17.991 14.1492C18.4668 14.2201 18.8702 14.5388 19.0504 14.9863L23.083 25.0051C23.1168 25.0892 23.1167 25.1839 23.083 25.2677L22.5262 26.6539C22.4883 26.748 22.4112 26.821 22.3152 26.8535L20.8042 27.3639C20.6323 27.4219 20.4432 27.3379 20.3701 27.1709L15.2193 15.3791C15.147 15.2137 15.2119 15.0207 15.3687 14.9334L16.931 14.0633L16.9836 14.0405C17.0371 14.0214 17.0947 14.0157 17.1516 14.0241L17.991 14.1492ZM20.8811 26.5964L21.7195 26.3135L17.1083 16.3882C17.035 16.2303 16.902 16.1073 16.7387 16.0478L16.1853 15.8469L20.8811 26.5964ZM16.3811 15.1731L16.9746 15.3899C17.3137 15.5134 17.5906 15.7678 17.7429 16.0957L22.1774 25.6412L22.3812 25.1325L18.4019 15.2451C18.3151 15.0297 18.1213 14.8756 17.8923 14.8414L17.1717 14.734L16.3811 15.1731Z" fill="#26272A"/>
<path d="M25.9825 25.979L27.6918 26.2054L29.2586 11.2198L27.3835 10.5868L26.5719 10.9326C26.2248 11.0804 25.9875 11.4124 25.9582 11.7908L24.9746 24.4993L25.9825 25.979Z" fill="#F6D5A9"/>
<path d="M26.4394 10.6089C25.9711 10.8086 25.6512 11.2563 25.6116 11.7671L24.628 24.4757C24.6219 24.5557 24.6425 24.6352 24.6872 24.7009L25.695 26.181C25.7501 26.2619 25.8373 26.3147 25.934 26.3275L27.6429 26.5537C27.7365 26.5661 27.8315 26.5394 27.906 26.4798C27.9801 26.4204 28.0276 26.3337 28.0377 26.2391L29.6043 11.2528C29.6213 11.0897 29.5254 10.9375 29.3723 10.8857L27.4974 10.2527C27.4174 10.2257 27.3299 10.2296 27.2516 10.2629L26.4394 10.6089ZM27.3843 25.8084L26.371 25.6744L27.9928 12.8372C28.0157 12.6564 28.1119 12.4918 28.2584 12.3844L28.8315 11.9641L27.3843 25.8084ZM28.5071 11.3371L27.854 11.817C27.5499 12.0398 27.3497 12.3794 27.3022 12.7547L25.7532 25.0184L25.3313 24.3979L26.3049 11.8146C26.3239 11.5687 26.4782 11.3525 26.7035 11.2563L27.3935 10.9624L28.5071 11.3371Z" fill="#26272A"/>
<path d="M30.257 26.2583L31.7319 26.8692L37.634 15.4513L36.1312 14.478L35.2863 14.546C34.9309 14.5746 34.617 14.7903 34.4624 15.1121L29.7905 24.8368L30.257 26.2583Z" fill="#F6D5A9"/>
<path d="M35.2591 14.1976C34.7797 14.2363 34.3563 14.527 34.1475 14.9611L29.4748 24.6866C29.4358 24.7681 29.4296 24.8619 29.4577 24.9476L29.9247 26.3688C29.9564 26.4653 30.0285 26.5433 30.1223 26.5821L31.5975 27.1933C31.7654 27.2626 31.9586 27.191 32.0422 27.0292L37.945 15.6117C38.0278 15.4516 37.9755 15.2546 37.8248 15.157L36.3218 14.1846L36.2717 14.1573C36.2193 14.1345 36.1617 14.125 36.104 14.1296L35.2591 14.1976ZM31.5704 26.4225L30.751 26.0838L35.9941 16.4908C36.0775 16.3383 36.2185 16.2255 36.3853 16.1771L36.9495 16.0132L31.5704 26.4225ZM36.8008 15.3286L36.1934 15.5048C35.8468 15.6051 35.554 15.8393 35.3807 16.1561L30.3383 25.3813L30.1679 24.8601L34.778 15.2631C34.8785 15.0541 35.0821 14.9135 35.3128 14.8948L36.04 14.8363L36.8008 15.3286Z" fill="#26272A"/>
<path d="M26.3312 23.5598L27.8402 24.0762L33.0391 12.3067L31.4802 11.4303L30.6407 11.5517C30.2879 11.6027 29.9879 11.8378 29.8531 12.1688L25.7794 22.1706L26.3312 23.5598Z" fill="#F6D5A9"/>
<path d="M30.5925 11.2054C30.1165 11.2743 29.7117 11.5913 29.5297 12.0379L25.4559 22.0401C25.4218 22.124 25.4213 22.2178 25.4547 22.3017L26.0059 23.6912C26.0434 23.7855 26.1202 23.8588 26.2161 23.8917L27.7258 24.4075C27.8975 24.4661 28.086 24.3832 28.1598 24.2165L33.3593 12.4472C33.4322 12.2822 33.3681 12.0888 33.2117 12.0009L31.6529 11.1241L31.6004 11.1011C31.547 11.0818 31.4894 11.0758 31.4324 11.084L30.5925 11.2054ZM27.6511 23.6398L26.8139 23.3534L31.466 13.4482C31.54 13.2906 31.6735 13.1681 31.8371 13.1094L32.3913 12.9108L27.6511 23.6398ZM32.1983 12.2362L31.6039 12.4504C31.2642 12.5725 30.9863 12.8258 30.8326 13.153L26.3597 22.679L26.157 22.1696L30.1772 12.2995C30.2648 12.0845 30.4593 11.9312 30.6884 11.898L31.4095 11.7938L32.1983 12.2362Z" fill="#26272A"/>
<path d="M28.3403 27.247L29.8885 27.6233L34.0365 15.4259L32.4071 14.6955L31.5808 14.8933C31.2344 14.9763 30.9565 15.2376 30.8512 15.5795L27.6691 25.9137L28.3403 27.247Z" fill="#F6D5A9"/>
<path d="M31.503 14.5523C31.0354 14.6643 30.6602 15.0167 30.5179 15.478L27.3359 25.8129C27.3092 25.8997 27.317 25.9931 27.3576 26.0737L28.028 27.4074C28.0737 27.4981 28.1572 27.5639 28.2557 27.5878L29.8037 27.9643C29.9796 28.0069 30.16 27.907 30.2189 27.7344L34.3665 15.5367C34.4247 15.3654 34.3449 15.1784 34.1814 15.1051L32.5512 14.3747L32.4979 14.3563C32.443 14.3419 32.3852 14.3412 32.3292 14.3545L31.503 14.5523ZM29.662 27.206L28.8026 26.997L32.569 16.707C32.6288 16.5434 32.7513 16.4099 32.9088 16.3365L33.4446 16.0867L29.662 27.206ZM33.1926 15.4331L32.6196 15.6998C32.2922 15.8522 32.0378 16.1294 31.9134 16.4693L28.2913 26.3664L28.0449 25.8771L31.1846 15.6809C31.253 15.4586 31.434 15.2878 31.6592 15.2339L32.3686 15.064L33.1926 15.4331Z" fill="#26272A"/>
<path d="M22.5186 24.5235L24.0572 24.108L22.0757 11.3548L20.3019 11.4975L19.6578 12.0771C19.395 12.3136 19.2736 12.6741 19.3386 13.0251L21.3108 23.6723L22.5186 24.5235Z" fill="#F6D5A9"/>
<path d="M19.4294 11.8122C19.0746 12.1315 18.9107 12.6181 18.9985 13.0919L20.9705 23.7388C20.9874 23.8301 21.0389 23.9106 21.1137 23.9633L22.3218 24.8148C22.4048 24.8731 22.5085 24.8913 22.6061 24.865L24.1444 24.45C24.3166 24.4035 24.4268 24.231 24.3989 24.0514L22.4175 11.2982C22.3892 11.1164 22.2286 10.9877 22.0489 11.0021L20.276 11.1449C20.2011 11.1509 20.1297 11.182 20.0733 11.2327L19.4294 11.8122ZM23.6659 23.8469L22.8092 24.0793L21.3737 13.1964C21.351 13.0238 21.3963 12.8488 21.4997 12.71L21.8597 12.2258L23.6659 23.8469ZM21.3323 11.7679L20.9492 12.282C20.7342 12.5704 20.64 12.934 20.6873 13.2927L22.0707 23.7772L21.6245 23.4628L19.6784 12.9581C19.6363 12.7301 19.7151 12.4956 19.8859 12.3419L20.4434 11.8401L21.3323 11.7679Z" fill="#26272A"/>
<path d="M24.9377 24.7272L23.3547 24.5606L23.3769 11.6476L25.1509 11.5075L25.872 11.976C26.1694 12.1692 26.3453 12.5075 26.3343 12.865L26.0017 23.6949L24.9377 24.7272Z" fill="#F6D5A9"/>
<path d="M26.0563 11.6788C26.4577 11.9396 26.6953 12.396 26.6806 12.8785L26.3484 23.7089C26.3455 23.8008 26.3076 23.8878 26.2426 23.951L25.178 24.9838C25.1052 25.0544 25.0054 25.0894 24.9049 25.0788L23.3219 24.9119C23.1436 24.8931 23.0078 24.739 23.0081 24.5567L23.0295 11.6439C23.0299 11.4609 23.1685 11.3094 23.3477 11.2952L25.1217 11.1554L25.1778 11.1557C25.2336 11.1606 25.2878 11.1795 25.3357 11.2106L26.0563 11.6788ZM23.7022 24.2415L24.5824 24.3349L24.3495 13.3538C24.3458 13.1794 24.2739 13.0125 24.1498 12.8911L23.7225 12.4726L23.7022 24.2415ZM24.1724 11.9381L24.6283 12.3845C24.886 12.6367 25.0353 12.9821 25.043 13.3445L25.2669 23.9168L25.6591 23.5359L25.9873 12.8507C25.9943 12.6184 25.8802 12.398 25.6869 12.2725L25.0654 11.8686L24.1724 11.9381Z" fill="#26272A"/>
<path d="M17.7478 40.2194L14.2622 20.1838C14.1675 19.6396 14.532 19.1217 15.0762 19.0271L16.1554 18.8396C16.5487 18.7713 16.9464 18.9427 17.1949 19.2551C18.32 20.6696 21.8395 24.421 27.3621 24.177C32.661 23.9428 35.4774 20.7606 36.4612 19.3699C36.7214 19.002 37.1759 18.7946 37.616 18.892L38.0693 18.9923C38.5904 19.1077 38.9291 19.6119 38.8388 20.1379L35.559 39.2426C35.4001 40.1684 33.7514 40.7032 32.8965 40.314C31.6148 39.7303 29.6585 39.2496 26.7496 39.3779C23.3767 39.3779 20.9788 40.2722 19.5675 41.0161C18.8722 41.3827 17.8825 40.9938 17.7478 40.2194Z" fill="#DA7474"/>
<path d="M16.0702 18.3471C16.6616 18.2445 17.2356 18.5035 17.5858 18.9438C18.6837 20.324 22.0659 23.9101 27.3397 23.6772C32.4226 23.4526 35.1153 20.4065 36.0526 19.0815C36.4131 18.5719 37.0621 18.2571 37.7245 18.4037L38.1776 18.5043C38.959 18.6774 39.4671 19.4333 39.3319 20.2221L36.0517 39.3276C35.9262 40.0571 35.2583 40.5179 34.663 40.7397C34.0521 40.9672 33.2797 41.0378 32.6894 40.769C31.4906 40.2231 29.6147 39.752 26.7714 39.8774H26.7499C23.4689 39.8774 21.1501 40.7471 19.8007 41.4584C19.3031 41.7207 18.7229 41.7047 18.2528 41.5063C17.7806 41.3069 17.3573 40.8946 17.2548 40.3051L13.7694 20.269C13.6277 19.453 14.1742 18.6766 14.9901 18.5346L16.0702 18.3471ZM16.2411 19.3324L15.162 19.5199C14.8899 19.5672 14.7074 19.826 14.7548 20.0981L18.2401 40.1332C18.2723 40.3181 18.4116 40.4883 18.6415 40.5854C18.8736 40.6833 19.1362 40.6777 19.3339 40.5737C20.715 39.8456 22.979 38.992 26.1112 38.8881L26.7499 38.8774C29.7122 38.7496 31.7422 39.239 33.1034 39.8588C33.3679 39.9792 33.8475 39.9771 34.3144 39.8031C34.7967 39.6234 35.0327 39.3537 35.0663 39.1576L38.3456 20.0531C38.3907 19.7902 38.2214 19.5385 37.9608 19.4809L37.5077 19.3803C37.2901 19.3322 37.0291 19.4323 36.869 19.6586C35.8385 21.1154 32.8979 24.4325 27.3837 24.6762C21.6127 24.931 17.9559 21.0145 16.8036 19.5658C16.657 19.3817 16.4359 19.2986 16.2411 19.3324Z" fill="#26272A"/>
<path d="M32.2371 33.9405C32.1802 34.0386 32.105 34.107 32.0117 34.1457C31.9264 34.1802 31.8325 34.1983 31.7299 34.2C31.6274 34.2017 31.5215 34.192 31.4122 34.1711C31.3091 34.1521 31.2162 34.133 31.1337 34.1137C31.0335 34.1298 30.9409 34.1551 30.8556 34.1896C30.7722 34.2178 30.6857 34.2451 30.5961 34.2714C30.0291 34.1671 29.4636 34.0803 28.8996 34.0111C28.3356 33.9418 27.7701 33.8551 27.2031 33.7508C27.1135 33.7771 27.0069 33.7809 26.8833 33.7622C26.7616 33.7374 26.6337 33.7106 26.4996 33.6818C26.3735 33.6487 26.2447 33.625 26.113 33.6107C25.9832 33.5901 25.8632 33.5931 25.7531 33.6197C25.344 33.5107 24.9322 33.4555 24.5177 33.4541C24.4551 33.4138 24.3884 33.3756 24.3177 33.3396C24.2532 33.3055 24.1868 33.2777 24.1185 33.2561C24.0689 33.2404 24.0111 33.2289 23.9453 33.2218C23.8813 33.2083 23.8232 33.2207 23.7708 33.2587C23.6577 33.0932 23.494 32.9936 23.2798 32.96C23.1348 32.8322 23.0142 32.6916 22.9178 32.5382C22.8277 32.3867 22.7749 32.213 22.7595 32.0169C22.7959 31.9192 22.8185 31.8444 22.8274 31.7926C22.8382 31.7346 22.8127 31.6616 22.7509 31.5738C22.7641 31.5302 22.7869 31.4998 22.8193 31.4828C22.8579 31.4677 22.8869 31.4393 22.9063 31.3976C22.8947 31.3462 22.8983 31.2893 22.9172 31.227C22.9493 31.1211 23 31.021 23.0694 30.9269C23.1406 30.8265 23.1798 30.7195 23.1871 30.6057C23.3174 30.4899 23.4573 30.3873 23.6068 30.2981C23.7582 30.2026 23.9077 30.1133 24.0553 30.0303C24.211 29.943 24.3636 29.8547 24.5131 29.7655C24.6687 29.6782 24.817 29.5817 24.9579 29.4761C25.0871 29.476 25.2096 29.4533 25.3254 29.408C25.4493 29.3584 25.5679 29.3038 25.6812 29.244C25.8007 29.1863 25.9193 29.1316 26.037 29.0801C26.1546 29.0286 26.2831 28.9975 26.4223 28.9869C26.4461 28.9535 26.4741 28.9282 26.5065 28.9112C26.547 28.8898 26.5865 28.8716 26.6251 28.8565C26.6637 28.8414 26.7001 28.8222 26.7344 28.7989C26.7749 28.7776 26.8079 28.7471 26.8335 28.7074L26.7497 28.6809C26.4704 28.5925 26.1854 28.5228 25.8948 28.4718C25.606 28.4145 25.3144 28.3667 25.02 28.3281C24.7337 28.2853 24.4464 28.2456 24.1582 28.209C23.87 28.1725 23.5815 28.1256 23.2927 28.0683C23.1702 28.091 23.0403 28.1045 22.9029 28.1089C22.7656 28.1132 22.6282 28.1175 22.4909 28.1219C22.3597 28.1282 22.2298 28.1417 22.1011 28.1624C21.9661 28.1811 21.843 28.2173 21.7315 28.2708C21.711 28.2711 21.6821 28.2654 21.6449 28.2536C21.5766 28.232 21.5214 28.2009 21.4793 28.1602C21.4391 28.1134 21.3898 28.0739 21.3315 28.0418C21.3493 27.9382 21.359 27.8388 21.3606 27.7437C21.3579 27.6405 21.3717 27.539 21.4019 27.4393C21.4264 27.3583 21.4596 27.2937 21.5014 27.2455C21.5883 27.2729 21.6589 27.2646 21.7131 27.2203C21.7612 27.174 21.8259 27.1399 21.9074 27.1179C21.9204 27.1424 21.9362 27.1577 21.9548 27.1636C21.9858 27.1734 22.0175 27.1698 22.0499 27.1527C22.0823 27.1356 22.1209 27.1205 22.1657 27.1074C22.2105 27.0943 22.2605 27.0862 22.3158 27.0832C22.3712 27.0803 22.4382 27.0946 22.517 27.1264C22.7334 27.0856 22.9261 27.0783 23.0951 27.1045C23.2702 27.1326 23.4618 27.1625 23.6699 27.1942C23.7233 27.1974 23.7622 27.1927 23.7864 27.1799C23.8107 27.1671 23.841 27.1459 23.8771 27.1164L24.0698 27.1876C24.3329 27.2845 24.6046 27.3534 24.8847 27.3942C25.1667 27.4288 25.4465 27.4594 25.7242 27.4858C26.0081 27.5142 26.2892 27.5519 26.5674 27.599C26.8537 27.6418 27.1297 27.7188 27.3952 27.8302C27.473 27.8206 27.5469 27.8235 27.6171 27.8389C27.6934 27.8563 27.7689 27.8767 27.8434 27.9003C27.9427 27.9317 28.0485 27.9754 28.1607 28.0314C28.273 28.0874 28.3712 28.1561 28.4555 28.2374C28.5459 28.3206 28.6089 28.4156 28.6445 28.5225C28.6883 28.6251 28.6913 28.7387 28.6535 28.8633C28.6327 28.9319 28.5983 28.9893 28.5503 29.0355C28.5023 29.0818 28.449 29.123 28.3904 29.1591C28.3319 29.1952 28.2702 29.2303 28.2055 29.2644C28.1426 29.2923 28.0828 29.3212 28.0261 29.3511C27.9352 29.4042 27.8455 29.4646 27.757 29.5322C27.6766 29.5955 27.5856 29.6487 27.4842 29.6917C27.4426 29.6717 27.4057 29.6702 27.3733 29.6873C27.3471 29.7063 27.3123 29.709 27.2688 29.6952C27.1768 29.7071 27.1095 29.7609 27.0669 29.8566C26.8785 29.8721 26.6926 29.9021 26.5091 29.9464C26.3256 29.9908 26.1596 30.0783 26.0112 30.2088C25.8564 30.2486 25.7039 30.3027 25.5539 30.3714C25.4119 30.4357 25.2712 30.5072 25.1317 30.586C24.9922 30.6648 24.8517 30.7466 24.7104 30.8316C24.5771 30.9124 24.4385 30.988 24.2947 31.0586C24.2539 31.1481 24.2058 31.2285 24.1502 31.2996C24.0946 31.3708 24.035 31.4441 23.9713 31.5196C23.9506 31.5881 23.9543 31.6542 23.9827 31.7178C24.011 31.7814 24.0129 31.8537 23.9884 31.9347C24.1341 32.0149 24.2786 32.0879 24.422 32.1538C24.5734 32.2153 24.7297 32.2717 24.8911 32.3227C25.0463 32.3718 25.2043 32.4116 25.3652 32.442C25.5279 32.4662 25.6879 32.4656 25.8452 32.4403C25.9308 32.4947 26.0232 32.5376 26.1225 32.569C26.2591 32.6122 26.3932 32.641 26.5249 32.6554C26.6647 32.6654 26.7988 32.6942 26.9273 32.7417C27.0995 32.7347 27.2691 32.7474 27.4361 32.7798C27.6113 32.8079 27.7814 32.8413 27.9466 32.8799C28.1136 32.9123 28.2816 32.9415 28.4505 32.9677C28.6257 32.9958 28.8012 33.0001 28.9772 32.9807C29.0584 33.0269 29.1382 33.0555 29.2164 33.0666C29.2947 33.0777 29.3773 33.097 29.4642 33.1245C29.5262 33.1442 29.595 33.1864 29.6706 33.2513C29.785 33.2329 29.9007 33.2217 30.0175 33.2177C30.1406 33.2157 30.258 33.2323 30.3697 33.2677C30.4131 33.2814 30.4556 33.2983 30.4972 33.3183C30.5388 33.3383 30.5753 33.3635 30.6069 33.394C30.6212 33.3917 30.656 33.389 30.7113 33.386C30.7667 33.3831 30.8251 33.3811 30.8866 33.38C30.9481 33.379 31.0056 33.3801 31.0591 33.3834C31.1144 33.3804 31.1483 33.3809 31.1607 33.3848C31.2103 33.4005 31.2273 33.423 31.2117 33.4522C31.2041 33.4771 31.2159 33.4945 31.2469 33.5043C31.3524 33.5377 31.4605 33.5514 31.5711 33.5454C31.6837 33.5332 31.7927 33.5439 31.8982 33.5772C31.9417 33.591 31.9811 33.6069 32.0164 33.6249C32.0518 33.6429 32.0924 33.666 32.1383 33.6942C32.1518 33.7394 32.1612 33.7868 32.1666 33.8363C32.1739 33.8796 32.1974 33.9143 32.2371 33.9405Z" fill="white"/>
</svg>
