<svg width="21" height="26" viewBox="0 0 21 26" fill="none" xmlns="http://www.w3.org/2000/svg">
<path d="M6.9442 13.7171L5.72364 14.1289L1.56372 4.60481L2.82575 3.90239L3.50338 4.00334C3.78813 4.04576 4.02971 4.23668 4.13749 4.50447L7.39445 12.5969L6.9442 13.7171Z" fill="#F6D5A9"/>
<path d="M3.54341 3.72376C3.9277 3.78107 4.25353 4.0385 4.39905 4.39988L7.65614 12.492C7.6835 12.56 7.68337 12.6364 7.65615 12.7041L7.20642 13.8237C7.17586 13.8998 7.11355 13.9587 7.03603 13.9849L5.81557 14.3972C5.67673 14.4441 5.52405 14.3762 5.46494 14.2413L1.30468 4.71721C1.24634 4.58363 1.29873 4.4277 1.42536 4.3572L2.68725 3.65443L2.72971 3.63604C2.77296 3.62061 2.81946 3.61594 2.86546 3.62277L3.54341 3.72376ZM5.87772 13.7773L6.55487 13.5488L2.83048 5.53224C2.77122 5.40469 2.66383 5.30531 2.53189 5.25729L2.08497 5.09502L5.87772 13.7773ZM2.24308 4.55079L2.72243 4.72587C2.99636 4.82564 3.21999 5.03116 3.34302 5.29599L6.92473 13.0058L7.08932 12.5949L3.87525 4.60893C3.8052 4.43496 3.64864 4.31047 3.46365 4.28286L2.88166 4.19616L2.24308 4.55079Z" fill="#26272A"/>
<path d="M9.99805 13.2787L11.3786 13.4615L12.6441 1.35779L11.1296 0.846548L10.4741 1.12579C10.1938 1.24523 10.0021 1.5133 9.9784 1.81901L9.18399 12.0836L9.99805 13.2787Z" fill="#F6D5A9"/>
<path d="M10.3671 0.864101C9.98877 1.02542 9.7304 1.38702 9.69847 1.79959L8.90402 12.0642C8.89904 12.1288 8.91567 12.193 8.95184 12.2461L9.76577 13.4416C9.81032 13.5069 9.88074 13.5496 9.95885 13.5599L11.3391 13.7426C11.4147 13.7526 11.4914 13.731 11.5516 13.6829C11.6115 13.6349 11.6498 13.5649 11.6579 13.4885L12.9233 1.38416C12.9371 1.25245 12.8596 1.12949 12.7359 1.08766L11.2216 0.576368C11.157 0.554572 11.0863 0.557763 11.0231 0.584636L10.3671 0.864101ZM11.1302 13.1406L10.3118 13.0324L11.6217 2.66389C11.6402 2.51789 11.7179 2.38489 11.8363 2.29818L12.2991 1.95869L11.1302 13.1406ZM12.0371 1.45222L11.5096 1.83984C11.2639 2.01985 11.1023 2.29416 11.0639 2.59722L9.81283 12.5026L9.47207 12.0014L10.2584 1.83794C10.2738 1.63936 10.3984 1.46472 10.5804 1.38701L11.1377 1.14959L12.0371 1.45222Z" fill="#26272A"/>
<path d="M13.4506 13.5041L14.6418 13.9975L19.4089 4.77537L18.1951 3.98921L17.5127 4.04413C17.2256 4.06723 16.9721 4.24146 16.8472 4.50141L13.0738 12.356L13.4506 13.5041Z" fill="#F6D5A9"/>
<path d="M17.4907 3.76264C17.1034 3.7939 16.7615 4.02867 16.5929 4.37932L12.8187 12.2345C12.7872 12.3003 12.7822 12.3761 12.8049 12.4453L13.1821 13.5932C13.2077 13.6712 13.266 13.7341 13.3418 13.7655L14.5332 14.2592C14.6688 14.3151 14.8249 14.2573 14.8924 14.1266L19.6601 4.90479C19.7269 4.7755 19.6847 4.61639 19.563 4.53753L18.349 3.75212L18.3085 3.73006C18.2662 3.71162 18.2197 3.70398 18.1731 3.70772L17.4907 3.76264ZM14.5113 13.6366L13.8495 13.363L18.0844 5.6148C18.1517 5.49164 18.2656 5.40056 18.4003 5.36148L18.856 5.22905L14.5113 13.6366ZM18.7359 4.6761L18.2453 4.81845C17.9654 4.89948 17.7288 5.0886 17.5889 5.34448L13.5162 12.7956L13.3785 12.3746L17.1021 4.6232C17.1833 4.4544 17.3477 4.34082 17.5341 4.32573L18.1214 4.27846L18.7359 4.6761Z" fill="#26272A"/>
<path d="M10.2797 11.3243L11.4985 11.7413L15.6976 2.23522L14.4385 1.52738L13.7604 1.62541C13.4755 1.66661 13.2331 1.8565 13.1242 2.12383L9.83402 10.2022L10.2797 11.3243Z" fill="#F6D5A9"/>
<path d="M13.7215 1.34611C13.337 1.40179 13.0101 1.6578 12.8631 2.01854L9.57267 10.0972C9.54509 10.165 9.54476 10.2407 9.57167 10.3085L10.0169 11.4308C10.0472 11.5069 10.1092 11.5662 10.1866 11.5927L11.4061 12.0094C11.5447 12.0567 11.697 11.9897 11.7566 11.8551L15.9562 2.34913C16.0151 2.2158 15.9633 2.05965 15.837 1.98861L14.578 1.28046L14.5356 1.26188C14.4924 1.24627 14.4459 1.2414 14.3999 1.24803L13.7215 1.34611ZM11.3457 11.3893L10.6695 11.1579L14.427 3.15758C14.4868 3.03029 14.5946 2.93139 14.7267 2.88393L15.1743 2.72358L11.3457 11.3893ZM15.0184 2.17869L14.5384 2.3517C14.264 2.4503 14.0395 2.65486 13.9154 2.91915L10.3026 10.6133L10.139 10.2018L13.386 2.22983C13.4568 2.05617 13.6139 1.93237 13.799 1.90553L14.3813 1.82133L15.0184 2.17869Z" fill="#26272A"/>
<path d="M11.9024 14.3026L13.1529 14.6066L16.5032 4.75487L15.1872 4.16493L14.5198 4.32469C14.24 4.39167 14.0155 4.6028 13.9305 4.87893L11.3603 13.2258L11.9024 14.3026Z" fill="#F6D5A9"/>
<path d="M14.4569 4.04911C14.0793 4.13951 13.7762 4.42414 13.6613 4.79673L11.0912 13.1441C11.0696 13.2143 11.0759 13.2897 11.1087 13.3549L11.6502 14.432C11.6871 14.5053 11.7546 14.5584 11.8341 14.5778L13.0844 14.8819C13.2264 14.9163 13.3721 14.8356 13.4197 14.6962L16.7697 4.84416C16.8168 4.70583 16.7523 4.55481 16.6202 4.49553L15.3036 3.90563L15.2605 3.89079C15.2162 3.87917 15.1695 3.87856 15.1243 3.88935L14.4569 4.04911ZM12.9699 14.2694L12.2758 14.1006L15.3179 5.78943C15.3662 5.65728 15.4651 5.54944 15.5924 5.49015L16.0252 5.28841L12.9699 14.2694ZM15.8216 4.76051L15.3588 4.97592C15.0944 5.09902 14.8889 5.3229 14.7884 5.59746L11.8628 13.5912L11.6638 13.196L14.1997 4.9606C14.255 4.78112 14.4012 4.64313 14.5831 4.59959L15.1561 4.46241L15.8216 4.76051Z" fill="#26272A"/>
<path d="M7.20031 12.1027L8.443 11.7671L6.84257 1.46643L5.40992 1.58163L4.88971 2.04979C4.6774 2.24086 4.57936 2.532 4.63187 2.81548L6.2248 11.4151L7.20031 12.1027Z" fill="#F6D5A9"/>
<path d="M4.70521 1.83606C4.41865 2.09401 4.28627 2.48698 4.35715 2.86965L5.94993 11.4691C5.96358 11.5428 6.00519 11.6079 6.06558 11.6504L7.04136 12.3382C7.10839 12.3853 7.19214 12.4 7.27097 12.3787L8.51343 12.0435C8.65254 12.0059 8.74158 11.8666 8.71905 11.7216L7.11865 1.42095C7.09581 1.27412 6.96612 1.17011 6.82093 1.18178L5.38898 1.2971C5.32851 1.30196 5.27082 1.32705 5.22526 1.36805L4.70521 1.83606ZM8.12695 11.5564L7.43507 11.7441L6.27563 2.95408C6.25723 2.81465 6.29385 2.67333 6.37739 2.5612L6.66811 2.17014L8.12695 11.5564ZM6.24213 1.80026L5.93274 2.21555C5.75907 2.44848 5.68296 2.74217 5.72118 3.03187L6.83857 11.5001L6.4782 11.2462L4.90633 2.76158C4.87228 2.57742 4.936 2.38802 5.0739 2.26387L5.52417 1.85865L6.24213 1.80026Z" fill="#26272A"/>
<path d="M9.15419 12.2673L7.8756 12.1327L7.89357 1.70303L9.32637 1.58981L9.90881 1.96824C10.149 2.1243 10.2911 2.3975 10.2822 2.68625L10.0136 11.4335L9.15419 12.2673Z" fill="#F6D5A9"/>
<path d="M10.0576 1.72813C10.3818 1.93877 10.5737 2.30739 10.5618 2.69712L10.2935 11.4448C10.2912 11.519 10.2606 11.5892 10.208 11.6403L9.34817 12.4745C9.28937 12.5315 9.20882 12.5598 9.12765 12.5513L7.849 12.4164C7.705 12.4013 7.59536 12.2768 7.59561 12.1295L7.61291 1.69996C7.61317 1.55212 7.72516 1.42975 7.86987 1.41832L9.30269 1.30536L9.34802 1.30565C9.39311 1.30961 9.4369 1.32485 9.47556 1.34996L10.0576 1.72813ZM8.15618 11.8749L8.86716 11.9503L8.67901 3.08103C8.67601 2.94014 8.61795 2.80534 8.51774 2.70728L8.17263 2.36927L8.15618 11.8749ZM8.53594 1.9376L8.90417 2.29817C9.11231 2.50183 9.23291 2.78083 9.23913 3.07347L9.41998 11.6127L9.73679 11.305L10.0018 2.67465C10.0075 2.48701 9.91535 2.30906 9.75926 2.20764L9.25724 1.88147L8.53594 1.9376Z" fill="#26272A"/>
<path d="M3.34695 24.7803L0.531617 8.59771C0.455149 8.15817 0.749529 7.73988 1.18908 7.66351L2.0608 7.51204C2.37841 7.45685 2.69968 7.59533 2.90035 7.84762C3.80907 8.99008 6.65174 12.0201 11.1123 11.823C15.3922 11.6339 17.667 9.06364 18.4616 7.94036C18.6718 7.64318 19.0389 7.47567 19.3943 7.55434L19.7605 7.6354C20.1813 7.72856 20.4549 8.13581 20.3819 8.56066L17.7329 23.9914C17.6046 24.7391 16.2729 25.1711 15.5824 24.8567C14.5472 24.3853 12.9671 23.997 10.6176 24.1007C7.89338 24.1007 5.95662 24.8229 4.81671 25.4239C4.25509 25.7199 3.45577 25.4058 3.34695 24.7803Z" fill="#DA7474"/>
<path d="M1.99199 7.11427C2.46964 7.03138 2.93323 7.24063 3.21614 7.5962C4.10285 8.71099 6.83463 11.6074 11.0943 11.4193C15.1997 11.2379 17.3745 8.77761 18.1316 7.70742C18.4228 7.29587 18.947 7.04158 19.482 7.16002L19.848 7.24126C20.479 7.38109 20.8895 7.99162 20.7803 8.62869L18.1308 24.06C18.0295 24.6492 17.49 25.0215 17.0092 25.2006C16.5158 25.3844 15.8919 25.4413 15.4151 25.2242C14.4469 24.7834 12.9317 24.4028 10.6352 24.5041H10.6179C7.96782 24.5041 6.09495 25.2066 5.00506 25.7811C4.60315 25.993 4.13456 25.98 3.75487 25.8198C3.37342 25.6587 3.03159 25.3257 2.94875 24.8496L0.133662 8.66655C0.0192134 8.0075 0.460603 7.38042 1.11961 7.26571L1.99199 7.11427ZM2.13002 7.91013L1.25844 8.06157C1.03866 8.09976 0.891289 8.30875 0.929523 8.52852L3.74461 24.7108C3.77059 24.8601 3.88308 24.9975 4.0688 25.076C4.25628 25.1551 4.46834 25.1506 4.62803 25.0665C5.74355 24.4784 7.57218 23.789 10.102 23.7051L10.6179 23.6964C13.0105 23.5932 14.6501 23.9885 15.7496 24.4891C15.9632 24.5864 16.3505 24.5846 16.7276 24.4442C17.1173 24.299 17.3078 24.0811 17.335 23.9228L19.9836 8.49224C20.0201 8.27982 19.8833 8.0766 19.6729 8.03002L19.3069 7.94878C19.1311 7.90993 18.9203 7.99081 18.791 8.17358C17.9587 9.3502 15.5836 12.0294 11.1298 12.2262C6.46862 12.432 3.51503 9.26872 2.58435 8.09864C2.46596 7.94995 2.28734 7.88281 2.13002 7.91013Z" fill="#26272A"/>
<path d="M15.0498 19.7089C15.0038 19.7881 14.9431 19.8434 14.8677 19.8746C14.7988 19.9025 14.723 19.9171 14.6401 19.9185C14.5573 19.9198 14.4718 19.9121 14.3835 19.8952C14.3002 19.8798 14.2252 19.8644 14.1585 19.8488C14.0777 19.8618 14.0028 19.8822 13.9339 19.9101C13.8666 19.9329 13.7967 19.9549 13.7244 19.9761C13.2664 19.8919 12.8097 19.8218 12.3541 19.7659C11.8986 19.71 11.4418 19.6399 10.9839 19.5557C10.9115 19.5769 10.8254 19.58 10.7256 19.5649C10.6273 19.5448 10.5239 19.5232 10.4156 19.4999C10.3138 19.4732 10.2097 19.4541 10.1034 19.4425C9.99853 19.4259 9.90165 19.4283 9.81272 19.4498C9.48228 19.3618 9.14966 19.3172 8.81487 19.316C8.76429 19.2835 8.71045 19.2527 8.65334 19.2236C8.60124 19.196 8.54762 19.1736 8.49247 19.1561C8.45237 19.1434 8.40572 19.1342 8.35254 19.1284C8.30088 19.1175 8.25391 19.1275 8.21163 19.1582C8.12028 19.0245 7.98807 18.9441 7.81501 18.9169C7.69794 18.8137 7.6005 18.7001 7.52266 18.5762C7.44984 18.4539 7.40721 18.3136 7.39476 18.1552C7.42417 18.0763 7.44247 18.0159 7.44966 17.9741C7.45837 17.9272 7.43776 17.8683 7.38784 17.7973C7.39851 17.7621 7.41693 17.7376 7.44308 17.7238C7.47425 17.7116 7.49767 17.6887 7.51336 17.655C7.50398 17.6135 7.50692 17.5675 7.52217 17.5172C7.54809 17.4316 7.58905 17.3509 7.64506 17.2748C7.70259 17.1938 7.73429 17.1073 7.74016 17.0154C7.84542 16.9218 7.95842 16.839 8.07916 16.7669C8.20143 16.6898 8.32217 16.6177 8.44138 16.5507C8.56713 16.4801 8.69038 16.4088 8.81112 16.3368C8.93688 16.2662 9.05663 16.1883 9.1704 16.103C9.2748 16.1029 9.37375 16.0846 9.46725 16.048C9.56729 16.008 9.66308 15.9638 9.75462 15.9156C9.85117 15.8689 9.94695 15.8248 10.042 15.7832C10.137 15.7415 10.2408 15.7165 10.3532 15.7079C10.3724 15.6809 10.3951 15.6605 10.4212 15.6467C10.4539 15.6295 10.4858 15.6148 10.517 15.6026C10.5482 15.5904 10.5776 15.5749 10.6053 15.5561C10.638 15.5388 10.6647 15.5142 10.6854 15.4821L10.6177 15.4607C10.3921 15.3893 10.1619 15.333 9.92714 15.2918C9.69392 15.2456 9.4584 15.2069 9.2206 15.1758C8.98933 15.1412 8.75731 15.1092 8.52452 15.0796C8.29173 15.0501 8.05872 15.0122 7.82549 14.966C7.72654 14.9843 7.62159 14.9952 7.51065 14.9987C7.39971 15.0022 7.28876 15.0057 7.17782 15.0092C7.07189 15.0143 6.96694 15.0252 6.86298 15.042C6.754 15.0571 6.6545 15.0863 6.56449 15.1295C6.54793 15.1298 6.5246 15.1251 6.49452 15.1156C6.43938 15.0982 6.3948 15.073 6.36079 15.0402C6.32831 15.0024 6.28853 14.9705 6.24144 14.9445C6.25581 14.8609 6.26365 14.7806 6.26494 14.7038C6.26275 14.6204 6.27385 14.5384 6.29825 14.4579C6.31808 14.3925 6.34488 14.3403 6.37866 14.3014C6.44884 14.3236 6.50584 14.3168 6.54964 14.281C6.58844 14.2436 6.64074 14.2161 6.70656 14.1983C6.71703 14.2182 6.72978 14.2305 6.74482 14.2352C6.76989 14.2432 6.7955 14.2402 6.82165 14.2264C6.84781 14.2127 6.87897 14.2005 6.91515 14.1899C6.95133 14.1792 6.99176 14.1727 7.03645 14.1703C7.08113 14.1679 7.13529 14.1795 7.19894 14.2052C7.37375 14.1723 7.52937 14.1664 7.66582 14.1875C7.80728 14.2102 7.96204 14.2343 8.13009 14.2599C8.17325 14.2626 8.20463 14.2587 8.22425 14.2484C8.24386 14.238 8.26827 14.2209 8.29748 14.1971L8.45311 14.2546C8.66564 14.3329 8.88503 14.3885 9.11128 14.4215C9.33905 14.4495 9.56509 14.4741 9.78937 14.4955C10.0187 14.5184 10.2457 14.5489 10.4704 14.5869C10.7017 14.6214 10.9246 14.6837 11.139 14.7736C11.2018 14.7659 11.2615 14.7683 11.3182 14.7807C11.3799 14.7947 11.4408 14.8112 11.501 14.8303C11.5812 14.8556 11.6666 14.8909 11.7573 14.9362C11.848 14.9814 11.9274 15.0369 11.9954 15.1025C12.0684 15.1697 12.1193 15.2465 12.1481 15.3328C12.1834 15.4157 12.1858 15.5075 12.1553 15.6081C12.1385 15.6635 12.1108 15.7098 12.072 15.7472C12.0332 15.7845 11.9901 15.8178 11.9428 15.847C11.8956 15.8761 11.8458 15.9045 11.7934 15.932C11.7427 15.9546 11.6944 15.9779 11.6486 16.002C11.5752 16.045 11.5027 16.0937 11.4312 16.1483C11.3663 16.1995 11.2928 16.2424 11.2109 16.2771C11.1773 16.261 11.1475 16.2598 11.1213 16.2736C11.1002 16.289 11.072 16.2911 11.037 16.28C10.9626 16.2896 10.9083 16.333 10.8738 16.4104C10.7217 16.4229 10.5715 16.4471 10.4233 16.4829C10.2751 16.5187 10.1411 16.5894 10.0212 16.6948C9.8961 16.7269 9.77295 16.7707 9.65177 16.8261C9.53713 16.8781 9.42348 16.9359 9.3108 16.9995C9.19812 17.0631 9.08468 17.1292 8.97048 17.1979C8.86282 17.2631 8.7509 17.3242 8.63474 17.3812C8.60184 17.4535 8.56294 17.5184 8.51805 17.5759C8.47316 17.6334 8.425 17.6926 8.37357 17.7535C8.35679 17.8089 8.35985 17.8622 8.38275 17.9136C8.40564 17.965 8.40718 18.0234 8.38735 18.0888C8.50506 18.1536 8.62179 18.2126 8.73754 18.2658C8.85982 18.3155 8.98614 18.361 9.11649 18.4022C9.24183 18.4419 9.36945 18.474 9.49936 18.4986C9.63079 18.5181 9.76004 18.5176 9.88711 18.4972C9.95622 18.5411 10.0309 18.5758 10.1111 18.6011C10.2214 18.636 10.3297 18.6593 10.4361 18.6709C10.549 18.679 10.6573 18.7023 10.7611 18.7406C10.9001 18.735 11.0371 18.7453 11.1721 18.7714C11.3135 18.7941 11.4509 18.8211 11.5843 18.8522C11.7193 18.8784 11.855 18.902 11.9914 18.9231C12.1329 18.9458 12.2746 18.9493 12.4168 18.9336C12.4824 18.971 12.5468 18.9941 12.61 19.0031C12.6732 19.012 12.7399 19.0276 12.8101 19.0498C12.8602 19.0657 12.9158 19.0998 12.9768 19.1522C13.0693 19.1374 13.1627 19.1283 13.257 19.1251C13.3564 19.1234 13.4512 19.1369 13.5415 19.1655C13.5766 19.1766 13.6109 19.1902 13.6445 19.2063C13.678 19.2225 13.7076 19.2428 13.7331 19.2675C13.7446 19.2656 13.7728 19.2635 13.8174 19.2611C13.8621 19.2586 13.9093 19.257 13.959 19.2562C14.0087 19.2554 14.0551 19.2563 14.0983 19.2589C14.143 19.2565 14.1703 19.2569 14.1803 19.2601C14.2205 19.2728 14.2342 19.2909 14.2216 19.3145C14.2155 19.3346 14.2249 19.3486 14.25 19.3566C14.3352 19.3835 14.4225 19.3946 14.5119 19.3898C14.6028 19.38 14.6908 19.3885 14.7761 19.4155C14.8112 19.4266 14.843 19.4394 14.8715 19.454C14.9001 19.4685 14.9329 19.4872 14.97 19.5099C14.9809 19.5465 14.9885 19.5847 14.9929 19.6247C14.9988 19.6597 15.0177 19.6877 15.0498 19.7089Z" fill="white"/>
</svg>
