<svg width="29" height="29" viewBox="0 0 29 29" fill="none" xmlns="http://www.w3.org/2000/svg">
<path d="M27.8653 14.1347L27.0577 12.9231L25.8461 12.1154L22.6153 10.9039L19.3846 10.5L16.5577 10.0962H11.3077L6.05765 10.9039L2.82689 11.7116L0.807655 12.9231L0.403809 14.5385V17.3654L2.01919 20.1923L4.84612 23.827L8.07689 25.4423V27.4616L11.3077 28.2693H18.5769L20.1923 27.4616V25.4423L21.8077 24.6347L25.4423 21.4039L27.0577 18.577L27.8653 16.1539V14.1347Z" fill="#CFF4ED"/>
<path d="M26.6538 14.9422C26.6538 16.5034 21.0488 17.7691 14.1346 17.7691C7.22041 17.7691 1.61536 16.5034 1.61536 14.9422C1.61536 13.3809 7.22041 12.1152 14.1346 12.1152C21.0488 12.1152 26.6538 13.3809 26.6538 14.9422Z" fill="#FCA978"/>
<path d="M14.1346 12.1152C21.0488 12.1152 26.6538 13.3809 26.6538 14.9422C26.6538 16.5034 21.0488 17.7691 14.1346 17.7691V16.9614C17.5502 16.9614 20.6178 16.6478 22.8094 16.1529C23.9113 15.9041 24.7479 15.6192 25.2893 15.3302C25.5606 15.1854 25.7196 15.0598 25.8012 14.9698C25.8098 14.9602 25.8148 14.9497 25.8209 14.9422C25.8148 14.9346 25.8098 14.9241 25.8012 14.9146C25.7196 14.8245 25.5606 14.6989 25.2893 14.5541C24.7479 14.2651 23.9113 13.9802 22.8094 13.7314C20.6178 13.2365 17.5502 12.9229 14.1346 12.9229C10.719 12.9229 7.6514 13.2365 5.45978 13.7314C4.35786 13.9802 3.52132 14.2651 2.97991 14.5541C2.70858 14.6989 2.5496 14.8245 2.46801 14.9146C2.45922 14.9243 2.45367 14.9345 2.4475 14.9422C2.45367 14.9498 2.45922 14.9601 2.46801 14.9698C2.5496 15.0598 2.70858 15.1854 2.97991 15.3302C3.52132 15.6192 4.35786 15.9041 5.45978 16.1529C7.6514 16.6478 10.719 16.9614 14.1346 16.9614V17.7691C7.22041 17.7691 1.61536 16.5034 1.61536 14.9422C1.61536 13.3809 7.22041 12.1152 14.1346 12.1152Z" fill="#26272A"/>
<path d="M27.0577 13.7455C27.0577 13.5869 26.9434 13.267 26.3249 12.8368C25.7301 12.4233 24.8167 12.018 23.6155 11.6647C21.2235 10.9613 17.8713 10.5147 14.1346 10.5147C10.3979 10.5147 7.04565 10.9613 4.65366 11.6647C3.45244 12.018 2.53903 12.4233 1.94426 12.8368C1.32573 13.267 1.2115 13.5869 1.2115 13.7455C1.2115 13.9041 1.32573 14.224 1.94426 14.6541C2.53903 15.0677 3.45244 15.4729 4.65366 15.8262C7.04565 16.5297 10.3979 16.9763 14.1346 16.9763V17.784C6.55128 17.784 0.403809 15.9759 0.403809 13.7455C0.403809 11.5151 6.55128 9.70703 14.1346 9.70703C21.7179 9.70703 27.8653 11.5151 27.8653 13.7455C27.8653 15.9759 21.7179 17.784 14.1346 17.784V16.9763C17.8713 16.9763 21.2235 16.5297 23.6155 15.8262C24.8167 15.4729 25.7301 15.0677 26.3249 14.6541C26.9434 14.224 27.0577 13.9041 27.0577 13.7455Z" fill="#26272A"/>
<path d="M0 14.5536C0 14.4028 0.0399417 14.2345 0.0883413 14.0835C0.139267 13.9246 0.210322 13.752 0.292631 13.5818C0.453933 13.2485 0.679384 12.8843 0.926007 12.6377L1.49707 13.2088C1.33985 13.366 1.16145 13.6411 1.01987 13.9336C0.950911 14.0761 0.895534 14.2131 0.858173 14.3296C0.81828 14.454 0.807692 14.5281 0.807692 14.5536C0.807935 20.9755 6.72553 26.2651 14.1346 26.2651C21.5437 26.2651 27.4613 20.9755 27.4615 14.5536C27.4615 14.5245 27.4489 14.451 27.4032 14.3304C27.3605 14.2179 27.301 14.0937 27.2375 13.9746C27.1747 13.8568 27.1111 13.7502 27.0632 13.6726C27.0394 13.634 27.02 13.6028 27.0064 13.5818C26.9997 13.5714 26.994 13.5633 26.9906 13.5582C26.9891 13.5558 26.9882 13.5538 26.9875 13.5527L26.9867 13.5519C26.8627 13.3665 26.9125 13.1151 27.0979 12.9911C27.2832 12.8674 27.534 12.9171 27.6579 13.1023V13.1031L27.6587 13.1039C27.6591 13.1044 27.6597 13.1053 27.6603 13.1062C27.6616 13.1082 27.6636 13.1107 27.6658 13.1141C27.6704 13.1211 27.6767 13.1315 27.6848 13.1441C27.7009 13.1691 27.724 13.2044 27.751 13.2482C27.805 13.3357 27.8768 13.4584 27.9498 13.5953C28.0221 13.731 28.0988 13.8878 28.158 14.0441C28.2141 14.192 28.2692 14.3758 28.2692 14.5536C28.269 21.5136 21.8918 27.0728 14.1346 27.0728C6.37741 27.0728 0.000240895 21.5136 0 14.5536Z" fill="#26272A"/>
<path d="M4.11933 18.6745C4.33398 18.6142 4.55709 18.7392 4.61748 18.9538C4.94716 20.1284 6.40949 22.6722 9.56866 23.2521C9.78794 23.2924 9.93302 23.5024 9.89292 23.7217C9.85265 23.941 9.64199 24.0862 9.42262 24.0459C5.86843 23.3933 4.22442 20.5418 3.84001 19.1726C3.77976 18.958 3.90476 18.7349 4.11933 18.6745Z" fill="#26272A"/>
<path d="M20.0528 26.8306V25.4424C20.0528 25.2194 20.2336 25.0386 20.4566 25.0386C20.6797 25.0386 20.8605 25.2194 20.8605 25.4424V26.8306C20.8605 27.3865 20.4824 27.8718 19.9432 28.0067L18.9509 28.2544C15.6982 29.0675 12.2923 29.0409 9.05273 28.1771L8.43276 28.0114C7.90254 27.8699 7.53357 27.3897 7.53357 26.8409V25.4424C7.53357 25.2194 7.71438 25.0386 7.93742 25.0386C8.16045 25.0386 8.34126 25.2194 8.34126 25.4424V26.8409C8.34126 27.0238 8.46424 27.1842 8.64099 27.2313L9.26096 27.397C12.3682 28.2255 15.6354 28.2511 18.7553 27.4711L19.7468 27.2227C19.9265 27.1777 20.0528 27.016 20.0528 26.8306Z" fill="#26272A"/>
<path d="M20.8605 14.9423H18.8413L25.2165 5.94192C25.5239 5.50791 26.0227 5.24996 26.5546 5.24996C27.2015 5.24996 27.7259 5.77436 27.7259 6.42123V6.56552C27.7259 7.01866 27.5588 7.4559 27.2567 7.7936L20.8605 14.9423Z" fill="white"/>
<path d="M27.3222 6.42129C27.3222 5.9975 26.9785 5.65391 26.5548 5.65382C26.1539 5.65382 25.7777 5.84811 25.5459 6.17519L19.6223 14.5384H20.6801L26.9555 7.52398C27.1913 7.26036 27.3222 6.91935 27.3222 6.56563V6.42129ZM14.803 6.05767C14.803 5.77888 14.76 5.59926 14.6989 5.46136C14.636 5.31946 14.5427 5.19497 14.3992 5.03228C14.1078 4.70209 13.6626 4.27612 13.2302 3.41137C12.844 2.63889 12.9268 1.90558 13.1805 1.32273C13.4286 0.753004 13.8422 0.316509 14.157 0.0804303C14.3354 -0.053053 14.588 -0.0166026 14.7218 0.161673C14.8556 0.340103 14.8197 0.593392 14.6413 0.727215C14.4177 0.894998 14.1038 1.22577 13.9212 1.64533C13.7442 2.0519 13.6928 2.5303 13.9527 3.05012C14.328 3.80057 14.6905 4.14197 15.0049 4.49829C15.1641 4.67875 15.3234 4.87735 15.4372 5.13403C15.5528 5.39493 15.6107 5.69031 15.6107 6.05767C15.6107 7.54546 14.6702 8.27778 14.1231 8.46024C13.9115 8.53076 13.6825 8.41623 13.612 8.20468C13.5414 7.99309 13.6559 7.76409 13.8675 7.69356C14.1283 7.60654 14.803 7.15408 14.803 6.05767ZM28.1299 6.56563C28.1299 7.1181 27.9257 7.65098 27.5573 8.0627L21.1612 15.2113L21.0413 15.3461H18.0606L24.8873 5.70825C25.2705 5.16756 25.8921 4.84613 26.5548 4.84613C27.4246 4.84621 28.1299 5.55143 28.1299 6.42129V6.56563Z" fill="#26272A"/>
</svg>
