<svg width="52" height="52" viewBox="0 0 52 52" fill="none" xmlns="http://www.w3.org/2000/svg">
<path d="M43 25L42 23.5L40.5 22.5L36.5 21L32.5 20.5L29 20H22.5L16 21L12 22L9.5 23.5L9 25.5V29L11 32.5L14.5 37L18.5 39V41.5L22.5 42.5H31.5L33.5 41.5V39L35.5 38L40 34L42 30.5L43 27.5V25Z" fill="#CFF4ED"/>
<path d="M41.5 26C41.5 27.933 34.5604 29.5 26 29.5C17.4396 29.5 10.5 27.933 10.5 26C10.5 24.067 17.4396 22.5 26 22.5C34.5604 22.5 41.5 24.067 41.5 26Z" fill="#FCA978"/>
<path d="M26 22.5C34.5604 22.5 41.5 24.067 41.5 26C41.5 27.933 34.5604 29.5 26 29.5V28.5C30.2288 28.5 34.0268 28.1117 36.7402 27.499C38.1045 27.1909 39.1402 26.8382 39.8105 26.4805C40.1465 26.3011 40.3433 26.1456 40.4443 26.0342C40.455 26.0224 40.4612 26.0094 40.4688 26C40.4612 25.9906 40.455 25.9776 40.4443 25.9658C40.3433 25.8544 40.1465 25.6989 39.8105 25.5195C39.1402 25.1618 38.1045 24.8091 36.7402 24.501C34.0268 23.8883 30.2288 23.5 26 23.5C21.7712 23.5 17.9732 23.8883 15.2598 24.501C13.8955 24.8091 12.8598 25.1618 12.1895 25.5195C11.8535 25.6989 11.6567 25.8544 11.5557 25.9658C11.5448 25.9778 11.5379 25.9905 11.5303 26C11.5379 26.0095 11.5448 26.0222 11.5557 26.0342C11.6567 26.1456 11.8535 26.3011 12.1895 26.4805C12.8598 26.8382 13.8955 27.1909 15.2598 27.499C17.9732 28.1117 21.7712 28.5 26 28.5V29.5C17.4396 29.5 10.5 27.933 10.5 26C10.5 24.067 17.4396 22.5 26 22.5Z" fill="#26272A"/>
<path d="M42 24.5181C42 24.3217 41.8586 23.9256 41.0928 23.3931C40.3564 22.881 39.2255 22.3793 37.7383 21.9419C34.7768 21.0709 30.6264 20.5181 26 20.5181C21.3736 20.5181 17.2232 21.0709 14.2617 21.9419C12.7745 22.3793 11.6436 22.881 10.9072 23.3931C10.1414 23.9256 10 24.3217 10 24.5181C10 24.7145 10.1414 25.1105 10.9072 25.6431C11.6436 26.1551 12.7745 26.6568 14.2617 27.0942C17.2232 27.9652 21.3736 28.5181 26 28.5181V29.5181C16.6112 29.5181 9 27.2795 9 24.5181C9 21.7566 16.6112 19.5181 26 19.5181C35.3888 19.5181 43 21.7566 43 24.5181C43 27.2795 35.3888 29.5181 26 29.5181V28.5181C30.6264 28.5181 34.7768 27.9652 37.7383 27.0942C39.2255 26.6568 40.3564 26.1551 41.0928 25.6431C41.8586 25.1105 42 24.7145 42 24.5181Z" fill="#26272A"/>
<path d="M8.5 25.5186C8.5 25.3319 8.54945 25.1235 8.60938 24.9365C8.67243 24.7398 8.7604 24.526 8.8623 24.3154C9.06201 23.9028 9.34114 23.4518 9.64648 23.1465L10.3535 23.8535C10.1589 24.0482 9.93799 24.3888 9.7627 24.751C9.67732 24.9274 9.60876 25.097 9.5625 25.2412C9.51311 25.3953 9.5 25.487 9.5 25.5186C9.5003 33.4695 16.8268 40.0186 26 40.0186C35.1732 40.0186 42.4997 33.4695 42.5 25.5186C42.5 25.4825 42.4843 25.3915 42.4277 25.2422C42.375 25.1029 42.3012 24.9491 42.2227 24.8018C42.1449 24.6559 42.0661 24.5239 42.0068 24.4277C41.9774 24.38 41.9533 24.3414 41.9365 24.3154C41.9282 24.3025 41.9212 24.2925 41.917 24.2861C41.915 24.2832 41.914 24.2807 41.9131 24.2793L41.9121 24.2783C41.7586 24.0488 41.8203 23.7375 42.0498 23.584C42.2792 23.4309 42.5897 23.4924 42.7432 23.7217V23.7227L42.7441 23.7236C42.7446 23.7244 42.7453 23.7254 42.7461 23.7266C42.7477 23.729 42.7502 23.7321 42.7529 23.7363C42.7586 23.745 42.7663 23.7579 42.7764 23.7734C42.7964 23.8044 42.825 23.8481 42.8584 23.9023C42.9252 24.0107 43.0142 24.1626 43.1045 24.332C43.1941 24.5001 43.289 24.6943 43.3623 24.8877C43.4317 25.0709 43.5 25.2985 43.5 25.5186C43.4997 34.1357 35.6042 41.0186 26 41.0186C16.3958 41.0186 8.5003 34.1357 8.5 25.5186Z" fill="#26272A"/>
<path d="M13.6002 30.6208C13.8659 30.5462 14.1421 30.701 14.2169 30.9666C14.6251 32.4208 16.4356 35.5703 20.3469 36.2884C20.6184 36.3382 20.7981 36.5982 20.7484 36.8697C20.6985 37.1413 20.4377 37.321 20.1661 37.2712C15.7657 36.4631 13.7303 32.9327 13.2543 31.2375C13.1797 30.9718 13.3345 30.6955 13.6002 30.6208Z" fill="#26272A"/>
<path d="M33.3274 40.7188V39C33.3274 38.7239 33.5513 38.5 33.8274 38.5C34.1035 38.5 34.3274 38.7239 34.3274 39V40.7188C34.3274 41.4069 33.8592 42.0077 33.1917 42.1748L31.9631 42.4814C27.936 43.4882 23.7191 43.4553 19.7083 42.3857L18.9407 42.1807C18.2842 42.0055 17.8274 41.4109 17.8274 40.7314V39C17.8274 38.7239 18.0513 38.5 18.3274 38.5C18.6035 38.5 18.8274 38.7239 18.8274 39V40.7314C18.8274 40.9579 18.9796 41.1565 19.1985 41.2148L19.9661 41.4199C23.8132 42.4458 27.8583 42.4774 31.7209 41.5117L32.9485 41.2041C33.1711 41.1485 33.3274 40.9482 33.3274 40.7188Z" fill="#26272A"/>
<path d="M34.3274 26H31.8274L39.7206 14.8567C40.1012 14.3194 40.7188 14 41.3773 14C42.1781 14 42.8274 14.6493 42.8274 15.4501V15.6288C42.8274 16.1898 42.6206 16.7312 42.2465 17.1493L34.3274 26Z" fill="white"/>
<path d="M42.3276 15.4502C42.3276 14.9255 41.9021 14.5001 41.3774 14.5C40.8811 14.5 40.4153 14.7405 40.1284 15.1455L32.7944 25.5H34.104L41.8735 16.8154C42.1655 16.489 42.3276 16.0668 42.3276 15.6289V15.4502ZM26.8276 15C26.8276 14.6548 26.7743 14.4324 26.6987 14.2617C26.6209 14.086 26.5053 13.9319 26.3276 13.7304C25.9669 13.3216 25.4157 12.7942 24.8803 11.7236C24.4021 10.7672 24.5046 9.85929 24.8188 9.13767C25.126 8.43229 25.6381 7.89187 26.0278 7.59958C26.2487 7.43432 26.5614 7.47944 26.727 7.70017C26.8927 7.92108 26.8483 8.23468 26.6274 8.40036C26.3505 8.60809 25.962 9.01762 25.7358 9.53708C25.5167 10.0405 25.4531 10.6328 25.7749 11.2763C26.2395 12.2055 26.6884 12.6282 27.0776 13.0693C27.2747 13.2927 27.4719 13.5386 27.6128 13.8564C27.7559 14.1794 27.8276 14.5451 27.8276 15C27.8276 16.842 26.6632 17.7487 25.9858 17.9746C25.7239 18.0619 25.4404 17.9201 25.353 17.6582C25.2657 17.3962 25.4074 17.1127 25.6694 17.0254C25.9922 16.9176 26.8276 16.3574 26.8276 15ZM43.3276 15.6289C43.3276 16.3129 43.0747 16.9726 42.6186 17.4824L34.6997 26.333L34.5512 26.5H30.8608L39.313 14.5674C39.7873 13.8979 40.5569 13.5 41.3774 13.5C42.4544 13.5001 43.3276 14.3732 43.3276 15.4502V15.6289Z" fill="#26272A"/>
</svg>
