<svg width="440" height="604" viewBox="0 0 440 604" fill="none" xmlns="http://www.w3.org/2000/svg">
<g opacity="0.4" clip-path="url(#clip0_66_2362)">
<g opacity="0.3">
<path d="M717.438 185.039C700.126 209.023 661.211 221.797 631.259 216.354C601.307 210.912 574.258 194.338 549.077 176.644C491.651 136.306 438.447 87.9738 374.058 60.7392C304.112 31.5097 226.692 29.3804 157.45 54.7817C121.959 68.0015 89.5713 88.208 53.6855 100.389C-28.7119 128.333 -119.906 118.372 -189.027 60.9082L104.12 -289.382L717.438 185.039Z" fill="#46C4AC"/>
</g>
<g opacity="0.6">
<path d="M686.333 231.751C672.177 250.899 636.737 258.338 608.091 250.81C579.445 243.282 552.573 226.596 527.308 209.024C469.691 168.955 415.354 122.374 352.383 92.9575C284.858 61.4228 210.177 52.2662 148.232 67.8986C116.05 76.027 87.4203 90.468 54.7717 97.6649C15.1055 106.201 -26.3572 105.565 -66.4838 95.8059C-106.61 86.0465 -144.352 67.4186 -176.856 41.3294L108.395 -267.443L686.333 231.751Z" fill="#46C4AC"/>
</g>
<path d="M701.609 213.974C689.09 231.621 672.205 245.688 652.491 254.893C632.776 264.099 610.86 268.15 588.739 266.678C542.252 263.104 500.147 235.182 465.216 203.206C430.284 171.229 399.881 134.249 362.3 105.432C304.571 61.1025 225.374 38.677 160.064 65.0764C127.176 78.35 100.408 102.559 69.7444 120.099C37.969 137.971 2.41462 148.648 -34.4933 151.402C-71.4012 154.155 -108.794 148.921 -144.121 136.055C-167.484 127.381 -190.625 114.329 -206.698 95.6592" stroke="#46C4AC" stroke-width="2" stroke-miterlimit="10"/>
<ellipse opacity="0.1" cx="9.47462" cy="9.14243" rx="9.47462" ry="9.14243" transform="matrix(0.88281 0.46973 -0.452365 0.891833 121.92 284.355)" fill="#199485"/>
</g>
<defs>
<clipPath id="clip0_66_2362">
<rect width="783.734" height="552.463" fill="white" transform="translate(141.126 -330.812) rotate(41.8314)"/>
</clipPath>
</defs>
</svg>
