<svg width="440" height="306" viewBox="0 0 440 306" fill="none" xmlns="http://www.w3.org/2000/svg">
<g opacity="0.4" clip-path="url(#clip0_66_2354)">
<g opacity="0.3">
<path d="M-14.4566 326.131C-15.7268 308.7 -1.84231 288.304 15.0595 279.581C31.9613 270.858 51.9695 268.305 71.5169 266.962C116.091 263.893 161.847 266.055 204.503 254.397C250.696 241.571 289.526 213.572 313.143 176.06C325.167 156.742 332.826 135.395 345.467 116.403C374.5 72.808 423.271 43.231 480.548 43.6068L479.34 313.271L-14.4566 326.131Z" fill="#46C4AC"/>
</g>
<g opacity="0.6">
<path d="M-18.2121 293.159C-19.062 279.118 -4.71074 262.458 12.3993 255.177C29.5094 247.895 49.4765 245.459 69.0153 244.029C113.573 240.766 159.173 241.704 202.021 231.573C247.965 220.705 288.312 196.94 312.326 166.621C324.799 150.866 332.961 133.558 346.042 118.054C362.02 99.312 382.61 84.0865 406.258 73.5274C429.905 62.9683 455.992 57.3518 482.547 57.1022L468.317 304.852L-18.2121 293.159Z" fill="#46C4AC"/>
</g>
<path d="M-18.4684 306.994C-19.5107 294.251 -16.9548 281.508 -11.0336 269.927C-5.11245 258.346 3.98579 248.294 15.4323 240.688C39.6817 224.925 71.69 221.919 101.831 223.45C131.972 224.981 161.928 230.491 192.083 229.587C238.429 228.228 286.389 208.833 307.673 172.337C318.398 153.969 321.673 132.897 329.572 113.412C337.881 93.3596 350.97 75.179 367.948 60.1101C384.926 45.0412 405.392 33.4388 427.95 26.0943C442.936 21.3127 459.594 18.6135 475.073 21.1248" stroke="#46C4AC" stroke-width="2" stroke-miterlimit="10"/>
<ellipse opacity="0.1" cx="6.01353" cy="5.42657" rx="6.01353" ry="5.42657" transform="matrix(-0.983201 0.182526 -0.237687 -0.971342 237.148 57.9268)" fill="#199485"/>
</g>
<defs>
<clipPath id="clip0_66_2354">
<rect width="499.46" height="326.132" fill="white" transform="translate(478.052 346.039) rotate(-177.685)"/>
</clipPath>
</defs>
</svg>
